<svg width="60" height="60" viewBox="0 0 60 60" fill="none" xmlns="http://www.w3.org/2000/svg">
<g clip-path="url(#clip0_1279_211)">
<mask id="mask0_1279_211" style="mask-type:luminance" maskUnits="userSpaceOnUse" x="2" y="5" width="57" height="49">
<path d="M58.1649 5.62291H2.00378V53.7522H58.1649V5.62291Z" fill="white"/>
</mask>
<g mask="url(#mask0_1279_211)">
<path d="M55.9557 42.7288C52.9639 44.2937 37.4373 50.68 34.0927 52.4329C30.748 54.1857 28.9568 54.1359 26.3409 52.8855C23.725 51.6351 7.2587 44.9381 4.27459 43.5112C2.77103 42.8055 2.00391 42.2033 2.00391 41.6394V35.9589C2.00391 35.9589 23.514 31.2909 26.9853 30.0329C30.4565 28.7748 31.6571 28.7441 34.6066 29.8257C37.5562 30.9074 55.2384 34.0986 58.1573 35.1572V40.7572C58.1573 41.3403 57.4861 41.9079 55.9557 42.7249V42.7288Z" fill="#A32422"/>
<path d="M55.9556 37.0751C52.9638 38.6323 37.4373 45.0186 34.0926 46.7408C30.7479 48.463 28.9567 48.4477 26.3408 47.2011C23.7249 45.9545 7.25862 39.2575 4.27451 37.8422C1.2904 36.4268 1.23287 35.4373 4.15945 34.2942C7.08602 33.1512 23.514 26.7189 26.9852 25.4531C30.4564 24.1874 31.657 24.1605 34.6066 25.246C37.5562 26.3315 53.0175 32.4723 55.9211 33.5425C58.8247 34.6126 58.9589 35.4909 55.9556 37.0444V37.0751Z" fill="#DC382C"/>
<path d="M55.9557 33.4772C52.9639 35.0383 37.4373 41.4208 34.0927 43.143C30.748 44.8652 28.9721 44.8498 26.3562 43.5956C23.7403 42.3414 7.2587 35.6827 4.27459 34.2597C2.77103 33.5463 2.00391 32.9479 2.00391 32.3803V26.7189C2.00391 26.7189 23.514 22.0356 26.9853 20.7775C30.4565 19.5194 31.6571 19.4849 34.6066 20.5819C37.5562 21.6789 55.2384 24.8394 58.1573 25.9057V31.5057C58.1573 32.0888 57.4861 32.6718 55.9557 33.4772Z" fill="#A32422"/>
<path d="M55.9556 27.7967C52.9638 29.3616 37.4373 35.7441 34.0926 37.4663C30.7479 39.1885 28.9567 39.177 26.3408 37.9265C23.7249 36.6761 7.25863 30.006 4.27452 28.5791C1.29041 27.1523 1.23671 26.1819 4.15945 25.0389C7.08219 23.8959 23.514 17.4482 26.9852 16.217C30.4564 14.9857 31.657 14.909 34.6066 15.9791C37.5562 17.0493 53.0175 23.2438 55.9211 24.2833C58.8247 25.3227 58.9589 26.2356 55.9556 27.7852V27.7967Z" fill="#DC382C"/>
<path d="M55.9557 23.8767C52.9639 25.4416 37.4373 31.8279 34.0927 33.5463C30.748 35.2646 28.9721 35.2531 26.3562 34.0065C23.7403 32.76 7.2587 26.0821 4.27459 24.6591C2.77103 23.9534 2.00391 23.3512 2.00391 22.7835V17.103C2.00391 17.103 23.514 12.435 26.9853 11.1808C30.4565 9.92653 31.6571 9.88817 34.6066 10.9698C37.5562 12.0515 55.2308 15.2427 58.1497 16.309V21.909C58.1573 22.4997 57.4861 23.075 55.9557 23.8767Z" fill="#A32422"/>
<path d="M55.9556 18.2039C52.9638 19.7381 37.4373 26.1628 34.0926 27.8697C30.7479 29.5765 28.9567 29.5727 26.3408 28.3299C23.7249 27.0872 7.25862 20.4017 4.27451 18.9825C1.2904 17.5634 1.23287 16.5776 4.15945 15.4346C7.08602 14.2916 23.514 7.84774 26.9852 6.59733C30.4564 5.34692 31.657 5.30856 34.6066 6.3902C37.5562 7.47185 53.0175 13.6203 55.9211 14.6866C58.8247 15.7529 58.9589 16.639 55.9556 18.1924V18.2039Z" fill="#DC382C"/>
</g>
<path d="M30.9628 10.1375L34.668 8.92156L33.6631 11.3227L37.4335 12.7342L32.5738 13.2405L31.4806 15.864L29.7239 12.9375L24.1047 12.4312L28.3009 10.9199L27.039 8.59554L30.9628 10.1375Z" fill="white"/>
<path d="M31.1968 25.4531L22.114 21.6827L35.1244 19.6843L31.1968 25.4531Z" fill="white"/>
<path d="M18.6044 14.1918C22.44 14.1918 25.5584 15.4 25.5584 16.8767C25.5584 18.3534 22.4324 19.5616 18.6044 19.5616C14.7765 19.5616 11.6466 18.3534 11.6466 16.8767C11.6466 15.4 14.765 14.1918 18.6044 14.1918Z" fill="white"/>
<path d="M43.1907 13.4514L50.8888 16.4931L43.1983 19.5347L43.1907 13.4514Z" fill="#741113"/>
<path d="M43.1907 13.4514L43.1984 19.5347L42.3622 19.8608L34.668 16.8191L43.1907 13.4514Z" fill="#AC2724"/>
</g>
<defs>
<clipPath id="clip0_1279_211">
<rect width="56" height="48.3288" fill="white" transform="translate(2 5.61914)"/>
</clipPath>
</defs>
</svg>
