<svg width="64" height="64" viewBox="0 0 64 64" fill="none" xmlns="http://www.w3.org/2000/svg">
<path d="M15.6356 55.1754L3.70357 34.5078C3.24481 33.7132 3.0033 32.8118 3.0033 31.8943C3.0033 30.9768 3.24481 30.0755 3.70357 29.2809L15.6356 8.61368C16.0944 7.81898 16.7544 7.15905 17.5491 6.70025C18.3438 6.24145 19.2453 5.99994 20.1629 6H44.027C44.9446 6.00002 45.846 6.24157 46.6406 6.70037C47.4352 7.15916 48.0951 7.81904 48.5539 8.61368L60.4859 29.2809C60.9448 30.0755 61.1863 30.9769 61.1863 31.8945C61.1863 32.8121 60.9448 33.7136 60.4859 34.5082L48.5539 55.1754C48.0951 55.97 47.4352 56.6298 46.6405 57.0885C45.8459 57.5472 44.9445 57.7887 44.027 57.7886H20.1629C19.2453 57.7887 18.3438 57.5472 17.549 57.0884C16.7543 56.6296 16.0944 55.9697 15.6356 55.175V55.1754Z" fill="url(#paint0_linear_20_1152)"/>
<path d="M57.0401 40.2557L39.3261 23.3915L31.7691 21.3692L24.9813 23.892L22.3599 30.7216L24.4676 38.3259L43.5308 57.6248H45.4607L47.0249 56.7589L47.8731 56.1774L48.838 54.73L57.0401 40.2557Z" fill="#417CE0"/>
<path d="M32.0944 21.3506C26.2716 21.3506 21.551 26.0712 21.551 31.8945C21.551 37.7173 26.2716 42.4378 32.0944 42.4378C37.9172 42.4378 42.6373 37.7173 42.6373 31.8945C42.6373 26.0712 37.9168 21.3506 32.0944 21.3506ZM32.0944 39.8941C27.6761 39.8941 24.0943 36.3123 24.0943 31.894C24.0943 27.4757 27.6761 23.8943 32.0944 23.8943C36.5127 23.8943 40.0945 27.4762 40.0945 31.8945C40.0945 36.3127 36.5127 39.8946 32.0944 39.8946" fill="white"/>
<path d="M27.0902 31.4871V34.7644C27.5751 35.5969 28.2593 36.2959 29.0812 36.7986V31.4871H27.0902ZM31.038 28.7244V37.5477C31.3767 37.6099 31.723 37.6477 32.079 37.6477C32.4035 37.6477 32.7199 37.6136 33.0303 37.5618V28.7244H31.038ZM35.1704 32.849V36.7408C36.0054 36.2099 36.691 35.4745 37.1622 34.6044V32.8494L35.1704 32.849ZM39.6818 38.3886L38.5895 39.4818C38.497 39.5745 38.4451 39.7001 38.4451 39.8311C38.4451 39.9621 38.497 40.0877 38.5895 40.1804L42.7328 44.3223C42.8255 44.4148 42.9512 44.4668 43.0821 44.4668C43.2131 44.4668 43.3387 44.4148 43.4315 44.3223L44.5238 43.2305C44.6157 43.1375 44.6673 43.0121 44.6673 42.8814C44.6673 42.7506 44.6157 42.6252 44.5238 42.5323L40.38 38.3886C40.2872 38.2964 40.1617 38.2447 40.0309 38.2447C39.9001 38.2447 39.7747 38.2964 39.6818 38.3886Z" fill="white"/>
<defs>
<linearGradient id="paint0_linear_20_1152" x1="32.095" y1="6.00045" x2="32.095" y2="57.7082" gradientUnits="userSpaceOnUse">
<stop stop-color="#4387FD"/>
<stop offset="1" stop-color="#4683EA"/>
</linearGradient>
</defs>
</svg>
