<svg width="60" height="60" viewBox="0 0 60 60" fill="none" xmlns="http://www.w3.org/2000/svg">
<path d="M45.3632 31.4688C42.2429 31.4688 39.2505 32.7083 37.0441 34.9147C34.8378 37.121 33.5982 40.1135 33.5982 43.2337C33.5982 46.354 34.8378 49.3465 37.0441 51.5528C39.2505 53.7592 42.2429 54.9987 45.3632 54.9987C48.4834 54.9987 51.4759 53.7592 53.6823 51.5528C55.8886 49.3465 57.1281 46.354 57.1281 43.2337C57.1281 40.1135 55.8886 37.121 53.6823 34.9147C51.4759 32.7083 48.4834 31.4688 45.3632 31.4688ZM14.7997 31.4711C13.2412 31.4494 11.6939 31.7376 10.2478 32.319C8.80166 32.9004 7.48548 33.7634 6.37572 34.8578C5.26596 35.9522 4.38474 37.2562 3.78327 38.6941C3.1818 40.132 2.87207 41.6751 2.87207 43.2337C2.87207 44.7924 3.1818 46.3355 3.78327 47.7734C4.38474 49.2113 5.26596 50.5153 6.37572 51.6097C7.48548 52.7041 8.80166 53.5671 10.2478 54.1485C11.6939 54.7299 13.2412 55.0181 14.7997 54.9964C17.8909 54.9534 20.841 53.6951 23.0118 51.4939C25.1826 49.2926 26.3997 46.3253 26.3997 43.2337C26.3997 40.1422 25.1826 37.1748 23.0118 34.9736C20.841 32.7724 17.8909 31.5141 14.7997 31.4711ZM41.8441 16.7652C41.8441 19.8852 40.6047 22.8773 38.3985 25.0835C36.1924 27.2896 33.2002 28.529 30.0803 28.529C26.9603 28.529 23.9682 27.2896 21.762 25.0835C19.5559 22.8773 18.3165 19.8852 18.3165 16.7652C18.3165 13.6452 19.5559 10.6531 21.762 8.44694C23.9682 6.2408 26.9603 5.0014 30.0803 5.0014C33.2002 5.0014 36.1924 6.2408 38.3985 8.44694C40.6047 10.6531 41.8441 13.6452 41.8441 16.7652Z" fill="#F06A6A"/>
</svg>
