<svg width="24" height="24" viewBox="0 0 24 24" fill="none" xmlns="http://www.w3.org/2000/svg">
<path d="M5.97852 11V13M9.97852 9.00002V15M13.9785 7.00002V17M17.9785 11V13M7.80027 21H16.2003C17.8804 21 18.7205 21 19.3622 20.673C19.9267 20.3854 20.3857 19.9265 20.6733 19.362C21.0003 18.7203 21.0003 17.8802 21.0003 16.2V7.80002C21.0003 6.11986 21.0003 5.27978 20.6733 4.63804C20.3857 4.07356 19.9267 3.61462 19.3622 3.327C18.7205 3.00002 17.8804 3.00002 16.2003 3.00002H7.80027C6.12012 3.00002 5.28004 3.00002 4.6383 3.327C4.07382 3.61462 3.61488 4.07356 3.32726 4.63804C3.00027 5.27978 3.00027 6.11986 3.00027 7.80001V16.2C3.00027 17.8802 3.00027 18.7203 3.32726 19.362C3.61488 19.9265 4.07382 20.3854 4.6383 20.673C5.28004 21 6.12012 21 7.80027 21Z" stroke="#1D2433" stroke-width="2" stroke-linecap="round" stroke-linejoin="round"/>
</svg>
