<svg width="60" height="60" viewBox="0 0 60 60" fill="none" xmlns="http://www.w3.org/2000/svg">
<g clip-path="url(#clip0_2302_321)">
<path opacity="0.28" d="M30.0168 13.931C30.0168 13.931 30.0232 13.927 30.0264 13.9254V13.9357C30.0264 13.9357 30.02 13.9326 30.0168 13.931Z" fill="white"/>
<path d="M59 29.9874C59 40.2287 50.3519 48.5306 39.6842 48.5306C36.1866 48.5306 32.9068 47.638 30.0771 46.0776C30.0726 46.0753 30.068 46.0723 30.0626 46.0692C30.0672 46.0669 30.0726 46.0639 30.0771 46.0608C35.8527 42.8521 39.7362 36.8664 39.7362 30.0126C39.7362 29.48 39.7125 28.9535 39.6666 28.4323V11.4442H39.6842C50.3519 11.4442 59 19.7461 59 29.9874Z" fill="#FFDE2D"/>
<path d="M30.0168 13.9308C24.5874 16.9492 20.7911 22.4336 20.3685 28.7884V48.5558C9.68701 48.5382 1 40.2432 1 30.0126C1 19.782 9.67173 11.4694 20.3685 11.4694C23.8813 11.4694 27.1756 12.365 30.0168 13.9308Z" fill="#327EFF"/>
<path d="M39.7362 30.0126C39.7362 36.8664 35.8528 42.8521 30.0772 46.0608C30.0726 46.0639 30.0673 46.0669 30.0627 46.0692H30.0619C27.2108 47.651 23.9005 48.5558 20.3685 48.5558V28.7884C20.7911 22.4336 24.5875 16.9492 30.0169 13.9308C30.0199 13.9323 30.023 13.9339 30.026 13.9354V13.9255C32.8626 12.3497 36.1546 11.4473 39.6667 11.4442C39.6667 11.4442 39.7362 29.48 39.7362 30.0126Z" fill="#FF6446"/>
<path opacity="0.33" d="M30.0777 46.0608V46.0782C30.0729 46.0758 30.0682 46.0727 30.0626 46.0695C30.0674 46.0671 30.0729 46.064 30.0777 46.0608Z" fill="white"/>
</g>
<defs>
<clipPath id="clip0_2302_321">
<rect width="58" height="37.1116" fill="white" transform="translate(1 11.4442)"/>
</clipPath>
</defs>
</svg>
