<svg width="25" height="25" viewBox="0 0 25 25" fill="none" xmlns="http://www.w3.org/2000/svg">
<path d="M2.99188 5.06846C2.99188 4.58067 2.99188 4.33678 3.08681 4.15047C3.17031 3.98659 3.30356 3.85334 3.46744 3.76984C3.65375 3.67491 3.89764 3.67491 4.38543 3.67491H6.82414C7.31193 3.67491 7.55582 3.67491 7.74213 3.76984C7.90602 3.85334 8.03926 3.98659 8.12276 4.15047C8.21769 4.33678 8.21769 4.58067 8.21769 5.06846V7.50717C8.21769 7.99496 8.21769 8.23885 8.12276 8.42516C8.03926 8.58904 7.90602 8.72229 7.74213 8.80579C7.55582 8.90072 7.31193 8.90072 6.82414 8.90072H4.38543C3.89764 8.90072 3.65375 8.90072 3.46744 8.80579C3.30356 8.72229 3.17031 8.58904 3.08681 8.42516C2.99188 8.23885 2.99188 7.99496 2.99188 7.50717V5.06846Z" fill="#1D2433" stroke="#1D2433" stroke-width="0.580645" stroke-linecap="round" stroke-linejoin="round"/>
<path d="M9.37898 5.06846C9.37898 4.58067 9.37898 4.33678 9.47391 4.15047C9.55741 3.98659 9.69066 3.85334 9.85454 3.76984C10.0408 3.67491 10.2847 3.67491 10.7725 3.67491H13.2112C13.699 3.67491 13.9429 3.67491 14.1292 3.76984C14.2931 3.85334 14.4264 3.98659 14.5099 4.15047C14.6048 4.33678 14.6048 4.58067 14.6048 5.06846V7.50717C14.6048 7.99496 14.6048 8.23885 14.5099 8.42516C14.4264 8.58904 14.2931 8.72229 14.1292 8.80579C13.9429 8.90072 13.699 8.90072 13.2112 8.90072H10.7725C10.2847 8.90072 10.0408 8.90072 9.85454 8.80579C9.69066 8.72229 9.55741 8.58904 9.47391 8.42516C9.37898 8.23885 9.37898 7.99496 9.37898 7.50717V5.06846Z" fill="#1D2433" stroke="#1D2433" stroke-width="0.580645" stroke-linecap="round" stroke-linejoin="round"/>
<path d="M15.7661 5.06846C15.7661 4.58067 15.7661 4.33678 15.861 4.15047C15.9445 3.98659 16.0777 3.85334 16.2416 3.76984C16.4279 3.67491 16.6718 3.67491 17.1596 3.67491H19.5983C20.0861 3.67491 20.33 3.67491 20.5163 3.76984C20.6802 3.85334 20.8134 3.98659 20.897 4.15047C20.9919 4.33678 20.9919 4.58067 20.9919 5.06846V7.50717C20.9919 7.99496 20.9919 8.23885 20.897 8.42516C20.8134 8.58904 20.6802 8.72229 20.5163 8.80579C20.33 8.90072 20.0861 8.90072 19.5983 8.90072H17.1596C16.6718 8.90072 16.4279 8.90072 16.2416 8.80579C16.0777 8.72229 15.9445 8.58904 15.861 8.42516C15.7661 8.23885 15.7661 7.99496 15.7661 7.50717V5.06846Z" fill="#1D2433" stroke="#1D2433" stroke-width="0.580645" stroke-linecap="round" stroke-linejoin="round"/>
<path d="M2.99188 11.4556C2.99188 10.9678 2.99188 10.7239 3.08681 10.5376C3.17031 10.3737 3.30356 10.2404 3.46744 10.1569C3.65375 10.062 3.89764 10.062 4.38543 10.062H6.82414C7.31193 10.062 7.55582 10.062 7.74213 10.1569C7.90602 10.2404 8.03926 10.3737 8.12276 10.5376C8.21769 10.7239 8.21769 10.9678 8.21769 11.4556V13.8943C8.21769 14.3821 8.21769 14.6259 8.12276 14.8123C8.03926 14.9761 7.90602 15.1094 7.74213 15.1929C7.55582 15.2878 7.31193 15.2878 6.82414 15.2878H4.38543C3.89764 15.2878 3.65375 15.2878 3.46744 15.1929C3.30356 15.1094 3.17031 14.9761 3.08681 14.8123C2.99188 14.6259 2.99188 14.3821 2.99188 13.8943V11.4556Z" fill="#1D2433" stroke="#1D2433" stroke-width="0.580645" stroke-linecap="round" stroke-linejoin="round"/>
<path d="M10.8306 10.062H10.308C9.98282 10.062 9.82023 10.062 9.69602 10.1253C9.58676 10.181 9.49794 10.2698 9.44227 10.379C9.37898 10.5033 9.37898 10.6658 9.37898 10.991V11.5136M10.8306 15.2878H10.308C9.98282 15.2878 9.82023 15.2878 9.69602 15.2245C9.58676 15.1689 9.49794 15.08 9.44227 14.9708C9.37898 14.8466 9.37898 14.684 9.37898 14.3588V13.8362M14.6048 11.5136V10.991C14.6048 10.6658 14.6048 10.5033 14.5415 10.379C14.4858 10.2698 14.397 10.181 14.2878 10.1253C14.1635 10.062 14.0009 10.062 13.6758 10.062H13.1532M14.6048 13.8362V14.3588C14.6048 14.684 14.6048 14.8466 14.5415 14.9708C14.4858 15.08 14.397 15.1689 14.2878 15.2245C14.1635 15.2878 14.0009 15.2878 13.6758 15.2878H13.1532M11.9919 14.1265L11.9919 11.2233M10.5403 12.6749H13.4435" stroke="#1D2433" stroke-width="0.580645" stroke-linecap="round" stroke-linejoin="round"/>
<path d="M15.7661 11.4556C15.7661 10.9678 15.7661 10.7239 15.861 10.5376C15.9445 10.3737 16.0777 10.2404 16.2416 10.1569C16.4279 10.062 16.6718 10.062 17.1596 10.062H19.5983C20.0861 10.062 20.33 10.062 20.5163 10.1569C20.6802 10.2404 20.8134 10.3737 20.897 10.5376C20.9919 10.7239 20.9919 10.9678 20.9919 11.4556V13.8943C20.9919 14.3821 20.9919 14.6259 20.897 14.8123C20.8134 14.9761 20.6802 15.1094 20.5163 15.1929C20.33 15.2878 20.0861 15.2878 19.5983 15.2878H17.1596C16.6718 15.2878 16.4279 15.2878 16.2416 15.1929C16.0777 15.1094 15.9445 14.9761 15.861 14.8123C15.7661 14.6259 15.7661 14.3821 15.7661 13.8943V11.4556Z" fill="#1D2433" stroke="#1D2433" stroke-width="0.580645" stroke-linecap="round" stroke-linejoin="round"/>
<path d="M2.99188 17.8427C2.99188 17.3549 2.99188 17.111 3.08681 16.9247C3.17031 16.7608 3.30356 16.6275 3.46744 16.544C3.65375 16.4491 3.89764 16.4491 4.38543 16.4491H6.82414C7.31193 16.4491 7.55582 16.4491 7.74213 16.544C7.90602 16.6275 8.03926 16.7608 8.12276 16.9247C8.21769 17.111 8.21769 17.3549 8.21769 17.8427V20.2814C8.21769 20.7692 8.21769 21.013 8.12276 21.1994C8.03926 21.3632 7.90602 21.4965 7.74213 21.58C7.55582 21.6749 7.31193 21.6749 6.82414 21.6749H4.38543C3.89764 21.6749 3.65375 21.6749 3.46744 21.58C3.30356 21.4965 3.17031 21.3632 3.08681 21.1994C2.99188 21.013 2.99188 20.7692 2.99188 20.2814V17.8427Z" fill="#1D2433" stroke="#1D2433" stroke-width="0.580645" stroke-linecap="round" stroke-linejoin="round"/>
<path d="M9.37898 17.8427C9.37898 17.3549 9.37898 17.111 9.47391 16.9247C9.55741 16.7608 9.69066 16.6275 9.85454 16.544C10.0408 16.4491 10.2847 16.4491 10.7725 16.4491H13.2112C13.699 16.4491 13.9429 16.4491 14.1292 16.544C14.2931 16.6275 14.4264 16.7608 14.5099 16.9247C14.6048 17.111 14.6048 17.3549 14.6048 17.8427V20.2814C14.6048 20.7692 14.6048 21.013 14.5099 21.1994C14.4264 21.3632 14.2931 21.4965 14.1292 21.58C13.9429 21.6749 13.699 21.6749 13.2112 21.6749H10.7725C10.2847 21.6749 10.0408 21.6749 9.85454 21.58C9.69066 21.4965 9.55741 21.3632 9.47391 21.1994C9.37898 21.013 9.37898 20.7692 9.37898 20.2814V17.8427Z" fill="#1D2433" stroke="#1D2433" stroke-width="0.580645" stroke-linecap="round" stroke-linejoin="round"/>
<path d="M15.7661 17.8427C15.7661 17.3549 15.7661 17.111 15.861 16.9247C15.9445 16.7608 16.0777 16.6275 16.2416 16.544C16.4279 16.4491 16.6718 16.4491 17.1596 16.4491H19.5983C20.0861 16.4491 20.33 16.4491 20.5163 16.544C20.6802 16.6275 20.8134 16.7608 20.897 16.9247C20.9919 17.111 20.9919 17.3549 20.9919 17.8427V20.2814C20.9919 20.7692 20.9919 21.013 20.897 21.1994C20.8134 21.3632 20.6802 21.4965 20.5163 21.58C20.33 21.6749 20.0861 21.6749 19.5983 21.6749H17.1596C16.6718 21.6749 16.4279 21.6749 16.2416 21.58C16.0777 21.4965 15.9445 21.3632 15.861 21.1994C15.7661 21.013 15.7661 20.7692 15.7661 20.2814V17.8427Z" fill="#1D2433" stroke="#1D2433" stroke-width="0.580645" stroke-linecap="round" stroke-linejoin="round"/>
</svg>
