<svg width="25" height="25" viewBox="0 0 25 25" fill="none" xmlns="http://www.w3.org/2000/svg">
<path d="M2.35297 5.16301C2.35297 4.34342 2.35297 3.93362 2.51247 3.62058C2.65277 3.34522 2.87665 3.12135 3.152 2.98105C3.46505 2.82154 3.87484 2.82154 4.69443 2.82154H8.79199C9.61158 2.82154 10.0214 2.82154 10.3344 2.98105C10.6098 3.12135 10.8336 3.34522 10.974 3.62058C11.1335 3.93362 11.1335 4.34342 11.1335 5.16301V9.26057C11.1335 10.0802 11.1335 10.49 10.974 10.803C10.8336 11.0784 10.6098 11.3022 10.3344 11.4425C10.0214 11.602 9.61158 11.602 8.79199 11.602H4.69443C3.87484 11.602 3.46505 11.602 3.152 11.4425C2.87665 11.3022 2.65277 11.0784 2.51247 10.803C2.35297 10.49 2.35297 10.0802 2.35297 9.26057V5.16301Z" stroke="#1D2433" stroke-linecap="round" stroke-linejoin="round"/>
<path d="M17.4749 8.6752C18.2831 8.6752 18.9383 8.02001 18.9383 7.21179C18.9383 6.40357 18.2831 5.74837 17.4749 5.74837C16.6667 5.74837 16.0115 6.40357 16.0115 7.21179C16.0115 8.02001 16.6667 8.6752 17.4749 8.6752Z" stroke="#1D2433" stroke-linecap="round" stroke-linejoin="round"/>
<path d="M20.7565 8.54217C20.6975 8.67592 20.6799 8.82429 20.706 8.96815C20.732 9.112 20.8006 9.24475 20.9029 9.34926L20.9295 9.37587C21.0119 9.45824 21.0773 9.55606 21.122 9.66373C21.1666 9.7714 21.1896 9.88681 21.1896 10.0034C21.1896 10.1199 21.1666 10.2353 21.122 10.343C21.0773 10.4507 21.0119 10.5485 20.9295 10.6309C20.8471 10.7133 20.7493 10.7787 20.6416 10.8234C20.5339 10.868 20.4185 10.891 20.302 10.891C20.1854 10.891 20.07 10.868 19.9623 10.8234C19.8547 10.7787 19.7568 10.7133 19.6745 10.6309L19.6479 10.6043C19.5434 10.502 19.4106 10.4334 19.2668 10.4074C19.1229 10.3813 18.9745 10.3989 18.8408 10.4579C18.7096 10.5141 18.5978 10.6075 18.519 10.7264C18.4402 10.8454 18.3979 10.9848 18.3973 11.1275V11.2029C18.3973 11.4381 18.3039 11.6637 18.1375 11.8301C17.9712 11.9964 17.7456 12.0898 17.5104 12.0898C17.2752 12.0898 17.0496 11.9964 16.8833 11.8301C16.7169 11.6637 16.6235 11.4381 16.6235 11.2029V11.163C16.62 11.0162 16.5725 10.8739 16.4871 10.7545C16.4017 10.635 16.2823 10.5441 16.1445 10.4934C16.0108 10.4344 15.8624 10.4167 15.7186 10.4428C15.5747 10.4689 15.442 10.5375 15.3374 10.6397L15.3108 10.6663C15.2285 10.7488 15.1307 10.8142 15.023 10.8588C14.9153 10.9035 14.7999 10.9265 14.6833 10.9265C14.5668 10.9265 14.4514 10.9035 14.3437 10.8588C14.236 10.8142 14.1382 10.7488 14.0559 10.6663C13.9734 10.584 13.908 10.4861 13.8633 10.3785C13.8187 10.2708 13.7957 10.1554 13.7957 10.0388C13.7957 9.92229 13.8187 9.80687 13.8633 9.6992C13.908 9.59153 13.9734 9.49372 14.0559 9.41135L14.0825 9.38474C14.1847 9.28022 14.2533 9.14748 14.2794 9.00362C14.3054 8.85977 14.2878 8.7114 14.2288 8.57764C14.1726 8.44648 14.0792 8.33462 13.9603 8.25583C13.8413 8.17704 13.7019 8.13475 13.5592 8.13418H13.4838C13.2486 8.13418 13.023 8.04074 12.8566 7.87441C12.6903 7.70808 12.5969 7.48249 12.5969 7.24727C12.5969 7.01204 12.6903 6.78645 12.8566 6.62012C13.023 6.45379 13.2486 6.36035 13.4838 6.36035H13.5237C13.6705 6.35691 13.8128 6.3094 13.9323 6.22399C14.0517 6.13858 14.1426 6.01921 14.1933 5.88141C14.2524 5.74766 14.27 5.59929 14.2439 5.45543C14.2178 5.31157 14.1492 5.17883 14.047 5.07432L14.0204 5.04771C13.9379 4.96534 13.8725 4.86752 13.8279 4.75985C13.7832 4.65218 13.7603 4.53677 13.7603 4.42021C13.7603 4.30366 13.7832 4.18825 13.8279 4.08058C13.8725 3.97291 13.9379 3.87509 14.0204 3.79272C14.1027 3.71026 14.2006 3.64484 14.3082 3.60021C14.4159 3.55557 14.5313 3.5326 14.6479 3.5326C14.7644 3.5326 14.8798 3.55557 14.9875 3.60021C15.0952 3.64484 15.193 3.71026 15.2754 3.79272L15.302 3.81933C15.4065 3.92156 15.5392 3.99014 15.6831 4.01623C15.8269 4.04231 15.9753 4.0247 16.1091 3.96567H16.1445C16.2757 3.90946 16.3876 3.81612 16.4664 3.69714C16.5451 3.57816 16.5874 3.43875 16.588 3.29605V3.22066C16.588 2.98543 16.6814 2.75984 16.8478 2.59351C17.0141 2.42718 17.2397 2.33374 17.4749 2.33374C17.7101 2.33374 17.9357 2.42718 18.1021 2.59351C18.2684 2.75984 18.3618 2.98543 18.3618 3.22066V3.26057C18.3624 3.40327 18.4047 3.54269 18.4835 3.66166C18.5623 3.78064 18.6741 3.87398 18.8053 3.93019C18.9391 3.98922 19.0874 4.00683 19.2313 3.98075C19.3751 3.95467 19.5079 3.88608 19.6124 3.78385L19.639 3.75724C19.7214 3.67478 19.8192 3.60936 19.9269 3.56473C20.0345 3.5201 20.1499 3.49712 20.2665 3.49712C20.383 3.49712 20.4985 3.5201 20.6061 3.56473C20.7138 3.60936 20.8116 3.67478 20.894 3.75724C20.9765 3.83961 21.0419 3.93743 21.0865 4.0451C21.1311 4.15277 21.1541 4.26818 21.1541 4.38474C21.1541 4.50129 21.1311 4.6167 21.0865 4.72437C21.0419 4.83204 20.9765 4.92986 20.894 5.01223L20.8674 5.03884C20.7651 5.14335 20.6966 5.2761 20.6705 5.41995C20.6444 5.56381 20.662 5.71218 20.721 5.84594V5.88141C20.7773 6.01257 20.8706 6.12444 20.9896 6.20323C21.1085 6.28202 21.248 6.3243 21.3907 6.32487H21.4661C21.7013 6.32487 21.9269 6.41831 22.0932 6.58464C22.2595 6.75097 22.353 6.97656 22.353 7.21179C22.353 7.44701 22.2595 7.67261 22.0932 7.83893C21.9269 8.00526 21.7013 8.09871 21.4661 8.09871H21.4261C21.2834 8.09928 21.144 8.14156 21.025 8.22035C20.9061 8.29914 20.8127 8.411 20.7565 8.54217Z" stroke="#1D2433" stroke-linecap="round" stroke-linejoin="round"/>
<path d="M2.35297 15.8947C2.35297 15.0751 2.35297 14.6653 2.51247 14.3523C2.65277 14.0769 2.87665 13.8531 3.152 13.7128C3.46505 13.5533 3.87484 13.5533 4.69443 13.5533H8.79199C9.61158 13.5533 10.0214 13.5533 10.3344 13.7128C10.6098 13.8531 10.8336 14.0769 10.974 14.3523C11.1335 14.6653 11.1335 15.0751 11.1335 15.8947V19.9923C11.1335 20.8119 11.1335 21.2217 10.974 21.5347C10.8336 21.8101 10.6098 22.0339 10.3344 22.1742C10.0214 22.3337 9.61158 22.3337 8.79199 22.3337H4.69443C3.87484 22.3337 3.46505 22.3337 3.152 22.1742C2.87665 22.0339 2.65277 21.8101 2.51247 21.5347C2.35297 21.2217 2.35297 20.8119 2.35297 19.9923V15.8947Z" stroke="#1D2433" stroke-linecap="round" stroke-linejoin="round"/>
<path d="M13.0847 15.8947C13.0847 15.0751 13.0847 14.6653 13.2442 14.3523C13.3845 14.0769 13.6084 13.8531 13.8837 13.7128C14.1968 13.5533 14.6065 13.5533 15.4261 13.5533H19.5237C20.3433 13.5533 20.7531 13.5533 21.0661 13.7128C21.3415 13.8531 21.5654 14.0769 21.7057 14.3523C21.8652 14.6653 21.8652 15.0751 21.8652 15.8947V19.9923C21.8652 20.8119 21.8652 21.2217 21.7057 21.5347C21.5654 21.8101 21.3415 22.0339 21.0661 22.1742C20.7531 22.3337 20.3433 22.3337 19.5237 22.3337H15.4261C14.6065 22.3337 14.1968 22.3337 13.8837 22.1742C13.6084 22.0339 13.3845 21.8101 13.2442 21.5347C13.0847 21.2217 13.0847 20.8119 13.0847 19.9923V15.8947Z" stroke="#1D2433" stroke-linecap="round" stroke-linejoin="round"/>
</svg>
