<svg width="60" height="60" viewBox="0 0 60 60" fill="none" xmlns="http://www.w3.org/2000/svg">
<path d="M42.2667 22H28.3334C28.4 22.3333 28.5334 22.6667 28.6 22.9333C29.0667 24.5333 29.3334 26.2 29.4667 27.9333C29.5334 28.6 29.5334 29.3333 29.5334 30C29.5334 30.6667 29.5334 31.4 29.4667 32.0667C29.3334 33.8 29.0667 35.4667 28.6 37.0667C28.5334 37.4 28.4 37.7333 28.3334 38H42.2667C46.6667 38 50.2 34.4 50.2 30C50.2 25.6 46.6667 22 42.2667 22Z" fill="#00A9E5"/>
<path d="M29.4666 32.0667C29.5333 31.4 29.5333 30.6667 29.5333 30C29.5333 29.3333 29.5333 28.6 29.4666 27.9333C29.3333 26.2 29.0666 24.5333 28.6 22.9333C28.5333 22.6 28.4 22.2667 28.3333 22H6.79997C5.99997 24.5333 5.59998 27.2 5.59998 30C5.59998 32.8 5.99997 35.4667 6.79997 38H28.3333C28.4 37.6667 28.5333 37.3333 28.6 37.0667C29.0666 35.4667 29.3333 33.8 29.4666 32.0667Z" fill="#353535"/>
<path d="M44.6669 40.6667H27.3336C26.8002 41.8667 26.2002 43 25.5336 44.0667C24.5336 45.7334 23.3336 47.2 22.0002 48.6C21.5336 49.0667 21.0669 49.4667 20.6002 49.9333C19.6669 50.8 18.6002 51.5333 17.5336 52.2667C21.7336 55.0667 26.8002 56.6667 32.2002 56.6667C41.4669 56.6667 49.6002 51.9334 54.4002 44.8C51.9336 42.2667 48.4669 40.6667 44.6669 40.6667Z" fill="#00BFB3"/>
<path d="M25.5335 44.0667C26.2002 43 26.8002 41.8667 27.3335 40.6667H7.80017C9.86684 45.4 13.2668 49.4667 17.6002 52.2667C18.6668 51.5333 19.6668 50.8 20.6668 49.9333C21.1335 49.5333 21.6002 49.0667 22.0668 48.6C23.3335 47.2667 24.5335 45.7334 25.5335 44.0667Z" fill="#019B8F"/>
<path d="M22.0001 11.4001C21.5334 10.9334 21.0667 10.5334 20.6001 10.0667C19.6667 9.20007 18.6001 8.46673 17.5334 7.7334C13.2667 10.5334 9.86673 14.6001 7.7334 19.3334H27.2667C26.7334 18.1334 26.1334 17.0001 25.4667 15.9334C24.5334 14.2667 23.3334 12.7334 22.0001 11.4001Z" fill="#F9B110"/>
<path d="M32.2002 3.33331C26.8002 3.33331 21.7336 4.93331 17.5336 7.73331C18.6002 8.46665 19.6002 9.19998 20.6002 10.0666C21.0669 10.4666 21.5336 10.9333 22.0002 11.4C23.3336 12.8 24.5336 14.2666 25.5336 15.9333C26.2002 17 26.8002 18.1333 27.3336 19.3333H44.6669C48.4669 19.3333 51.9336 17.7333 54.4002 15.2C49.6002 8.06665 41.4669 3.33331 32.2002 3.33331Z" fill="#FED10A"/>
</svg>
