<svg width="60" height="60" viewBox="0 0 60 60" fill="none" xmlns="http://www.w3.org/2000/svg">
<g clip-path="url(#clip0_2228_54)">
<path d="M21.3016 15.0735C22.315 15.0735 23.1316 14.9239 23.851 15.1286C24.3105 15.2599 24.7673 15.8481 24.9774 16.3364C26.516 19.9019 27.9889 23.4963 29.4881 27.0776C29.6168 27.3874 29.7822 27.6841 30.0526 28.2381C30.3362 27.7235 30.5383 27.4216 30.6775 27.0934C32.069 23.7957 33.4475 20.4927 34.8311 17.1923C35.5033 15.5925 36.8161 14.93 38.7695 15.2048C37.7482 17.6807 36.7504 20.1304 35.7317 22.5695C34.8732 24.6227 33.9778 26.6602 33.1271 28.7186C32.5443 30.1312 31.6332 31.1 30.008 31.0711C28.3906 31.0422 27.5399 30.0366 26.9597 28.6241C25.1375 24.1869 23.2655 19.7707 21.299 15.0735H21.3016Z" fill="#6720FF"/>
<path d="M46.6487 22.068C46.9007 22.6299 47.1108 23.197 47.3996 23.7195C47.7987 24.4441 47.6753 24.9614 47.074 25.5548C44.3356 28.2591 41.647 31.0081 38.9426 33.7465C38.6144 34.08 38.3125 34.4371 37.769 35.0331C38.5541 35.1118 39.0398 35.2011 39.5255 35.2011C43.112 35.1959 46.6986 35.1696 50.2851 35.1538C52.4381 35.146 52.9028 35.5871 53.1601 37.9895C51.057 37.9895 48.9671 37.9895 46.8771 37.9895C43.947 37.9895 41.0168 37.9947 38.0867 37.9895C36.7398 37.9895 35.7106 37.425 35.1644 36.1647C34.6183 34.9044 34.8888 33.7334 35.8235 32.7751C39.2735 29.2411 42.7497 25.7359 46.2233 22.2229C46.3021 22.1415 46.4544 22.1336 46.6539 22.0627L46.6487 22.068Z" fill="#6720FF"/>
<path d="M7 37.9028C7.3387 35.4899 7.7089 35.1459 9.91701 35.1538C13.5035 35.1669 17.0874 35.1906 20.674 35.1985C21.1308 35.1985 21.5877 35.1381 22.4068 35.0829C21.8529 34.4528 21.5457 34.0616 21.1965 33.7098C18.647 31.1262 16.1449 28.4927 13.5088 26.0037C12.4822 25.0349 12.3194 24.2078 13.0493 23.0841C13.2541 22.769 13.3801 22.404 13.5876 21.9682C15.2469 23.6171 16.8223 25.1714 18.3845 26.7415C20.2959 28.6608 22.1889 30.5985 24.103 32.5151C25.1112 33.526 25.6127 34.676 25.0403 36.0701C24.4522 37.509 23.2812 38.0026 21.7846 37.9973C17.1925 37.9737 12.603 37.9894 8.01084 37.9816C7.67477 37.9816 7.3387 37.929 7 37.9002L7 37.9028Z" fill="#6720FF"/>
</g>
<defs>
<clipPath id="clip0_2228_54">
<rect width="46.1575" height="23" fill="white" transform="translate(7 15)"/>
</clipPath>
</defs>
</svg>
