<svg width="60" height="60" viewBox="0 0 60 60" fill="none" xmlns="http://www.w3.org/2000/svg">
<path d="M29.9111 2.00037H50.9431C54.8174 1.96084 57.9801 5.08401 58.0196 8.93855C58.0196 8.97809 58.0196 9.01762 58.0196 9.05716V30.0891C58.0196 45.5073 45.527 58 30.1088 58H29.9506C22.538 58 15.4417 55.0745 10.1837 49.8363C4.92574 44.6178 1.98047 37.5215 1.98047 30.1089C1.98047 14.6314 14.4732 2.15851 29.9111 2.00037Z" fill="#3FB870"/>
<path d="M29.9111 14.4733C22.8346 14.4733 17.0824 20.2255 17.0824 27.302V36.0193C17.1417 38.3517 19.0196 40.2296 21.352 40.2889H24.9892V30.2868H20.0672V27.48C20.3637 22.2022 24.7322 18.0709 30.01 18.0709C35.2877 18.0709 39.676 22.222 39.9527 27.48V30.2868H34.9912V40.2889H38.2725V40.447C38.233 42.6214 36.4935 44.3609 34.3191 44.4004H30.4053C30.089 44.4004 29.7332 44.5586 29.7332 44.8748C29.753 45.2109 30.0297 45.5271 30.4053 45.5469H34.3587C37.1656 45.5271 39.4388 43.2539 39.4585 40.447V40.1308C41.3957 39.6959 42.7398 37.9762 42.7398 35.9995V27.4602C42.9177 20.2453 37.1853 14.4733 29.9111 14.4733Z" fill="white"/>
</svg>
