<svg width="64" height="64" viewBox="0 0 64 64" fill="none" xmlns="http://www.w3.org/2000/svg">
<path d="M16.8015 53.4218L5.74761 34.2751C5.32262 33.539 5.09888 32.704 5.09888 31.854C5.09888 31.004 5.32262 30.169 5.74761 29.4329L16.8015 10.2866C17.2266 9.55041 17.838 8.93905 18.5742 8.51402C19.3104 8.08898 20.1456 7.86524 20.9957 7.8653H43.1035C43.9536 7.86532 44.7886 8.08909 45.5248 8.51412C46.2609 8.93915 46.8723 9.55047 47.2973 10.2866L58.3512 29.4329C58.7763 30.169 59.0001 31.0041 59.0001 31.8542C59.0001 32.7043 58.7763 33.5394 58.3512 34.2755L47.2973 53.4213C46.8723 54.1575 46.2609 54.7688 45.5248 55.1938C44.7886 55.6189 43.9536 55.8427 43.1035 55.8427H20.9957C20.1456 55.8428 19.3104 55.6191 18.5742 55.194C17.8379 54.769 17.2266 54.1576 16.8015 53.4213V53.4218Z" fill="url(#paint0_linear_20_1144)"/>
<path d="M25.8649 27.5906L22.913 30.5341L25.4215 33.043L22.9378 37.4544L41.8366 55.8035H44.0767L45.8688 54.9075L46.7648 54.0114L54.8292 40.1228L41.0987 26.1904L25.8649 27.5906Z" fill="#417CE0"/>
<path d="M40.7666 26.0725H23.3179C23.037 26.0725 22.8075 26.3024 22.8075 26.5837V30.1908C22.8075 30.4713 23.0374 30.7012 23.3179 30.7012H40.7666C41.0475 30.7012 41.2774 30.4713 41.2774 30.1908V26.5828C41.2774 26.3024 41.0479 26.072 40.7671 26.072L40.7666 26.0725ZM38.0653 29.4307C37.7887 29.43 37.5236 29.3196 37.3281 29.1239C37.1327 28.9282 37.0227 28.663 37.0222 28.3864C37.0221 28.2494 37.049 28.1137 37.1014 27.9871C37.1538 27.8605 37.2306 27.7455 37.3275 27.6486C37.4244 27.5517 37.5394 27.4749 37.666 27.4225C37.7926 27.3701 37.9283 27.3432 38.0653 27.3433C38.6422 27.3433 39.1096 27.8078 39.1096 28.3864C39.1096 28.5236 39.0826 28.6594 39.0301 28.7861C38.9776 28.9128 38.9007 29.0279 38.8037 29.1249C38.7068 29.2218 38.5916 29.2988 38.4649 29.3513C38.3382 29.4037 38.2024 29.4307 38.0653 29.4307ZM40.7666 33.0063L23.3179 33.0072C23.037 33.0072 22.8075 33.2371 22.8075 33.5184V37.1251C22.8075 37.4056 23.0374 37.6359 23.3179 37.6359H40.7666C41.0475 37.6359 41.2774 37.4056 41.2774 37.1251V33.5175C41.2774 33.2371 41.0479 33.0063 40.7671 33.0063H40.7666ZM38.0653 36.365C37.7886 36.3644 37.5235 36.2541 37.328 36.0583C37.1325 35.8626 37.0225 35.5974 37.0222 35.3207C37.0221 35.1837 37.049 35.048 37.1014 34.9214C37.1538 34.7948 37.2306 34.6798 37.3275 34.5829C37.4244 34.486 37.5394 34.4092 37.666 34.3568C37.7926 34.3044 37.9283 34.2775 38.0653 34.2776C38.2058 34.272 38.3461 34.2948 38.4776 34.3447C38.6092 34.3946 38.7292 34.4705 38.8307 34.568C38.9321 34.6654 39.0129 34.7824 39.068 34.9118C39.1231 35.0412 39.1515 35.1804 39.1515 35.3211C39.1515 35.4618 39.1231 35.601 39.068 35.7304C39.0129 35.8599 38.9321 35.9768 38.8307 36.0743C38.7292 36.1717 38.6092 36.2477 38.4776 36.2976C38.3461 36.3475 38.2058 36.3703 38.0653 36.3646" fill="white"/>
<defs>
<linearGradient id="paint0_linear_20_1144" x1="32.0496" y1="7.86572" x2="32.0496" y2="55.7681" gradientUnits="userSpaceOnUse">
<stop stop-color="#4387FD"/>
<stop offset="1" stop-color="#4683EA"/>
</linearGradient>
</defs>
</svg>
