<svg width="64" height="64" viewBox="0 0 64 64" fill="none" xmlns="http://www.w3.org/2000/svg">
<path d="M20.8887 4.38758L20.9437 4.38633L20.9487 4.44758L20.8787 4.45008L20.8887 4.38758Z" fill="#0BA25E"/>
<path d="M20.675 4.79755C20.7237 4.72755 20.8187 4.58755 20.8675 4.51755L20.955 4.5038C21.02 5.2963 21.2525 6.06005 21.4275 6.8313C22.18 10.1826 22.94 13.5313 23.7312 16.8726C24.25 19.1638 24.8287 21.4438 25.3037 23.7438C25.7162 25.1676 25.9375 26.6363 26.3362 28.0626C26.5937 29.3926 26.9975 30.6901 27.2137 32.0276C27.1262 32.1738 27.0387 32.3213 26.95 32.4676C26.9287 32.5013 26.8837 32.5713 26.8625 32.6063L26.83 32.6626C26.825 32.6726 26.8137 32.6938 26.8075 32.7038C26.7587 32.7938 26.6612 32.9726 26.6125 33.0613C26.6037 33.0776 26.585 33.1101 26.575 33.1263L26.4862 33.2838C26.475 33.3026 26.4537 33.3388 26.4437 33.3576L26.34 33.5388C26.335 33.5488 26.3237 33.5688 26.3175 33.5788L26.1887 33.8038C26.1775 33.8226 26.155 33.8626 26.1437 33.8826C26.1312 33.9038 26.1062 33.9451 26.0937 33.9663L25.9675 34.1838C25.9575 34.2001 25.9375 34.2351 25.9275 34.2513L25.85 34.3826C25.8375 34.4051 25.81 34.4513 25.7975 34.4738C25.7475 34.5601 25.6487 34.7326 25.5987 34.8201C25.59 34.8351 25.5712 34.8663 25.5625 34.8826L25.4837 35.0138C25.4712 35.0376 25.4437 35.0826 25.43 35.1063C25.3837 35.1876 25.2887 35.3488 25.2425 35.4301C25.2312 35.4488 25.21 35.4876 25.1987 35.5063L25.105 35.6751C25.0962 35.6901 25.0787 35.7213 25.07 35.7363L24.9737 35.9051C24.9637 35.9226 24.9437 35.9576 24.9337 35.9751C24.8837 36.0576 24.7862 36.2238 24.7375 36.3076C24.7262 36.3263 24.7037 36.3651 24.6925 36.3851L24.6037 36.5451C24.595 36.5601 24.5787 36.5888 24.5712 36.6038L24.4687 36.7813C24.46 36.7976 24.4412 36.8288 24.4325 36.8438C24.38 36.9338 24.2762 37.1126 24.2237 37.2026C24.215 37.2188 24.195 37.2513 24.185 37.2676L24.11 37.3913C24.0975 37.4138 24.0712 37.4576 24.0587 37.4801C24.0112 37.5626 23.9175 37.7263 23.87 37.8088C23.8625 37.8226 23.845 37.8526 23.8375 37.8663L23.735 38.0488C23.7275 38.0626 23.7125 38.0888 23.705 38.1026L23.6 38.2863C23.5912 38.3001 23.5737 38.3301 23.565 38.3438C23.5162 38.4263 23.4175 38.5888 23.3687 38.6713C23.355 38.6926 23.33 38.7376 23.3162 38.7601L23.2425 38.8976C23.2325 38.9151 23.2137 38.9501 23.205 38.9663L23.0762 39.1888C23.0662 39.2076 23.0437 39.2451 23.0337 39.2638C23.0225 39.2813 23.0025 39.3176 22.9925 39.3351C22.7812 39.6913 22.59 40.0588 22.3562 40.4013C21.025 42.5726 19.8 44.8113 18.5112 47.0088C16.4187 50.6301 14.3287 54.2513 12.2362 57.8726C11.9225 58.4363 11.565 58.9763 11.295 59.5651C11.2812 59.5851 11.2537 59.6251 11.24 59.6451C10.7387 58.9226 10.3512 58.1251 9.89248 57.3751C7.79999 53.7513 5.70623 50.1288 3.61499 46.5038C2.45249 44.4651 1.24124 42.4513 0.109985 40.3938C4.58998 32.6626 9.04998 24.9176 13.5212 17.1813C13.525 17.1738 13.5337 17.1601 13.5375 17.1526L13.66 16.9426C13.665 16.9338 13.675 16.9163 13.6812 16.9076L13.805 16.6963C13.8162 16.6776 13.8387 16.6376 13.8512 16.6188C13.8637 16.5963 13.8887 16.5526 13.9012 16.5301L14.025 16.3101C14.0337 16.2951 14.0512 16.2651 14.06 16.2501L14.1525 16.1026C14.1687 16.0788 14.2012 16.0301 14.2175 16.0051C14.2625 15.9376 14.3537 15.8013 14.4 15.7338C14.405 15.7113 14.4137 15.6676 14.4187 15.6463L14.5275 15.4376C14.5325 15.4288 14.5425 15.4113 14.5475 15.4026L14.6725 15.1926C14.685 15.1726 14.71 15.1301 14.7225 15.1088C14.7362 15.0851 14.7637 15.0363 14.7787 15.0113L14.8837 14.8276C14.895 14.8076 14.9175 14.7688 14.9287 14.7501L15.0162 14.5963C15.0262 14.5801 15.0462 14.5451 15.0562 14.5276C15.105 14.4438 15.2025 14.2763 15.2525 14.1926C15.2625 14.1751 15.2825 14.1401 15.2925 14.1226L15.3837 13.9563C15.3912 13.9438 15.4062 13.9163 15.4137 13.9038L15.5337 13.6938C15.5487 13.6688 15.58 13.6176 15.5962 13.5926L15.6775 13.4701C15.695 13.4451 15.7287 13.3963 15.7462 13.3726C15.7612 13.3476 15.7925 13.2976 15.8087 13.2726L15.8762 13.1426C15.8987 13.0938 15.945 12.9963 15.9675 12.9476L16.0362 12.8513C16.0487 12.8338 16.0725 12.8001 16.085 12.7826C16.1312 12.7438 16.225 12.6638 16.2712 12.6238L16.2625 12.4776C16.27 12.4601 16.2875 12.4251 16.2962 12.4076L16.4025 12.1963C16.4112 12.1813 16.4287 12.1501 16.4375 12.1351L16.5312 11.9826C16.5487 11.9576 16.5825 11.9076 16.6 11.8826C16.6425 11.8126 16.7287 11.6751 16.7712 11.6063C16.7837 11.5813 16.8062 11.5326 16.8187 11.5076L16.885 11.3638C16.905 11.3263 16.9475 11.2501 16.9687 11.2113L17.0512 11.0938C17.0687 11.0701 17.1037 11.0226 17.1212 10.9988C17.1362 10.9738 17.1675 10.9238 17.1825 10.8988L17.2437 10.7701C17.2575 10.7413 17.2862 10.6826 17.3 10.6538L17.4075 10.4463C17.4237 10.4213 17.455 10.3688 17.47 10.3426L17.5525 10.2201C17.57 10.1951 17.605 10.1476 17.6225 10.1226C17.6387 10.0976 17.67 10.0463 17.685 10.0213L17.7487 9.8913C17.7675 9.85505 17.8037 9.7838 17.8212 9.74755L17.9062 9.60755C17.9212 9.5838 17.9512 9.5363 17.9675 9.51255C18.0125 9.44255 18.1037 9.30255 18.15 9.2338C18.155 9.21255 18.1662 9.17005 18.1712 9.1488L18.28 8.9413C18.2837 8.93255 18.2937 8.9163 18.2987 8.90755L18.4237 8.6938C18.4362 8.67255 18.46 8.6313 18.4725 8.61005C18.485 8.59005 18.5087 8.54755 18.5212 8.52755L18.6462 8.3088C18.6512 8.30005 18.6612 8.28255 18.6662 8.27255L18.7837 8.0688C18.79 8.06005 18.8012 8.0413 18.8062 8.0313L18.9325 7.8188C18.9437 7.7988 18.9662 7.7613 18.9775 7.7413C18.99 7.72005 19.015 7.6763 19.0275 7.6538L19.1475 7.44255C19.155 7.4288 19.17 7.40255 19.1775 7.39005L19.2787 7.2263C19.295 7.20255 19.3275 7.1538 19.3425 7.13005C19.3887 7.0613 19.4787 6.9238 19.525 6.85505C19.5287 6.8338 19.5387 6.7913 19.5437 6.77005L19.65 6.5663C19.6587 6.5513 19.6775 6.52005 19.6862 6.5038L19.7812 6.35505C19.7987 6.3313 19.8312 6.28255 19.8487 6.25755C19.8925 6.18755 19.98 6.0488 20.0237 5.9788C20.03 5.9588 20.0412 5.9188 20.0475 5.8988L20.1575 5.69255C20.1625 5.68255 20.1725 5.66505 20.1775 5.65505L20.305 5.44005C20.315 5.4213 20.3375 5.3838 20.3487 5.36505C20.36 5.3438 20.3825 5.3038 20.3937 5.2838L20.5187 5.0613C20.525 5.05255 20.535 5.0338 20.54 5.02505L20.6587 4.8238C20.6625 4.81755 20.6712 4.8038 20.675 4.79755Z" fill="#0BA25E"/>
<path d="M20.9437 4.38632C25.0037 4.36757 29.065 4.38382 33.1262 4.37757C36.4862 4.39007 39.8487 4.35132 43.2075 4.39632C43.2737 4.52382 43.3412 4.65007 43.4125 4.77632C43.4225 4.79257 43.4412 4.82757 43.4512 4.84507C43.7762 5.41132 44.1062 5.97507 44.4275 6.54257C44.4337 6.55257 44.4437 6.57132 44.45 6.58007C45.0725 7.64882 45.6925 8.71882 46.3037 9.79382C46.3087 9.80257 46.32 9.82007 46.325 9.83007C46.4362 10.0213 46.5512 10.2126 46.665 10.4051C46.675 10.4213 46.6937 10.4551 46.7037 10.4726C46.86 10.7476 47.0175 11.0213 47.1762 11.2951C47.1825 11.3038 47.1925 11.3213 47.1975 11.3313C47.3562 11.6038 47.5125 11.8788 47.67 12.1538C47.68 12.1701 47.6987 12.2026 47.7087 12.2188C47.8675 12.4863 48.0212 12.7563 48.1737 13.0263C48.1837 13.0426 48.2025 13.0763 48.2125 13.0926C49.705 15.6701 51.1937 18.2488 52.6812 20.8301C52.5112 21.5788 52.9225 22.3238 52.6937 23.0763C52.555 25.1326 51.7787 27.1338 50.4987 28.7488C50.0825 29.2001 50.4862 29.8263 50.4412 30.3613C49.9925 30.9051 49.415 31.3113 48.87 31.7501C48.8712 32.1601 48.8725 32.5701 48.8537 32.9813C48.3675 33.3026 47.81 33.4888 47.3162 33.7988C47.2637 33.9651 47.21 34.1326 47.1587 34.3013C46.7625 34.4888 46.3387 34.6101 45.9425 34.8001C44.3737 34.3501 42.8212 33.8488 41.2562 33.3851C39.8 32.9038 38.3087 32.5263 36.8675 31.9963L36.785 31.8488C36.7775 31.8376 36.765 31.8151 36.7587 31.8038L36.64 31.6026C36.6275 31.5813 36.6025 31.5388 36.59 31.5176C36.5787 31.4988 36.5587 31.4626 36.5475 31.4438C36.4587 31.2863 36.3775 31.1251 36.305 30.9601L36.2975 30.9438L36.2887 30.9313C36.2337 30.8438 36.1225 30.6676 36.0662 30.5801C36.06 30.5701 36.0475 30.5501 36.0412 30.5388L36.005 30.4813C35.9837 30.4451 35.94 30.3738 35.9187 30.3376C35.865 30.2463 35.7562 30.0638 35.7025 29.9726C35.6887 29.9501 35.6625 29.9038 35.6487 29.8813L35.5725 29.7513C35.5625 29.7338 35.5425 29.7001 35.5325 29.6826L35.4112 29.4738C35.4062 29.4651 35.395 29.4476 35.39 29.4376L35.2625 29.2188C35.2512 29.1988 35.2287 29.1588 35.2175 29.1401C35.205 29.1176 35.1787 29.0713 35.1662 29.0488L35.0625 28.8663C35.05 28.8451 35.025 28.8001 35.0125 28.7788L34.9325 28.6376C34.9212 28.6188 34.9 28.5813 34.8887 28.5626C34.84 28.4726 34.7412 28.2938 34.6912 28.2038C34.6862 28.1938 34.6737 28.1726 34.6687 28.1626L34.635 28.1038C34.6112 28.0688 34.565 27.9988 34.5412 27.9638C34.4175 27.7563 34.3012 27.5438 34.19 27.3301C34.1837 27.3201 34.1725 27.2988 34.1675 27.2888L34.135 27.2313C34.1112 27.1976 34.0637 27.1301 34.04 27.0976C33.985 26.9988 33.875 26.8013 33.82 26.7026C33.8137 26.6926 33.8012 26.6713 33.7962 26.6601L33.7625 26.6001C33.7375 26.5588 33.6887 26.4776 33.6637 26.4363L33.5562 26.2551C33.5462 26.2376 33.525 26.2026 33.5137 26.1838C33.4662 26.1013 33.37 25.9351 33.3212 25.8526C33.31 25.8338 33.2887 25.7951 33.2775 25.7751C33.1925 25.6338 33.1112 25.4913 33.0312 25.3488C33.025 25.3376 33.0112 25.3151 33.005 25.3038L32.8862 25.1001C32.8737 25.0801 32.85 25.0401 32.8387 25.0188C32.8275 25.0001 32.8062 24.9626 32.795 24.9438L32.6687 24.7238C32.6625 24.7138 32.6512 24.6926 32.645 24.6826L32.5425 24.4988C32.5337 24.4838 32.5175 24.4551 32.5087 24.4401C32.4612 24.3563 32.365 24.1901 32.3175 24.1063C32.3075 24.0888 32.2875 24.0551 32.2775 24.0388C32.2 23.9101 32.1225 23.7801 32.0475 23.6513C28.5812 17.6363 25.11 11.6251 21.6362 5.61382C21.4187 5.23882 21.2212 4.84882 20.955 4.50382L20.9487 4.44757L20.9437 4.38632Z" fill="#FCCD48"/>
<path d="M20.8788 4.44999L20.9488 4.44749L20.9551 4.50374L20.8676 4.51749L20.8788 4.44999Z" fill="#089156"/>
<path d="M20.955 4.50371C21.2212 4.84871 21.4187 5.23871 21.6362 5.61371C25.11 11.625 28.5812 17.6362 32.0475 23.6512C30.4425 26.4462 28.825 29.235 27.2137 32.0275C26.9975 30.69 26.5937 29.3925 26.3362 28.0625C25.9375 26.6362 25.7162 25.1675 25.3037 23.7437C24.8287 21.4437 24.25 19.1637 23.7312 16.8725C22.94 13.5312 22.18 10.1825 21.4275 6.83121C21.2525 6.05996 21.02 5.29621 20.955 4.50371Z" fill="#089156"/>
<path d="M20.6588 4.82336C20.6625 4.8172 20.6711 4.80367 20.6748 4.79752C20.6711 4.80367 20.6625 4.8172 20.6588 4.82336Z" fill="#089156"/>
<path d="M20.5187 5.06122C20.5249 5.05247 20.5349 5.03372 20.5399 5.02497C20.5349 5.03372 20.5249 5.05247 20.5187 5.06122Z" fill="#089156"/>
<path d="M20.3488 5.36503C20.36 5.34378 20.3825 5.30378 20.3938 5.28378C20.3825 5.30378 20.36 5.34378 20.3488 5.36503Z" fill="#089156"/>
<path d="M20.3051 5.44006C20.3151 5.42131 20.3376 5.38381 20.3488 5.36506C20.3376 5.38381 20.3151 5.42131 20.3051 5.44006Z" fill="#089156"/>
<path d="M20.1575 5.69241C20.1625 5.68241 20.1725 5.66491 20.1775 5.65491C20.1725 5.66491 20.1625 5.68241 20.1575 5.69241Z" fill="#089156"/>
<path d="M20.0238 5.97873C20.0301 5.95873 20.0413 5.91873 20.0476 5.89873C20.0413 5.91873 20.0301 5.95873 20.0238 5.97873Z" fill="#089156"/>
<path d="M19.8488 6.25749C19.8925 6.18749 19.98 6.04874 20.0238 5.97874C19.98 6.04874 19.8925 6.18749 19.8488 6.25749Z" fill="#089156"/>
<path d="M19.7812 6.35496C19.7988 6.33121 19.8312 6.28246 19.8487 6.25746C19.8312 6.28246 19.7988 6.33121 19.7812 6.35496Z" fill="#089156"/>
<path d="M19.65 6.56621C19.6588 6.55121 19.6775 6.51996 19.6863 6.50371C19.6775 6.51996 19.6588 6.55121 19.65 6.56621Z" fill="#089156"/>
<path d="M19.525 6.85498C19.5288 6.83373 19.5388 6.79123 19.5438 6.76998C19.5388 6.79123 19.5288 6.83373 19.525 6.85498Z" fill="#089156"/>
<path d="M19.3424 7.13008C19.3887 7.06133 19.4787 6.92383 19.5249 6.85508C19.4787 6.92383 19.3887 7.06133 19.3424 7.13008Z" fill="#089156"/>
<path d="M19.2788 7.22624C19.2951 7.20249 19.3276 7.15374 19.3426 7.12999C19.3276 7.15374 19.2951 7.20249 19.2788 7.22624Z" fill="#089156"/>
<path d="M19.1475 7.44248C19.155 7.42873 19.17 7.40248 19.1775 7.38998C19.17 7.40248 19.155 7.42873 19.1475 7.44248Z" fill="#089156"/>
<path d="M18.9774 7.74128C18.9899 7.72003 19.0149 7.67628 19.0274 7.65378C19.0149 7.67628 18.9899 7.72003 18.9774 7.74128Z" fill="#089156"/>
<path d="M18.9325 7.8187C18.9437 7.7987 18.9662 7.7612 18.9775 7.7412C18.9662 7.7612 18.9437 7.7987 18.9325 7.8187Z" fill="#089156"/>
<path d="M18.7838 8.06875C18.7901 8.06 18.8013 8.04125 18.8063 8.03125C18.8013 8.04125 18.7901 8.06 18.7838 8.06875Z" fill="#089156"/>
<path d="M18.6462 8.3087C18.6512 8.29995 18.6612 8.28245 18.6662 8.27245C18.6612 8.28245 18.6512 8.29995 18.6462 8.3087Z" fill="#089156"/>
<path d="M18.4724 8.61C18.4849 8.59 18.5087 8.5475 18.5212 8.5275C18.5087 8.5475 18.4849 8.59 18.4724 8.61Z" fill="#089156"/>
<path d="M18.4237 8.69376C18.4362 8.67251 18.46 8.63126 18.4725 8.61001C18.46 8.63126 18.4362 8.67251 18.4237 8.69376Z" fill="#089156"/>
<path d="M18.2799 8.94119C18.2837 8.93244 18.2937 8.91619 18.2987 8.90744C18.2937 8.91619 18.2837 8.93244 18.2799 8.94119Z" fill="#089156"/>
<path d="M18.15 9.23373C18.155 9.21248 18.1663 9.16998 18.1713 9.14873C18.1663 9.16998 18.155 9.21248 18.15 9.23373Z" fill="#089156"/>
<path d="M17.9674 9.51249C18.0124 9.44249 18.1037 9.30249 18.1499 9.23374C18.1037 9.30249 18.0124 9.44249 17.9674 9.51249Z" fill="#089156"/>
<path d="M17.9062 9.60751C17.9212 9.58376 17.9513 9.53626 17.9675 9.51251C17.9513 9.53626 17.9212 9.58376 17.9062 9.60751Z" fill="#089156"/>
<path d="M17.7487 9.89128C17.7674 9.85503 17.8037 9.78378 17.8212 9.74753C17.8037 9.78378 17.7674 9.85503 17.7487 9.89128Z" fill="#089156"/>
<path d="M17.6226 10.1226C17.6388 10.0976 17.6701 10.0463 17.6851 10.0213C17.6701 10.0463 17.6388 10.0976 17.6226 10.1226Z" fill="#089156"/>
<path d="M17.5525 10.22C17.57 10.195 17.605 10.1475 17.6225 10.1225C17.605 10.1475 17.57 10.195 17.5525 10.22Z" fill="#089156"/>
<path d="M17.4075 10.4462C17.4237 10.4212 17.455 10.3687 17.47 10.3424C17.455 10.3687 17.4237 10.4212 17.4075 10.4462Z" fill="#089156"/>
<path d="M17.2438 10.77C17.2575 10.7413 17.2863 10.6825 17.3 10.6538C17.2863 10.6825 17.2575 10.7413 17.2438 10.77Z" fill="#089156"/>
<path d="M17.1212 10.9987C17.1362 10.9737 17.1675 10.9237 17.1825 10.8987C17.1675 10.9237 17.1362 10.9737 17.1212 10.9987Z" fill="#089156"/>
<path d="M17.0513 11.0937C17.0688 11.0699 17.1038 11.0224 17.1213 10.9987C17.1038 11.0224 17.0688 11.0699 17.0513 11.0937Z" fill="#089156"/>
<path d="M16.885 11.3637C16.905 11.3262 16.9475 11.25 16.9688 11.2112C16.9475 11.25 16.905 11.3262 16.885 11.3637Z" fill="#089156"/>
<path d="M16.7712 11.6062C16.7837 11.5812 16.8062 11.5325 16.8187 11.5075C16.8062 11.5325 16.7837 11.5812 16.7712 11.6062Z" fill="#089156"/>
<path d="M16.6 11.8825C16.6425 11.8125 16.7287 11.675 16.7712 11.6063C16.7287 11.675 16.6425 11.8125 16.6 11.8825Z" fill="#089156"/>
<path d="M16.5312 11.9825C16.5488 11.9575 16.5825 11.9075 16.6 11.8825C16.5825 11.9075 16.5488 11.9575 16.5312 11.9825Z" fill="#089156"/>
<path d="M16.4025 12.1962C16.4112 12.1812 16.4287 12.15 16.4375 12.135C16.4287 12.15 16.4112 12.1812 16.4025 12.1962Z" fill="#089156"/>
<path d="M16.2626 12.4774C16.2701 12.4599 16.2876 12.4249 16.2963 12.4074C16.2876 12.4249 16.2701 12.4599 16.2626 12.4774Z" fill="#089156"/>
<path d="M16.085 12.7825C16.1287 12.7062 16.2175 12.5537 16.2625 12.4775L16.2712 12.6237C16.225 12.6637 16.1312 12.7437 16.085 12.7825Z" fill="#089156"/>
<path d="M16.0363 12.8512C16.0488 12.8337 16.0725 12.7999 16.085 12.7824C16.0725 12.7999 16.0488 12.8337 16.0363 12.8512Z" fill="#089156"/>
<path d="M15.8762 13.1425C15.8987 13.0937 15.945 12.9962 15.9675 12.9475C15.945 12.9962 15.8987 13.0937 15.8762 13.1425Z" fill="#089156"/>
<path d="M15.7462 13.3724C15.7612 13.3474 15.7925 13.2974 15.8087 13.2724C15.7925 13.2974 15.7612 13.3474 15.7462 13.3724Z" fill="#089156"/>
<path d="M15.6775 13.47C15.695 13.445 15.7287 13.3963 15.7462 13.3725C15.7287 13.3963 15.695 13.445 15.6775 13.47Z" fill="#089156"/>
<path d="M15.5338 13.6937C15.5488 13.6687 15.5801 13.6174 15.5963 13.5924C15.5801 13.6174 15.5488 13.6687 15.5338 13.6937Z" fill="#089156"/>
<path d="M15.3837 13.9563C15.3912 13.9438 15.4062 13.9163 15.4137 13.9038C15.4062 13.9163 15.3912 13.9438 15.3837 13.9563Z" fill="#089156"/>
<path d="M15.2526 14.1925C15.2626 14.175 15.2826 14.14 15.2926 14.1225C15.2826 14.14 15.2626 14.175 15.2526 14.1925Z" fill="#089156"/>
<path d="M15.0162 14.5963C15.0262 14.58 15.0462 14.545 15.0562 14.5275C15.0462 14.545 15.0262 14.58 15.0162 14.5963Z" fill="#089156"/>
<path d="M14.8837 14.8275C14.8949 14.8075 14.9174 14.7688 14.9287 14.75C14.9174 14.7688 14.8949 14.8075 14.8837 14.8275Z" fill="#089156"/>
<path d="M14.7224 15.1088C14.7362 15.0851 14.7637 15.0363 14.7787 15.0113C14.7637 15.0363 14.7362 15.0851 14.7224 15.1088Z" fill="#089156"/>
<path d="M14.6725 15.1925C14.685 15.1725 14.71 15.13 14.7225 15.1087C14.71 15.13 14.685 15.1725 14.6725 15.1925Z" fill="#089156"/>
<path d="M14.5275 15.4375C14.5325 15.4288 14.5425 15.4113 14.5475 15.4025C14.5425 15.4113 14.5325 15.4288 14.5275 15.4375Z" fill="#089156"/>
<path d="M14.4 15.7338C14.405 15.7113 14.4138 15.6676 14.4188 15.6463C14.4138 15.6676 14.405 15.7113 14.4 15.7338Z" fill="#089156"/>
<path d="M14.2174 16.005C14.2624 15.9375 14.3537 15.8012 14.3999 15.7337C14.3537 15.8012 14.2624 15.9375 14.2174 16.005Z" fill="#089156"/>
<path d="M14.1525 16.1025C14.1687 16.0788 14.2012 16.03 14.2175 16.005C14.2012 16.03 14.1687 16.0788 14.1525 16.1025Z" fill="#089156"/>
<path d="M14.025 16.31C14.0338 16.295 14.0513 16.265 14.06 16.25C14.0513 16.265 14.0338 16.295 14.025 16.31Z" fill="#089156"/>
<path d="M13.8513 16.6187C13.8638 16.5962 13.8888 16.5524 13.9013 16.5299C13.8888 16.5524 13.8638 16.5962 13.8513 16.6187Z" fill="#089156"/>
<path d="M13.8051 16.6962C13.8163 16.6775 13.8388 16.6375 13.8513 16.6187C13.8388 16.6375 13.8163 16.6775 13.8051 16.6962Z" fill="#089156"/>
<path d="M13.6599 16.9424C13.6649 16.9337 13.6749 16.9162 13.6812 16.9074C13.6749 16.9162 13.6649 16.9337 13.6599 16.9424Z" fill="#089156"/>
<path d="M13.5212 17.1808C13.5249 17.1734 13.5335 17.1599 13.5372 17.1525C13.5335 17.1599 13.5249 17.1734 13.5212 17.1808Z" fill="#089156"/>
<path d="M26.8624 32.6062C26.8837 32.5712 26.9287 32.5012 26.9499 32.4675C26.9287 32.5012 26.8837 32.5712 26.8624 32.6062Z" fill="#089156"/>
<path d="M26.8075 32.7037C26.8137 32.6937 26.825 32.6725 26.83 32.6625C26.825 32.6725 26.8137 32.6937 26.8075 32.7037Z" fill="#089156"/>
<path d="M26.5751 33.1263C26.5851 33.11 26.6038 33.0775 26.6126 33.0612C26.6038 33.0775 26.5851 33.11 26.5751 33.1263Z" fill="#089156"/>
<path d="M26.4437 33.3575C26.4537 33.3387 26.475 33.3025 26.4862 33.2837C26.475 33.3025 26.4537 33.3387 26.4437 33.3575Z" fill="#089156"/>
<path d="M26.3175 33.5787C26.3238 33.5687 26.335 33.5487 26.34 33.5387C26.335 33.5487 26.3238 33.5687 26.3175 33.5787Z" fill="#089156"/>
<path d="M26.1437 33.8824C26.1549 33.8624 26.1774 33.8224 26.1887 33.8037C26.1774 33.8224 26.1549 33.8624 26.1437 33.8824Z" fill="#089156"/>
<path d="M26.0938 33.9662C26.1063 33.945 26.1312 33.9037 26.1437 33.8825C26.1312 33.9037 26.1063 33.945 26.0938 33.9662Z" fill="#089156"/>
<path d="M25.9275 34.2512C25.9375 34.235 25.9575 34.2 25.9675 34.1837C25.9575 34.2 25.9375 34.235 25.9275 34.2512Z" fill="#089156"/>
<path d="M25.7975 34.4737C25.81 34.4512 25.8375 34.405 25.85 34.3825C25.8375 34.405 25.81 34.4512 25.7975 34.4737Z" fill="#089156"/>
<path d="M25.5625 34.8825C25.5713 34.8662 25.59 34.835 25.5987 34.82C25.59 34.835 25.5713 34.8662 25.5625 34.8825Z" fill="#089156"/>
<path d="M25.4301 35.1062C25.4438 35.0825 25.4713 35.0375 25.4838 35.0137C25.4713 35.0375 25.4438 35.0825 25.4301 35.1062Z" fill="#089156"/>
<path d="M25.1987 35.5062C25.21 35.4875 25.2312 35.4487 25.2425 35.43C25.2312 35.4487 25.21 35.4875 25.1987 35.5062Z" fill="#089156"/>
<path d="M25.0701 35.7362C25.0788 35.7212 25.0963 35.6899 25.1051 35.6749C25.0963 35.6899 25.0788 35.7212 25.0701 35.7362Z" fill="#089156"/>
<path d="M24.9338 35.975C24.9438 35.9575 24.9638 35.9225 24.9738 35.905C24.9638 35.9225 24.9438 35.9575 24.9338 35.975Z" fill="#089156"/>
<path d="M24.6925 36.385C24.7038 36.365 24.7263 36.3263 24.7375 36.3075C24.7263 36.3263 24.7038 36.365 24.6925 36.385Z" fill="#089156"/>
<path d="M24.5712 36.6037C24.5787 36.5887 24.5949 36.56 24.6037 36.545C24.5949 36.56 24.5787 36.5887 24.5712 36.6037Z" fill="#089156"/>
<path d="M24.4325 36.8437C24.4412 36.8287 24.46 36.7975 24.4687 36.7812C24.46 36.7975 24.4412 36.8287 24.4325 36.8437Z" fill="#089156"/>
<path d="M24.1851 37.2674C24.1951 37.2512 24.2151 37.2187 24.2238 37.2024C24.2151 37.2187 24.1951 37.2512 24.1851 37.2674Z" fill="#089156"/>
<path d="M24.0587 37.48C24.0712 37.4575 24.0975 37.4137 24.11 37.3912C24.0975 37.4137 24.0712 37.4575 24.0587 37.48Z" fill="#089156"/>
<path d="M23.8375 37.8662C23.845 37.8525 23.8625 37.8225 23.87 37.8088C23.8625 37.8225 23.845 37.8525 23.8375 37.8662Z" fill="#089156"/>
<path d="M23.705 38.1025C23.7125 38.0887 23.7275 38.0625 23.735 38.0487C23.7275 38.0625 23.7125 38.0887 23.705 38.1025Z" fill="#089156"/>
<path d="M23.5651 38.3438C23.5738 38.33 23.5913 38.3 23.6001 38.2863C23.5913 38.3 23.5738 38.33 23.5651 38.3438Z" fill="#089156"/>
<path d="M23.3162 38.7599C23.3299 38.7374 23.3549 38.6924 23.3687 38.6712C23.3549 38.6924 23.3299 38.7374 23.3162 38.7599Z" fill="#089156"/>
<path d="M23.205 38.9662C23.2137 38.9499 23.2325 38.9149 23.2425 38.8974C23.2325 38.9149 23.2137 38.9499 23.205 38.9662Z" fill="#089156"/>
<path d="M23.0338 39.2638C23.0438 39.245 23.0663 39.2075 23.0763 39.1888C23.0663 39.2075 23.0438 39.245 23.0338 39.2638Z" fill="#089156"/>
<path d="M22.9926 39.335C23.0026 39.3175 23.0226 39.2812 23.0338 39.2637C23.0226 39.2812 23.0026 39.3175 22.9926 39.335Z" fill="#089156"/>
<path d="M43.4125 4.77625C43.4225 4.7925 43.4412 4.8275 43.4512 4.845C43.4412 4.8275 43.4225 4.7925 43.4125 4.77625Z" fill="#10985B"/>
<path d="M44.4275 6.54258C44.4337 6.55258 44.4437 6.57133 44.45 6.58008C44.4437 6.57133 44.4337 6.55258 44.4275 6.54258Z" fill="#10985B"/>
<path d="M46.3038 9.79371C46.3088 9.80246 46.3201 9.81996 46.3251 9.82996C46.3201 9.81996 46.3088 9.80246 46.3038 9.79371Z" fill="#10985B"/>
<path d="M46.6649 10.4049C46.6749 10.4212 46.6937 10.4549 46.7037 10.4724C46.6937 10.4549 46.6749 10.4212 46.6649 10.4049Z" fill="#10985B"/>
<path d="M47.1763 11.295C47.1825 11.3037 47.1925 11.3212 47.1975 11.3312C47.1925 11.3212 47.1825 11.3037 47.1763 11.295Z" fill="#10985B"/>
<path d="M47.6699 12.1537C47.6799 12.17 47.6987 12.2025 47.7087 12.2187C47.6987 12.2025 47.6799 12.17 47.6699 12.1537Z" fill="#10985B"/>
<path d="M48.1738 13.0262C48.1838 13.0425 48.2026 13.0763 48.2126 13.0925C48.2026 13.0763 48.1838 13.0425 48.1738 13.0262Z" fill="#10985B"/>
<path d="M52.6813 20.83C54.855 24.5962 57.0425 28.3562 59.1988 32.1337C59.2088 32.15 59.2288 32.185 59.2388 32.2012C59.2888 32.2837 59.3888 32.4475 59.4375 32.5287C59.4475 32.545 59.4675 32.5787 59.4775 32.595L59.5775 32.7662C59.5838 32.7775 59.5963 32.8012 59.6038 32.8125L59.7288 33.03C59.7413 33.0512 59.765 33.095 59.7775 33.1162C59.7888 33.135 59.8113 33.1737 59.8225 33.1937L59.945 33.4062C59.95 33.415 59.96 33.4325 59.965 33.4412L60.0875 33.6512C60.0925 33.66 60.1025 33.6762 60.1075 33.685L60.23 33.8975C60.2425 33.9187 60.2663 33.96 60.2788 33.9812C60.29 34.0025 60.3138 34.0437 60.325 34.0637L60.4513 34.2862C60.4688 34.33 60.5038 34.415 60.5213 34.4575L60.5563 34.5262L60.5725 34.5625L60.6 34.5987L60.6738 34.71C60.7 34.7512 60.7513 34.8337 60.7775 34.875C60.7925 34.9 60.825 34.95 60.84 34.975L60.9225 35.1062C60.9475 35.1625 60.9975 35.2762 61.0225 35.3325L61.06 35.4L61.0738 35.4262L61.085 35.4425C61.14 35.5237 61.2488 35.6875 61.3038 35.7687C61.3175 35.7912 61.345 35.8362 61.36 35.8587L61.435 35.9837C61.4463 36.0037 61.4688 36.0425 61.48 36.0612L61.6063 36.2825C61.6175 36.3025 61.64 36.3425 61.6513 36.3625C61.6625 36.3825 61.685 36.4212 61.6963 36.4412L61.8213 36.655C61.8263 36.665 61.8375 36.6837 61.8438 36.6925L61.9575 36.8925C61.965 36.905 61.98 36.9312 61.9875 36.9437L62.1025 37.145C62.1163 37.1675 62.1425 37.2137 62.1563 37.2362C62.1675 37.2562 62.1913 37.2962 62.2025 37.3162C62.295 37.47 62.3838 37.6262 62.4663 37.7862C62.4788 37.8125 62.5038 37.865 62.515 37.8912L62.5725 38.0212C62.5875 38.0462 62.6175 38.0975 62.6313 38.1225C62.65 38.1475 62.6863 38.195 62.705 38.2187L62.7913 38.3412C62.8063 38.365 62.8363 38.4125 62.8525 38.4375L62.9788 38.6562C62.99 38.6762 63.0125 38.7162 63.0238 38.7362C63.035 38.7562 63.0575 38.795 63.07 38.815L63.195 39.03C63.2 39.04 63.21 39.0575 63.215 39.0662L63.3338 39.2737C63.3388 39.2825 63.3488 39.2987 63.3538 39.3075L63.475 39.5187C63.4875 39.54 63.5125 39.5825 63.525 39.605C63.5375 39.6262 63.5625 39.6687 63.5738 39.69L63.6988 39.905C63.7038 39.9137 63.7125 39.9312 63.7175 39.94L63.85 40.1875L63.8488 40.3C60.7213 39.4012 57.6438 38.335 54.5075 37.4687C51.6613 36.55 48.7888 35.7137 45.9425 34.8C46.3388 34.61 46.7625 34.4887 47.1588 34.3012C47.21 34.1325 47.2638 33.965 47.3163 33.7987C47.81 33.4887 48.3675 33.3025 48.8538 32.9812C48.8725 32.57 48.8713 32.16 48.87 31.75C49.415 31.3112 49.9925 30.905 50.4413 30.3612C50.4863 29.8262 50.0825 29.2 50.4988 28.7487C51.7788 27.1337 52.555 25.1325 52.6938 23.0762C52.9225 22.3237 52.5113 21.5787 52.6813 20.83Z" fill="#F9C941"/>
<path d="M63.8488 40.3L63.9138 40.3025L63.95 40.3975L63.8763 40.4025L63.8488 40.3Z" fill="#F9C941"/>
<path d="M32.2776 24.0387C32.2876 24.055 32.3076 24.0887 32.3176 24.1062C32.3076 24.0887 32.2876 24.055 32.2776 24.0387Z" fill="#E3B73A"/>
<path d="M32.5087 24.44C32.5174 24.455 32.5337 24.4838 32.5424 24.4988C32.5337 24.4838 32.5174 24.455 32.5087 24.44Z" fill="#E3B73A"/>
<path d="M32.645 24.6825C32.6513 24.6925 32.6625 24.7138 32.6688 24.7238C32.6625 24.7138 32.6513 24.6925 32.645 24.6825Z" fill="#E3B73A"/>
<path d="M32.7949 24.9438C32.8062 24.9625 32.8274 25 32.8387 25.0188C32.8274 25 32.8062 24.9625 32.7949 24.9438Z" fill="#E3B73A"/>
<path d="M32.8387 25.0188C32.85 25.04 32.8737 25.08 32.8862 25.1C32.8737 25.08 32.85 25.04 32.8387 25.0188Z" fill="#E3B73A"/>
<path d="M33.005 25.3038C33.0113 25.315 33.025 25.3375 33.0313 25.3488C33.025 25.3375 33.0113 25.315 33.005 25.3038Z" fill="#E3B73A"/>
<path d="M33.2776 25.775C33.2888 25.795 33.3101 25.8337 33.3213 25.8525C33.3101 25.8337 33.2888 25.795 33.2776 25.775Z" fill="#E3B73A"/>
<path d="M33.5137 26.1838C33.5249 26.2025 33.5462 26.2375 33.5562 26.255C33.5462 26.2375 33.5249 26.2025 33.5137 26.1838Z" fill="#E3B73A"/>
<path d="M33.6638 26.4363C33.6888 26.4775 33.7376 26.5588 33.7626 26.6C33.7376 26.5588 33.6888 26.4775 33.6638 26.4363Z" fill="#E3B73A"/>
<path d="M33.7963 26.66C33.8013 26.6712 33.8138 26.6925 33.82 26.7025C33.8138 26.6925 33.8013 26.6712 33.7963 26.66Z" fill="#E3B73A"/>
<path d="M34.0399 27.0975C34.0637 27.13 34.1112 27.1975 34.1349 27.2312C34.1112 27.1975 34.0637 27.13 34.0399 27.0975Z" fill="#E3B73A"/>
<path d="M34.1675 27.2887C34.1725 27.2987 34.1837 27.32 34.19 27.33C34.1837 27.32 34.1725 27.2987 34.1675 27.2887Z" fill="#E3B73A"/>
<path d="M34.5413 27.9638C34.565 27.9988 34.6113 28.0688 34.635 28.1038C34.6113 28.0688 34.565 27.9988 34.5413 27.9638Z" fill="#E3B73A"/>
<path d="M34.6688 28.1625C34.6738 28.1725 34.6863 28.1938 34.6913 28.2038C34.6863 28.1938 34.6738 28.1725 34.6688 28.1625Z" fill="#E3B73A"/>
<path d="M34.8887 28.5625C34.8999 28.5812 34.9212 28.6187 34.9324 28.6375C34.9212 28.6187 34.8999 28.5812 34.8887 28.5625Z" fill="#E3B73A"/>
<path d="M35.0126 28.7787C35.0251 28.8 35.0501 28.845 35.0626 28.8662C35.0501 28.845 35.0251 28.8 35.0126 28.7787Z" fill="#E3B73A"/>
<path d="M35.1663 29.0488C35.1788 29.0713 35.205 29.1175 35.2175 29.14C35.205 29.1175 35.1788 29.0713 35.1663 29.0488Z" fill="#E3B73A"/>
<path d="M35.2175 29.14C35.2288 29.1587 35.2513 29.1987 35.2625 29.2187C35.2513 29.1987 35.2288 29.1587 35.2175 29.14Z" fill="#E3B73A"/>
<path d="M35.39 29.4375C35.395 29.4475 35.4063 29.465 35.4113 29.4737C35.4063 29.465 35.395 29.4475 35.39 29.4375Z" fill="#E3B73A"/>
<path d="M35.5325 29.6825C35.5425 29.7 35.5625 29.7338 35.5725 29.7513C35.5625 29.7338 35.5425 29.7 35.5325 29.6825Z" fill="#E3B73A"/>
<path d="M35.6487 29.8813C35.6624 29.9038 35.6887 29.95 35.7024 29.9725C35.6887 29.95 35.6624 29.9038 35.6487 29.8813Z" fill="#E3B73A"/>
<path d="M35.9188 30.3375C35.9401 30.3737 35.9838 30.445 36.0051 30.4812C35.9838 30.445 35.9401 30.3737 35.9188 30.3375Z" fill="#E3B73A"/>
<path d="M36.0413 30.5387C36.0475 30.55 36.06 30.57 36.0663 30.58C36.06 30.57 36.0475 30.55 36.0413 30.5387Z" fill="#E3B73A"/>
<path d="M36.2888 30.9312L36.2974 30.9435L36.3048 30.9595C36.3011 30.9522 36.2925 30.9386 36.2888 30.9312Z" fill="#E3B73A"/>
<path d="M36.5475 31.4438C36.5587 31.4625 36.5787 31.4988 36.59 31.5175C36.5787 31.4988 36.5587 31.4625 36.5475 31.4438Z" fill="#E3B73A"/>
<path d="M36.5901 31.5175C36.6026 31.5388 36.6276 31.5813 36.6401 31.6025C36.6276 31.5813 36.6026 31.5388 36.5901 31.5175Z" fill="#E3B73A"/>
<path d="M36.7587 31.8038C36.7649 31.815 36.7774 31.8375 36.7849 31.8488C36.7774 31.8375 36.7649 31.815 36.7587 31.8038Z" fill="#E3B73A"/>
<path d="M36.8674 31.9963C38.3087 32.5263 39.7999 32.9038 41.2562 33.385C42.8212 33.8488 44.3737 34.35 45.9424 34.8C48.7887 35.7138 51.6612 36.55 54.5074 37.4688C54.4649 38.0775 54.5849 38.7013 54.4337 39.2988C54.3174 39.88 53.6224 39.9713 53.3362 40.435C49.4899 40.4363 45.6449 40.4475 41.7999 40.4313L41.7174 40.425C40.1287 37.6 38.4762 34.81 36.8674 31.9963Z" fill="#E3B73A"/>
<path d="M59.1987 32.1337C59.2087 32.15 59.2287 32.185 59.2387 32.2012C59.2287 32.185 59.2087 32.15 59.1987 32.1337Z" fill="#E8B835"/>
<path d="M59.4375 32.5287C59.4475 32.545 59.4675 32.5787 59.4775 32.595C59.4675 32.5787 59.4475 32.545 59.4375 32.5287Z" fill="#E8B835"/>
<path d="M59.5775 32.7663C59.5838 32.7775 59.5963 32.8013 59.6038 32.8125C59.5963 32.8013 59.5838 32.7775 59.5775 32.7663Z" fill="#E8B835"/>
<path d="M59.7288 33.03C59.7413 33.0513 59.765 33.095 59.7775 33.1163C59.765 33.095 59.7413 33.0513 59.7288 33.03Z" fill="#E8B835"/>
<path d="M59.7776 33.1163C59.7888 33.135 59.8113 33.1738 59.8226 33.1938C59.8113 33.1738 59.7888 33.135 59.7776 33.1163Z" fill="#E8B835"/>
<path d="M59.9451 33.4062C59.9501 33.415 59.9601 33.4325 59.9651 33.4412C59.9601 33.4325 59.9501 33.415 59.9451 33.4062Z" fill="#E8B835"/>
<path d="M60.0875 33.6513C60.0925 33.66 60.1025 33.6763 60.1075 33.685C60.1025 33.6763 60.0925 33.66 60.0875 33.6513Z" fill="#E8B835"/>
<path d="M60.23 33.8975C60.2425 33.9188 60.2662 33.96 60.2787 33.9813C60.2662 33.96 60.2425 33.9188 60.23 33.8975Z" fill="#E8B835"/>
<path d="M60.2787 33.9812C60.2899 34.0025 60.3137 34.0437 60.3249 34.0637C60.3137 34.0437 60.2899 34.0025 60.2787 33.9812Z" fill="#E8B835"/>
<path d="M60.4512 34.2862C60.4687 34.33 60.5037 34.415 60.5212 34.4575C60.5037 34.415 60.4687 34.33 60.4512 34.2862Z" fill="#E8B835"/>
<path d="M60.5563 34.5263C60.5675 34.545 60.5888 34.5813 60.6 34.5988L60.5725 34.5625L60.5563 34.5263Z" fill="#E8B835"/>
<path d="M60.6738 34.71C60.7001 34.7513 60.7513 34.8338 60.7776 34.875C60.7513 34.8338 60.7001 34.7513 60.6738 34.71Z" fill="#E8B835"/>
<path d="M60.7776 34.875C60.7926 34.9 60.8251 34.95 60.8401 34.975C60.8251 34.95 60.7926 34.9 60.7776 34.875Z" fill="#E8B835"/>
<path d="M60.9225 35.1062C60.9475 35.1625 60.9975 35.2762 61.0225 35.3325C60.9975 35.2762 60.9475 35.1625 60.9225 35.1062Z" fill="#E8B835"/>
<path d="M61.0599 35.4C61.0662 35.4113 61.0787 35.4325 61.0849 35.4425L61.0737 35.4263L61.0599 35.4Z" fill="#E8B835"/>
<path d="M61.3038 35.7688C61.3176 35.7913 61.3451 35.8363 61.3601 35.8588C61.3451 35.8363 61.3176 35.7913 61.3038 35.7688Z" fill="#E8B835"/>
<path d="M61.4349 35.9837C61.4462 36.0037 61.4687 36.0425 61.4799 36.0612C61.4687 36.0425 61.4462 36.0037 61.4349 35.9837Z" fill="#E8B835"/>
<path d="M61.6063 36.2825C61.6176 36.3025 61.6401 36.3425 61.6513 36.3625C61.6401 36.3425 61.6176 36.3025 61.6063 36.2825Z" fill="#E8B835"/>
<path d="M61.6512 36.3625C61.6625 36.3825 61.685 36.4213 61.6962 36.4413C61.685 36.4213 61.6625 36.3825 61.6512 36.3625Z" fill="#E8B835"/>
<path d="M61.8212 36.655C61.8262 36.665 61.8374 36.6838 61.8437 36.6925C61.8374 36.6838 61.8262 36.665 61.8212 36.655Z" fill="#E8B835"/>
<path d="M61.9575 36.8925C61.965 36.905 61.98 36.9312 61.9875 36.9437C61.98 36.9312 61.965 36.905 61.9575 36.8925Z" fill="#E8B835"/>
<path d="M62.1024 37.145C62.1162 37.1675 62.1424 37.2138 62.1562 37.2363C62.1424 37.2138 62.1162 37.1675 62.1024 37.145Z" fill="#E8B835"/>
<path d="M62.1562 37.2362C62.1675 37.2562 62.1912 37.2962 62.2025 37.3162C62.1912 37.2962 62.1675 37.2562 62.1562 37.2362Z" fill="#E8B835"/>
<path d="M54.5074 37.4688C57.6437 38.335 60.7212 39.4012 63.8487 40.3L63.8762 40.4025C60.3649 40.4825 56.8487 40.4163 53.3362 40.435C53.6224 39.9713 54.3174 39.88 54.4337 39.2988C54.5849 38.7013 54.4649 38.0775 54.5074 37.4688Z" fill="#E8B835"/>
<path d="M62.4662 37.7862C62.4787 37.8125 62.5037 37.865 62.5149 37.8912C62.5037 37.865 62.4787 37.8125 62.4662 37.7862Z" fill="#E8B835"/>
<path d="M62.5725 38.0213C62.5875 38.0463 62.6175 38.0975 62.6313 38.1225C62.6175 38.0975 62.5875 38.0463 62.5725 38.0213Z" fill="#E8B835"/>
<path d="M62.6312 38.1225C62.65 38.1475 62.6862 38.195 62.705 38.2187C62.6862 38.195 62.65 38.1475 62.6312 38.1225Z" fill="#E8B835"/>
<path d="M62.7913 38.3412C62.8063 38.365 62.8363 38.4125 62.8525 38.4375C62.8363 38.4125 62.8063 38.365 62.7913 38.3412Z" fill="#E8B835"/>
<path d="M62.9788 38.6562C62.99 38.6762 63.0125 38.7163 63.0238 38.7363C63.0125 38.7163 62.99 38.6762 62.9788 38.6562Z" fill="#E8B835"/>
<path d="M63.0237 38.7362C63.0349 38.7562 63.0574 38.795 63.0699 38.815C63.0574 38.795 63.0349 38.7562 63.0237 38.7362Z" fill="#E8B835"/>
<path d="M63.1951 39.03C63.2001 39.04 63.2101 39.0575 63.2151 39.0663C63.2101 39.0575 63.2001 39.04 63.1951 39.03Z" fill="#E8B835"/>
<path d="M63.3337 39.2738C63.3387 39.2825 63.3487 39.2988 63.3537 39.3075C63.3487 39.2988 63.3387 39.2825 63.3337 39.2738Z" fill="#E8B835"/>
<path d="M63.475 39.5188C63.4875 39.54 63.5125 39.5825 63.525 39.605C63.5125 39.5825 63.4875 39.54 63.475 39.5188Z" fill="#E8B835"/>
<path d="M63.525 39.605C63.5375 39.6262 63.5625 39.6687 63.5738 39.69C63.5625 39.6687 63.5375 39.6262 63.525 39.605Z" fill="#E8B835"/>
<path d="M63.6987 39.905C63.7037 39.9138 63.7125 39.9313 63.7175 39.94C63.7125 39.9313 63.7037 39.9138 63.6987 39.905Z" fill="#E8B835"/>
<path d="M63.85 40.1875C63.8663 40.2163 63.8975 40.2738 63.9138 40.3025L63.8488 40.3L63.85 40.1875Z" fill="#E8B835"/>
<path d="M18.5112 47.0088C19.7999 44.8113 21.0249 42.5725 22.3562 40.4013C28.8099 40.425 35.2649 40.365 41.7174 40.425L41.7999 40.4313C38.5362 40.5363 35.2637 40.4038 31.9999 40.4863C31.3774 40.8875 30.9624 41.5375 30.3662 41.975C29.8124 42.3788 29.4049 42.9413 28.8762 43.3725C28.1349 43.9188 27.5837 44.6763 26.8312 45.2113C25.9612 46.1325 24.9574 46.9088 24.0799 47.825C23.4224 48.33 22.8724 48.9538 22.2599 49.51C21.5862 49.9988 21.0699 50.6613 20.4399 51.2013C20.4237 51.215 20.3924 51.2425 20.3762 51.2575C20.3424 51.2838 20.2762 51.3388 20.2424 51.365C20.2262 51.3788 20.1962 51.4038 20.1799 51.4175C19.6837 51.8013 19.3037 52.3075 18.8162 52.7013C18.7999 52.715 18.7687 52.7413 18.7537 52.7538C18.7374 52.7675 18.7062 52.7938 18.6899 52.8063C17.9787 53.39 17.4087 54.1288 16.6624 54.6725C15.9112 55.4175 15.0637 56.0575 14.3499 56.8425C13.2949 57.71 12.3824 58.7338 11.2949 59.565C11.5649 58.9763 11.9224 58.4363 12.2362 57.8725C14.3287 54.2513 16.4187 50.63 18.5112 47.0088Z" fill="#296AD9"/>
<path d="M11.24 59.645C11.2537 59.625 11.2812 59.585 11.295 59.565L11.2912 59.6462L11.24 59.645Z" fill="#296AD9"/>
<path d="M41.8 40.4313C45.645 40.4475 49.49 40.4363 53.3363 40.435C56.8488 40.4163 60.365 40.4825 63.8763 40.4025L63.95 40.3975L64 40.4113V40.4213C60.2925 46.83 56.5963 53.2463 52.8888 59.6563C39.0225 59.6525 25.1563 59.6688 11.2913 59.6463L11.295 59.565C12.3825 58.7338 13.295 57.71 14.35 56.8425C15.0638 56.0575 15.9113 55.4175 16.6625 54.6725C17.4088 54.1288 17.9788 53.39 18.69 52.8063C18.7063 52.7938 18.7375 52.7675 18.7538 52.7538C18.7688 52.7413 18.8 52.715 18.8163 52.7013C19.3038 52.3075 19.6838 51.8013 20.18 51.4175C20.1963 51.4038 20.2263 51.3788 20.2425 51.365C20.2763 51.3388 20.3425 51.2838 20.3763 51.2575C20.3925 51.2425 20.4238 51.215 20.44 51.2013C21.07 50.6613 21.5863 49.9988 22.26 49.51C22.8725 48.9538 23.4225 48.33 24.08 47.825C24.9575 46.9088 25.9613 46.1325 26.8313 45.2113C27.5838 44.6763 28.135 43.9188 28.8763 43.3725C29.405 42.9413 29.8125 42.3788 30.3663 41.975C30.9625 41.5375 31.3775 40.8875 32 40.4863C35.2638 40.4038 38.5363 40.5363 41.8 40.4313Z" fill="#2A71E9"/>
<path d="M20.3762 51.2575C20.3925 51.2425 20.4237 51.215 20.44 51.2012C20.4237 51.215 20.3925 51.2425 20.3762 51.2575Z" fill="#286EE6"/>
<path d="M20.2424 51.365C20.2762 51.3387 20.3424 51.2837 20.3762 51.2575C20.3424 51.2837 20.2762 51.3387 20.2424 51.365Z" fill="#286EE6"/>
<path d="M20.1799 51.4175C20.1962 51.4038 20.2262 51.3788 20.2424 51.365C20.2262 51.3788 20.1962 51.4038 20.1799 51.4175Z" fill="#286EE6"/>
<path d="M18.7537 52.7538C18.7687 52.7413 18.7999 52.715 18.8162 52.7012C18.7999 52.715 18.7687 52.7413 18.7537 52.7538Z" fill="#286EE6"/>
<path d="M18.6901 52.8062C18.7063 52.7937 18.7376 52.7675 18.7538 52.7537C18.7376 52.7675 18.7063 52.7937 18.6901 52.8062Z" fill="#286EE6"/>
</svg>
