<svg width="60" height="60" viewBox="0 0 60 60" fill="none" xmlns="http://www.w3.org/2000/svg">
<g clip-path="url(#clip0_2223_250)">
<path d="M13.2256 31.0473V33.2993C13.1698 33.3069 13.1192 33.3198 13.0686 33.3198C12.3727 33.321 11.6756 33.3422 10.9809 33.3157C8.9032 33.2362 7.26363 32.3275 6.0734 30.6305C5.20884 29.3977 4.88397 28.0051 5.03616 26.5197C5.31324 23.8164 7.30298 21.6636 9.97618 21.1235C12.9048 20.5316 15.8422 22.1194 16.9461 24.893C17.2256 25.5949 17.3737 26.3238 17.3737 27.0807C17.3737 29.0483 17.4051 31.0164 17.3613 32.9828C17.3119 35.1995 16.2956 36.9049 14.4347 38.0975C13.5818 38.6441 12.6353 38.934 11.621 38.9898C9.84165 39.0878 8.31732 38.4975 7.02309 37.2872C7.00422 37.2695 6.99056 37.2462 6.98494 37.2386C7.52384 36.7021 8.05711 36.1712 8.59561 35.6352C8.7217 35.738 8.86586 35.8681 9.02166 35.9813C11.3559 37.6763 14.4636 36.2793 15.0202 33.6358C15.0776 33.3635 15.1009 33.0796 15.1017 32.8009C15.1085 30.9473 15.1053 29.0933 15.1053 27.2397C15.1053 25.3628 13.8934 23.8252 12.0659 23.3831C9.94767 22.8707 7.75474 24.2947 7.36964 26.4334C6.97531 28.6219 8.38679 30.6421 10.5821 30.9943C11.0271 31.0658 11.4889 31.0381 11.943 31.0461C12.3631 31.0537 12.7839 31.0477 13.226 31.0477L13.2256 31.0473Z" fill="#F55036"/>
<path d="M54.3138 38.7008C53.5766 38.7008 52.8746 38.7032 52.1727 38.6952C52.1265 38.6948 52.0647 38.6237 52.0406 38.5715C52.0177 38.5217 52.0338 38.4535 52.0338 38.3932C52.0346 34.5591 52.045 30.7246 52.0277 26.8905C52.0241 26.1002 51.696 25.3943 51.1969 24.7831C50.3681 23.7683 49.2851 23.2813 47.98 23.3254C46.1778 23.3865 44.6185 24.8056 44.3511 26.6006C44.0286 28.7654 45.4919 30.7302 47.6616 31.041C47.8394 31.0667 48.0214 31.0736 48.2013 31.0748C48.8237 31.0788 49.4457 31.076 50.0681 31.0772C50.1601 31.0772 50.2629 31.0607 50.2617 31.2093C50.2572 31.9048 50.2564 32.6007 50.2532 33.2962C50.2532 33.3078 50.242 33.3191 50.2235 33.356H49.9215C49.3329 33.356 48.7438 33.356 48.1551 33.356C45.2036 33.3536 42.6581 31.2318 42.124 28.3281C41.508 24.9779 43.6427 21.8007 47.0026 21.1506C50.4914 20.4755 53.5806 22.8026 54.1905 26.001C54.2701 26.4179 54.3074 26.8491 54.3086 27.274C54.3174 30.9876 54.3138 34.7017 54.3138 38.4153V38.7008Z" fill="#F55036"/>
<path d="M34.5456 21.0382C37.9421 21.0326 40.7943 23.835 40.7 27.3849C40.612 30.6937 37.8433 33.5034 34.2589 33.3553C30.9914 33.2199 28.3222 30.4865 28.3781 27.0853C28.4331 23.7419 31.201 21.0105 34.5456 21.0382ZM30.6621 27.2054C30.6633 29.326 32.4113 31.0816 34.5312 31.0748C36.655 31.0684 38.4123 29.3935 38.4127 27.2009C38.4131 24.9891 36.6422 23.3291 34.5364 23.3211C32.4061 23.3126 30.6605 25.0715 30.6621 27.2054Z" fill="#F55036"/>
<path d="M21.4641 33.1047H19.1788C19.1727 33.0569 19.1639 33.0188 19.1639 32.9806C19.1611 30.86 19.1213 28.7385 19.1687 26.6191C19.2121 24.6663 20.1136 23.1424 21.7383 22.0626C22.6924 21.4281 23.755 21.1149 24.9014 21.041C26.0314 20.9679 27.0903 21.1863 28.0986 21.6855C28.1878 21.7297 28.2741 21.7803 28.3814 21.8385C28.3436 21.9096 28.3119 21.9726 28.2769 22.034C27.9673 22.5729 27.6533 23.1094 27.3505 23.6519C27.2759 23.7857 27.2156 23.8065 27.0727 23.7371C25.5764 23.0102 23.7313 23.2725 22.5173 24.3944C21.8178 25.0409 21.4829 25.867 21.4753 26.8094C21.4592 28.8228 21.4669 30.8367 21.4649 32.8501C21.4649 32.9288 21.4649 33.0075 21.4649 33.1043L21.4641 33.1047Z" fill="#F55036"/>
</g>
<defs>
<clipPath id="clip0_2223_250">
<rect width="49.3146" height="18" fill="white" transform="translate(5 21)"/>
</clipPath>
</defs>
</svg>
