<svg width="60" height="60" viewBox="0 0 60 60" fill="none" xmlns="http://www.w3.org/2000/svg">
<path d="M53.7817 28.5593C52.4885 26.3536 50.6438 24.5221 48.4288 23.2448C46.7699 22.2618 44.9297 21.6238 43.0184 21.3689V14.3382C43.9754 13.9414 44.7915 13.2667 45.3612 12.4014C45.9308 11.536 46.228 10.5197 46.2141 9.4838C46.2316 8.77259 46.1065 8.06508 45.8464 7.40293C45.5863 6.74077 45.1963 6.13735 44.6994 5.62818C44.2026 5.11901 43.6089 4.71437 42.9533 4.4381C42.2977 4.16183 41.5934 4.01952 40.882 4.01952C40.1706 4.01952 39.4664 4.16183 38.8108 4.4381C38.1552 4.71437 37.5615 5.11901 37.0646 5.62818C36.5678 6.13735 36.1778 6.74077 35.9176 7.40293C35.6575 8.06508 35.5325 8.77259 35.5499 9.4838C35.5212 10.5136 35.8042 11.5281 36.3619 12.3943C36.9196 13.2605 37.726 13.9381 38.6753 14.3382V21.3689C37.0378 21.6079 35.4487 22.1063 33.968 22.8453C30.916 20.5284 20.9069 12.9224 15.0522 8.48033C15.2059 7.97435 15.2887 7.44951 15.2983 6.92079C15.2977 5.75211 14.9505 4.60986 14.3007 3.63849C13.6509 2.66711 12.7276 1.91024 11.6476 1.46358C10.5677 1.01693 9.37951 0.900564 8.23341 1.12918C7.0873 1.3578 6.03472 1.92114 5.20878 2.74798C4.38284 3.57481 3.82064 4.62799 3.59326 5.77434C3.36589 6.92069 3.48355 8.10873 3.93137 9.18821C4.37919 10.2677 5.13706 11.1901 6.10913 11.8389C7.08121 12.4877 8.22383 12.8336 9.39252 12.833C10.4634 12.8286 11.5125 12.5301 12.4253 11.9701L13.6589 12.9065L30.638 25.1399C29.7187 25.9694 28.9108 26.9147 28.2348 27.9522C26.8433 30.0535 26.0856 32.5107 26.0521 35.0308V35.5677C26.0586 37.3135 26.3734 39.0445 26.982 40.6809C27.4974 42.0722 28.2405 43.3681 29.1807 44.5158L23.5466 50.1627C22.9207 49.9351 22.2527 49.8472 21.5892 49.9053C20.9258 49.9633 20.2832 50.1658 19.7063 50.4986C19.1295 50.8314 18.6325 51.2864 18.2502 51.8316C17.8679 52.3769 17.6095 52.9992 17.4933 53.655C17.3771 54.3107 17.4058 54.9839 17.5774 55.6274C17.749 56.2708 18.0593 56.8689 18.4866 57.3797C18.9139 57.8905 19.4478 58.3015 20.0509 58.584C20.6539 58.8665 21.3115 59.0136 21.9775 59.015C22.695 59.0149 23.4023 58.846 24.0424 58.5217C24.6824 58.1974 25.2371 57.727 25.6616 57.1485C26.086 56.57 26.3683 55.8997 26.4855 55.1919C26.6028 54.484 26.5517 53.7585 26.3365 53.0741L32.1656 47.2322C32.9785 47.7884 33.8445 48.2626 34.7509 48.6479C36.6652 49.4879 38.7324 49.9231 40.8229 49.9263H41.2064C43.6749 49.9284 46.1031 49.3005 48.2612 48.1021C50.4193 46.9036 52.2358 45.1743 53.5389 43.0777C54.9144 40.926 55.6442 38.4251 55.6417 35.8713V35.7402C55.6712 33.2228 55.0292 30.743 53.7817 28.5561V28.5593ZM46.6648 40.78C45.0669 42.5344 43.2677 43.6178 41.2128 43.6178H40.8868C39.6811 43.5984 38.4985 43.2847 37.4418 42.7038C36.2152 42.0643 35.1757 41.1173 34.425 39.9554C33.623 38.8713 33.1834 37.5617 33.169 36.2132V35.8105C33.1442 34.5136 33.4488 33.2315 34.0543 32.0843C34.7056 30.8315 35.6742 29.7714 36.8633 29.0099C38.0132 28.2362 39.3699 27.8275 40.7558 27.8371H40.8868C42.1536 27.827 43.4043 28.1219 44.5332 28.6968C45.699 29.3089 46.689 30.2087 47.4094 31.3109C48.1195 32.4179 48.5575 33.6773 48.6877 34.986C48.7068 35.2609 48.7196 35.5421 48.7196 35.8137C48.7196 37.613 48.0325 39.2811 46.6552 40.7959L46.6648 40.78Z" fill="#F8761F"/>
</svg>
