<svg width="61" height="60" viewBox="0 0 61 60" fill="none" xmlns="http://www.w3.org/2000/svg">
<path d="M43.7856 16.9995V22.1997H48.9858V32.6001H38.5854V27.3999H33.3852V37.8003H48.9858V43.0005H54.186V16.9995H43.7856ZM38.5854 22.1997V27.3999H43.7856V22.1997H38.5854ZM33.3852 43.0005V37.8003H28.185V43.0005H33.3852Z" fill="#F6F6F6"/>
<path fill-rule="evenodd" clip-rule="evenodd" d="M41.1969 14.4108H56.7747V45.5892H46.3972V40.389H35.9739V45.5892H25.5963V35.2117H30.7965V24.8112H35.9967V19.611H41.1969V14.4108ZM43.7856 22.1997V16.9995H54.186V43.0005H48.9858V37.8003H33.3852V27.3999H38.5854V32.6001H48.9858V22.1997H43.7856ZM46.3972 24.7884H46.3743V29.9886H41.1741V30.0115H46.3972V24.7884ZM38.5854 27.3999H43.7856V22.1997H38.5854V27.3999ZM33.3852 37.8003H28.185V43.0005H33.3852V37.8003Z" fill="#2B2B2B"/>
<path d="M48.9856 22.2001H54.186V32.5991H48.9856V22.2001Z" fill="#40A8F5"/>
<path fill-rule="evenodd" clip-rule="evenodd" d="M48.9856 30.0104V32.5991H54.186V30.0104H48.9856Z" fill="#2B2B2B"/>
<path d="M43.7464 16.9992H54.186L54.186 22.2001H43.7464V16.9992Z" fill="#40A8F5"/>
<path d="M38.587 32.5949H43.7464V37.8003H38.587V32.5949Z" fill="#FFDF3A"/>
<path fill-rule="evenodd" clip-rule="evenodd" d="M41.1577 37.8003H43.7464V32.5949H41.1577V37.8003Z" fill="#2B2B2B"/>
<path d="M33.3846 27.3997H38.587V37.7977H33.3846V27.3997Z" fill="#FFDF3A"/>
<path d="M28.185 37.7977L33.3846 37.7977V43.0005L28.185 43.0005L28.185 37.7977Z" fill="#28F67E"/>
<path fill-rule="evenodd" clip-rule="evenodd" d="M24.2579 14.4088V24.7948H19.0309V35.2053H24.2579V45.5913H3.45508V35.2053H8.64495V24.7948H3.45508V14.4088H24.2579ZM21.6413 17.0254V22.1781H16.4143V37.8219H21.6413V42.9747H6.07168V37.8219H11.2615V22.1781H6.07168V17.0254H21.6413Z" fill="#2B2B2B"/>
<path d="M11.2539 24.7932H16.4561V35.2047H11.2539V24.7932Z" fill="#28F67E"/>
<path fill-rule="evenodd" clip-rule="evenodd" d="M16.4561 22.1766V24.7932H11.2539V22.1766H16.4561ZM11.2539 35.2047V37.8212H16.4561V35.2047H11.2539Z" fill="#2B2B2B"/>
</svg>
