<svg width="61" height="60" viewBox="0 0 61 60" fill="none" xmlns="http://www.w3.org/2000/svg">
<path d="M53.0165 5.1499H28.8882C28.8882 11.1471 33.7696 16.0286 39.7668 16.0286H44.2299V20.2824C44.2299 26.2796 49.1113 31.1611 55.1085 31.1611V7.24195C55.1085 6.05646 54.1323 5.1499 53.0165 5.1499Z" fill="#0082FF"/>
<path d="M41.0916 17.1445H16.9633C16.9633 23.1417 21.8447 28.0231 27.8419 28.0231H32.305V32.3467C32.305 38.3439 37.1864 43.2254 43.1836 43.2254V19.3063C43.1836 18.1208 42.2073 17.1445 41.0916 17.1445Z" fill="url(#paint0_linear_2056_350)"/>
<path d="M29.1671 29.1387H5.03882C5.03882 35.1359 9.92027 40.0174 15.9175 40.0174H20.3108V44.2712C20.3108 50.2684 25.1922 55.1499 31.1894 55.1499V31.161C31.2592 30.115 30.2829 29.1387 29.1671 29.1387Z" fill="url(#paint1_linear_2056_350)"/>
<defs>
<linearGradient id="paint0_linear_2056_350" x1="42.6485" y1="17.1952" x2="32.3905" y2="27.774" gradientUnits="userSpaceOnUse">
<stop offset="0.18" stop-color="#0050D3"/>
<stop offset="1" stop-color="#0082FF"/>
</linearGradient>
<linearGradient id="paint1_linear_2056_350" x1="31.3968" y1="29.2764" x2="19.5349" y2="40.8175" gradientUnits="userSpaceOnUse">
<stop offset="0.18" stop-color="#0050D3"/>
<stop offset="1" stop-color="#0082FF"/>
</linearGradient>
</defs>
</svg>
