<svg width="60" height="60" viewBox="0 0 60 60" fill="none" xmlns="http://www.w3.org/2000/svg">
<path fill-rule="evenodd" clip-rule="evenodd" d="M39.0884 40.446C36.0587 41.6528 32.6996 41.741 29.6116 40.6948C26.5237 39.6485 23.9097 37.5363 22.2384 34.7369C20.5671 31.9377 19.9478 28.6344 20.4917 25.4197C21.0356 22.2052 22.707 19.2895 25.2061 17.1958C27.7051 15.1021 30.8687 13.9674 34.1289 13.9952C37.3891 14.023 40.5328 15.2115 42.9957 17.3474C45.4586 19.4834 47.0812 22.4271 47.57 25.6505C48.0589 28.874 47.3838 32.1661 45.6646 34.9366L49.6819 38.9543C48.0136 41.2898 45.8453 43.2261 43.3343 44.622L50.212 51.4999L56.3669 45.2462L49.8601 38.7393C52.5012 34.9284 53.6798 30.2898 53.1755 25.6748C52.6611 20.9661 50.431 16.6119 46.9101 13.4438C43.388 10.2758 38.823 8.51577 34.087 8.50005C29.3497 8.48432 24.7743 10.214 21.2318 13.3586C17.6895 16.5032 15.4299 20.8424 14.8842 25.5477C14.3387 30.2528 15.5453 34.9939 18.2739 38.8658C21.0024 42.7375 25.0618 45.4685 29.6756 46.5372C34.2907 47.6058 39.1373 46.9371 43.2902 44.6589L39.0884 40.446ZM11.2626 14.755C11.2554 15.7667 10.8468 16.7342 10.1263 17.4445C9.40593 18.1548 8.43277 18.5499 7.42108 18.5428C6.40938 18.5356 5.44192 18.1269 4.73157 17.4065C4.02122 16.686 3.62617 15.7129 3.63327 14.7012C3.63327 12.6746 5.34065 11.0211 7.52862 11.0211C8.51518 11.0332 9.45796 11.4304 10.1556 12.1281C10.8533 12.8257 11.2505 13.7685 11.2626 14.755ZM10.4538 46.4523H4.37226V22.8111H10.4538V46.4523Z" fill="#00D586"/>
</svg>
