<?xml version="1.0" encoding="UTF-8" standalone="no"?><!-- Generator: Gravit.io --><svg xmlns="http://www.w3.org/2000/svg" xmlns:xlink="http://www.w3.org/1999/xlink" style="isolation:isolate" viewBox="0 0 24 24" width="24pt" height="24pt"><g><path d=" M 11.234 4.333 C 13.317 4.366 15.14 5.057 16.661 6.496 C 17.88 7.648 18.631 9.059 18.93 10.708 C 19.012 11.157 19.05 11.613 19.041 12.07 C 19.004 13.925 18.394 15.567 17.174 16.97 C 15.992 18.33 14.508 19.193 12.739 19.518 C 10.354 19.957 8.189 19.424 6.273 17.923 C 5.875 17.612 5.53 17.243 5.17 16.89 Q 4.008 15.75 2.848 14.607 Q 1.797 13.574 0.744 12.541 C 0.419 12.219 0.418 11.774 0.744 11.453 Q 1.825 10.387 2.909 9.326 C 3.588 8.659 4.263 7.989 4.947 7.329 C 5.401 6.89 5.831 6.425 6.329 6.032 Q 7.817 4.86 9.675 4.489 C 10.188 4.385 10.711 4.333 11.234 4.333 L 11.234 4.333 Z  M 17.254 12.003 C 17.246 11.67 17.219 11.343 17.157 11.019 C 16.853 9.428 16.017 8.185 14.665 7.306 C 13.361 6.458 11.928 6.194 10.399 6.484 C 9.299 6.692 8.34 7.186 7.53 7.96 C 6.995 8.471 6.47 8.993 5.941 9.512 Q 4.878 10.554 3.817 11.599 C 3.573 11.839 3.574 12.154 3.816 12.394 C 4.163 12.738 4.513 13.078 4.861 13.421 Q 6.135 14.673 7.408 15.925 Q 9.255 17.733 11.838 17.615 C 12.749 17.573 13.608 17.33 14.391 16.864 C 16.231 15.768 17.171 14.135 17.254 12.003 L 17.254 12.003 Z  M 21.049 11.998 C 21.05 11.161 20.967 10.332 20.782 9.514 C 20.777 9.489 20.772 9.464 20.769 9.439 C 20.76 9.362 20.786 9.301 20.852 9.26 C 20.921 9.216 20.991 9.214 21.058 9.261 C 21.086 9.282 21.112 9.306 21.136 9.332 Q 22.189 10.384 23.241 11.437 C 23.587 11.783 23.586 12.223 23.24 12.57 Q 22.19 13.619 21.141 14.668 C 21.123 14.686 21.106 14.705 21.087 14.722 C 21.018 14.786 20.939 14.799 20.859 14.751 C 20.784 14.706 20.751 14.639 20.771 14.548 C 20.844 14.208 20.908 13.867 20.953 13.523 C 21.007 13.115 21.042 12.706 21.049 12.294 C 21.05 12.195 21.049 12.097 21.049 11.998 L 21.049 11.998 Z " fill="rgb(51,181,241)"/><path d=" M 15.385 11.999 C 15.381 14.095 13.724 15.811 11.607 15.845 C 9.408 15.881 7.767 14.129 7.7 12.141 C 7.626 9.961 9.363 8.204 11.455 8.16 C 13.562 8.115 15.374 9.794 15.385 11.999 L 15.385 11.999 Z " fill="rgb(51,181,241)"/></g></svg>