<svg width="60" height="60" viewBox="0 0 60 60" fill="none" xmlns="http://www.w3.org/2000/svg">
<path d="M53.3987 4H42.9988V14.4H53.3987V4Z" fill="black"/>
<path d="M58.5988 4H48.1989V14.4H58.5988V4Z" fill="#FFCD02"/>
<path d="M11.7986 4H1.39868V14.4H11.7986V4Z" fill="black"/>
<path d="M11.7986 14.3999H1.39868V24.7999H11.7986V14.3999Z" fill="black"/>
<path d="M11.7986 24.8H1.39868V35.2H11.7986V24.8Z" fill="black"/>
<path d="M11.7986 35.2H1.39868V45.5999H11.7986V35.2Z" fill="black"/>
<path d="M11.7986 45.5999H1.39868V55.9999H11.7986V45.5999Z" fill="black"/>
<path d="M16.9986 4H6.59863V14.4H16.9986V4Z" fill="#FFCD02"/>
<path d="M58.5988 14.4H48.1989V24.8H58.5988V14.4Z" fill="#FDA302"/>
<path d="M16.9986 14.4H6.59863V24.8H16.9986V14.4Z" fill="#FDA302"/>
<path d="M42.9987 14.4H32.5988V24.8H42.9987V14.4Z" fill="black"/>
<path d="M48.1988 14.4001H37.7988V24.8001H48.1988V14.4001Z" fill="#FDA302"/>
<path d="M27.3997 14.4001H16.9998V24.8001H27.3997V14.4001Z" fill="#FDA302"/>
<path d="M37.7988 24.8H27.3988V35.2H37.7988V24.8Z" fill="#FF6E00"/>
<path d="M48.1988 24.8H37.7988V35.2H48.1988V24.8Z" fill="#FF6E00"/>
<path d="M27.3997 24.8H16.9998V35.2H27.3997V24.8Z" fill="#FF6E00"/>
<path d="M32.5987 35.2H22.1987V45.6H32.5987V35.2Z" fill="black"/>
<path d="M37.7988 35.2H27.3988V45.5999H37.7988V35.2Z" fill="#FF480D"/>
<path d="M58.5988 24.8H48.1989V35.2H58.5988V24.8Z" fill="#FF6E00"/>
<path d="M16.9986 24.8H6.59863V35.2H16.9986V24.8Z" fill="#FF6E00"/>
<path d="M53.3987 35.2H42.9988V45.6H53.3987V35.2Z" fill="black"/>
<path d="M58.5988 35.1999H48.1989V45.5999H58.5988V35.1999Z" fill="#FF480D"/>
<path d="M53.3987 45.6H42.9988V56H53.3987V45.6Z" fill="black"/>
<path d="M16.9986 35.2H6.59863V45.6H16.9986V35.2Z" fill="#FF480D"/>
<path d="M58.5988 45.5999H48.1989V55.9999H58.5988V45.5999Z" fill="#FF0511"/>
<path d="M16.9986 45.5999H6.59863V55.9999H16.9986V45.5999Z" fill="#FF0511"/>
</svg>
