<svg width="64" height="64" viewBox="0 0 64 64" fill="none" xmlns="http://www.w3.org/2000/svg">
<path d="M37.4136 9.39536C34.9516 6.54748 32.8303 3.6349 32.3996 3.03722C32.3906 3.0246 32.3787 3.01428 32.3648 3.00715C32.3509 3.00003 32.3355 2.99631 32.3198 2.99631C32.3042 2.99631 32.2887 3.00003 32.2748 3.00716C32.261 3.01429 32.249 3.02461 32.2401 3.03724C31.8095 3.63493 29.6887 6.54749 27.2268 9.39536C6.12525 35.7464 30.5573 53.525 30.5573 53.525L30.7553 53.66C30.9406 56.4106 31.4008 60.3637 31.4008 60.3637H33.2395C33.2395 60.3637 33.6977 56.4276 33.8837 53.6778L34.083 53.525C34.083 53.525 58.5149 35.7464 37.4136 9.39536ZM32.3202 53.1387C32.3202 53.1387 31.2247 52.2229 30.9291 51.764L30.9264 51.7147L32.2513 23.026C32.2521 23.0086 32.2597 22.9922 32.2725 22.9802C32.2853 22.9682 32.3024 22.9614 32.3201 22.9614C32.3379 22.9614 32.3549 22.9682 32.3677 22.9802C32.3806 22.9922 32.3882 23.0086 32.389 23.026L33.7138 51.7146L33.7112 51.7639C33.4158 52.2226 32.3202 53.1387 32.3202 53.1387Z" fill="#00684A"/>
</svg>
