<svg width="60" height="60" viewBox="0 0 60 60" fill="none" xmlns="http://www.w3.org/2000/svg">
<path d="M17.187 0.0168578C16.6271 0.107302 15.9553 0.400166 15.4815 0.761945C14.0473 1.85158 12.9362 4.16437 12.4667 7.04564C12.2901 8.13527 12.1696 9.647 12.1696 10.8013C12.1696 12.1622 12.3289 13.9022 12.5572 15.1038C12.6089 15.3708 12.6347 15.6077 12.6132 15.6249C12.5959 15.6422 12.3849 15.8144 12.148 16.0039C11.3383 16.6499 10.4124 17.6448 9.77494 18.5536C8.55179 20.2893 7.75933 22.2618 7.4277 24.398C7.29849 25.2422 7.26404 26.9477 7.3674 27.7918C7.59567 29.7385 8.1814 31.3837 9.1849 32.8912L9.51222 33.3778L9.41747 33.5372C8.7456 34.6656 8.17279 36.2979 7.90576 37.8656C7.69473 39.1059 7.66888 39.4376 7.66888 41.1C7.66888 42.7754 7.69042 43.107 7.88853 44.2656C8.12541 45.6524 8.60778 47.121 9.14614 48.0987C9.32272 48.4174 9.75341 49.0806 9.80509 49.1151C9.82232 49.1237 9.77063 49.283 9.6888 49.4682C9.06861 50.8249 8.53887 52.6295 8.31922 54.1499C8.16417 55.1921 8.14264 55.528 8.14264 56.6263C8.14264 58.026 8.22016 58.7065 8.51303 59.822L8.5561 59.9856H10.3994H12.2471L12.1265 59.7573C11.3814 58.3792 11.3125 55.8209 11.9542 53.2669C12.2471 52.0868 12.5787 51.2212 13.1989 50.0281L13.5693 49.3046V48.861C13.5693 48.4475 13.5607 48.4002 13.4272 48.1289C13.3238 47.9221 13.186 47.7455 12.9405 47.5043C12.5227 47.0995 12.2212 46.6731 11.9801 46.1477C10.9206 43.8478 10.7138 40.4325 11.4589 37.521C11.769 36.3065 12.2815 35.2255 12.8199 34.6355C13.186 34.2306 13.3755 33.7784 13.3755 33.3089C13.3755 32.8222 13.2032 32.4217 12.8156 32.004C11.7044 30.8153 11.0196 29.3681 10.7741 27.6842C10.4253 25.2852 11.0584 22.6709 12.4969 20.5994C13.9052 18.5665 15.8821 17.2615 18.0915 16.9127C18.5868 16.8308 19.5128 16.8438 20.0296 16.9385C20.5938 17.0376 20.9469 17.0074 21.3088 16.8351C21.7566 16.6241 21.9806 16.3614 22.2433 15.7584C22.4759 15.2201 22.6568 14.9272 23.1435 14.32C23.7292 13.5921 24.2934 13.0968 25.1978 12.4981C26.2315 11.822 27.4073 11.331 28.5787 11.0941C29.0051 11.008 29.2032 10.995 30 10.995C30.7968 10.995 30.9949 11.008 31.4212 11.0941C33.1396 11.443 34.8452 12.3302 36.2062 13.5878C36.499 13.8591 37.201 14.7291 37.425 15.0909C37.5111 15.233 37.6619 15.5345 37.7566 15.7584C38.0193 16.3614 38.2433 16.6241 38.6912 16.8351C39.0401 17.0031 39.4061 17.0376 39.9488 16.9471C40.8059 16.8007 41.4648 16.8136 42.3047 16.9859C45.1644 17.563 47.6538 19.9189 48.7564 23.0758C49.7168 25.8451 49.4454 28.7437 48.0156 30.9573C47.7744 31.3321 47.5332 31.6336 47.1843 32.004C46.4306 32.8093 46.4306 33.8085 47.1801 34.6355C48.4118 35.9835 49.1828 39.2998 48.9501 42.2241C48.7951 44.1536 48.2998 45.8807 47.6193 46.8583C47.4988 47.0306 47.249 47.3234 47.0594 47.5043C46.814 47.7455 46.6762 47.9221 46.5728 48.1289C46.4393 48.4002 46.4306 48.4475 46.4306 48.861V49.3046L46.801 50.0281C47.4213 51.2212 47.7529 52.0868 48.0457 53.2669C48.6789 55.7864 48.6229 58.293 47.8993 59.7186C47.839 59.8392 47.7873 59.9512 47.7873 59.9641C47.7873 59.977 48.6099 59.9856 49.6177 59.9856H51.4439L51.4912 59.8004C51.5171 59.7014 51.5601 59.5506 51.5816 59.4645C51.6291 59.275 51.7238 58.7151 51.8013 58.1767C51.8745 57.6341 51.8745 55.6357 51.8013 55.0327C51.5257 52.8448 51.0648 51.1092 50.3112 49.4682C50.2293 49.283 50.1776 49.1237 50.1948 49.1151C50.2164 49.1022 50.337 48.9299 50.4662 48.7361C51.4051 47.3148 51.9822 45.5275 52.2751 43.1673C52.3526 42.517 52.3526 39.7218 52.2751 39.0973C52.0683 37.4866 51.8185 36.3926 51.4051 35.2858C51.2328 34.8249 50.7763 33.8516 50.5825 33.5372L50.4877 33.3778L50.8151 32.8912C51.8185 31.3837 52.4043 29.7385 52.6325 27.7918C52.7359 26.9477 52.7015 25.2422 52.5723 24.398C52.2363 22.2575 51.4481 20.2936 50.225 18.5536C49.5876 17.6448 48.6616 16.6499 47.8519 16.0039C47.615 15.8144 47.404 15.6422 47.3868 15.6249C47.3653 15.6077 47.3911 15.3708 47.4428 15.1038C47.9639 12.3861 47.9466 8.9967 47.3997 6.34795C46.9259 4.03947 46.0646 2.20474 44.9534 1.14526C44.0662 0.30111 43.1618 -0.0606669 42.0764 0.00824291C39.587 0.154676 37.5801 3.01874 36.7876 7.53232C36.6584 8.26019 36.5464 9.11298 36.5464 9.34553C36.5464 9.43595 36.5292 9.50916 36.5077 9.50916C36.4861 9.50916 36.3182 9.42302 36.1373 9.31539C34.2164 8.17834 32.0802 7.5711 30 7.5711C27.9198 7.5711 25.7835 8.17834 23.8627 9.31539C23.6818 9.42302 23.5139 9.50916 23.4923 9.50916C23.4708 9.50916 23.4535 9.43595 23.4535 9.34553C23.4535 9.10433 23.3372 8.22576 23.2124 7.53232C22.4931 3.47957 20.8436 0.796399 18.6514 0.12022C18.3499 0.0297761 17.4929 -0.0305176 17.187 0.0168578ZM17.9192 3.52265C18.5394 4.01363 19.2285 5.41766 19.6247 6.98967C19.698 7.27391 19.7755 7.60124 19.797 7.7218C19.8142 7.83815 19.8616 8.10084 19.9004 8.30326C20.0684 9.21632 20.1458 10.2026 20.1545 11.4042L20.1588 12.5886L19.8616 13.0279L19.5645 13.4715H18.871C18.0614 13.4715 17.2559 13.5749 16.485 13.7816C16.2094 13.8505 15.9423 13.9194 15.8907 13.9324C15.8088 13.9496 15.7959 13.9237 15.7486 13.5705C15.4944 11.654 15.5074 9.53073 15.7873 7.76487C16.0974 5.79667 16.821 4.01363 17.5273 3.48819C17.6953 3.36329 17.7254 3.3676 17.9192 3.52265ZM42.4769 3.49249C42.9033 3.8069 43.3728 4.64243 43.7216 5.71053C44.4236 7.84672 44.6218 10.7797 44.2514 13.5705C44.204 13.9237 44.1911 13.9496 44.1092 13.9324C44.0576 13.9194 43.7906 13.8505 43.5149 13.7816C42.744 13.5749 41.9386 13.4715 41.1289 13.4715H40.4355L40.1384 13.0279L39.8412 12.5886L39.8455 11.4042C39.8541 9.73314 40.0092 8.42817 40.3795 6.97675C40.7714 5.41766 41.4648 4.01363 42.0807 3.52265C42.2745 3.3676 42.3047 3.36329 42.4769 3.49249Z" fill="black"/>
<path d="M29.3323 25.1689C28.3977 25.2594 28.1436 25.2938 27.6957 25.3843C26.9678 25.535 25.9945 25.871 25.3183 26.2026C22.9668 27.3525 21.3474 29.2691 20.8521 31.4871C20.753 31.9264 20.7401 32.0728 20.7401 32.8136C20.7401 33.5458 20.753 33.7051 20.8478 34.1229C21.5068 37.0214 24.177 39.162 27.6311 39.5539C28.3805 39.6357 31.6193 39.6357 32.3687 39.5539C35.1423 39.2395 37.5283 37.7364 38.6007 35.626C38.8849 35.0618 39.0228 34.6957 39.152 34.1229C39.2467 33.7051 39.2597 33.5458 39.2597 32.8136C39.2597 32.0728 39.2467 31.9264 39.1477 31.4871C38.4284 28.2656 35.3016 25.7288 31.4685 25.2465C30.9689 25.1862 29.6597 25.1345 29.3323 25.1689ZM30.9431 27.5118C32.2222 27.6497 33.51 28.1062 34.5436 28.7953C35.0992 29.1657 35.8831 29.9409 36.219 30.4492C36.6325 31.0779 36.8693 31.7196 36.977 32.4992C37.0244 32.8567 36.9986 33.128 36.8693 33.7051C36.6669 34.5665 36.0381 35.4666 35.1896 36.0954C34.7934 36.384 33.9708 36.8018 33.4669 36.9654C32.5108 37.2712 31.8863 37.3272 29.6553 37.31C28.1996 37.297 27.9412 37.2841 27.5234 37.2066C26.0979 36.9396 24.9695 36.371 24.1512 35.5054C23.4879 34.8077 23.1864 34.1703 23.0228 33.141C22.9496 32.6629 23.0873 31.8704 23.3673 31.2028C23.7076 30.3888 24.5862 29.3768 25.4562 28.7953C26.4639 28.1234 27.7905 27.6454 29.0093 27.5162C29.4788 27.4645 30.4736 27.4645 30.9431 27.5118Z" fill="black"/>
<path d="M28.3548 30.6559C28.0275 30.8325 27.7992 31.2804 27.8682 31.612C27.9456 31.9695 28.26 32.3313 28.751 32.6285C29.0138 32.7878 29.031 32.8093 29.0439 32.9687C29.0525 33.0634 29.0181 33.3348 28.9707 33.576C28.919 33.8128 28.8802 34.0626 28.8802 34.1316C28.8846 34.3168 29.0568 34.6182 29.2377 34.7646C29.3971 34.8939 29.4272 34.8981 29.8751 34.9111C30.2843 34.924 30.3704 34.9154 30.5341 34.8379C30.9562 34.6311 31.0638 34.2521 30.9088 33.5243C30.7796 32.917 30.8054 32.8222 31.1285 32.637C31.4686 32.4389 31.8305 32.0901 31.9381 31.8532C32.1449 31.401 31.9553 30.8885 31.4988 30.6516C31.3869 30.5956 31.249 30.5698 31.0466 30.5698C30.7322 30.5698 30.5298 30.643 30.1594 30.8798L29.9483 31.0134L29.8148 30.9315C29.2679 30.6085 29.1688 30.5698 28.8371 30.5741C28.6003 30.5741 28.4711 30.5956 28.3548 30.6559Z" fill="black"/>
<path d="M17.8977 25.6556C17.1354 25.8968 16.5669 26.4567 16.2741 27.2535C16.1319 27.6325 16.063 28.2312 16.1233 28.5541C16.2654 29.3251 16.8985 30.0271 17.6178 30.2209C18.5223 30.4578 19.1984 30.3027 19.7971 29.7084C20.1459 29.3681 20.3355 29.071 20.5249 28.5886C20.6627 28.2484 20.6714 28.1881 20.6714 27.7057L20.6756 27.1889L20.4948 26.8185C20.2062 26.2328 19.6851 25.7977 19.0821 25.6384C18.7419 25.5522 18.1949 25.5566 17.8977 25.6556Z" fill="black"/>
<path d="M40.9006 25.6428C40.3106 25.8021 39.7852 26.2414 39.5052 26.8185L39.3243 27.1889L39.3286 27.7057C39.3286 28.1881 39.3373 28.2484 39.475 28.5886C39.6646 29.071 39.8541 29.3682 40.2029 29.7084C40.8016 30.3027 41.4777 30.4578 42.3822 30.221C42.9033 30.0831 43.4244 29.6438 43.6743 29.1313C43.8896 28.6963 43.9412 28.3819 43.8724 27.8866C43.7131 26.7539 43.0498 25.9313 42.0635 25.6428C41.7749 25.5566 41.215 25.5566 40.9006 25.6428Z" fill="black"/>
</svg>
