<svg width="60" height="60" viewBox="0 0 60 60" fill="none" xmlns="http://www.w3.org/2000/svg">
<path fill-rule="evenodd" clip-rule="evenodd" d="M54.0645 18.7699H47.4523V2L31.3383 17.0149V2H28.6615V17.0149L12.5476 2V18.7699H5.93536V42.9319H12.5299V58L28.6615 43.641V58H31.3383V43.641L47.47 58V42.9319H54.0645V18.7699ZM44.7578 8.16904V18.7699H33.3947L44.7578 8.16904ZM15.2244 8.16904L26.5875 18.7699H15.2244V8.16904ZM8.61217 40.2551V21.4644H26.552L12.5299 34.352V40.2551H8.62989H8.61217ZM15.2066 35.522L28.6615 23.1662V40.0601L15.2066 52.026V35.522ZM44.7755 52.026L31.3206 40.0601V23.1662L44.7755 35.522V52.026ZM51.37 40.2551H47.47V34.352L33.4479 21.4644H51.3877V40.2551H51.37Z" fill="#20808D"/>
</svg>
