<svg width="60" height="60" viewBox="0 0 60 60" fill="none" xmlns="http://www.w3.org/2000/svg">
<g clip-path="url(#clip0_2223_213)">
<path d="M41.1867 50C39.7821 49.5136 38.5622 48.6669 37.2491 48.0054C36.5527 47.6536 35.8699 47.2749 35.182 46.908C35.1803 44.9049 35.1617 42.9002 35.182 40.8972C35.1888 40.2542 35.0685 40.0926 34.45 40.4629C32.8438 41.424 31.2088 42.3363 29.5839 43.2688C25.936 41.1783 22.2914 39.0827 18.6351 37.0073C18.203 36.7615 17.9692 36.5141 17.9726 35.9771C17.9997 31.7573 17.9946 27.5375 17.9997 23.3176C21.6205 21.2473 25.2481 19.1887 28.8553 17.0931C29.3873 16.7834 29.772 16.7952 30.2972 17.0998C33.9028 19.1954 37.5287 21.2591 41.1478 23.3311C41.1461 31.998 41.1427 40.6649 41.1427 49.3335C41.1427 49.5557 41.1715 49.7795 41.185 50.0017L41.1867 50ZM29.5839 36.3357C31.4053 35.4856 33.0742 34.3663 34.8347 33.4102C35.0888 33.2722 35.1769 33.0753 35.1735 32.7992C35.1498 30.8012 35.1329 28.8033 35.1142 26.8036C33.4555 25.6674 31.6425 24.7871 29.9278 23.7452C29.6839 23.5971 29.4687 23.6055 29.2247 23.7485C27.5168 24.7551 25.8038 25.7533 24.0942 26.7531C24.0586 26.8272 23.9943 26.9012 23.9943 26.977C23.9824 28.9244 23.9773 30.8702 23.9705 32.8177C23.9705 33.0567 24.0332 33.247 24.262 33.3715C26.0444 34.3444 27.7286 35.494 29.5856 36.3357H29.5839Z" fill="#DB254D"/>
<path d="M41.1478 23.3294C37.5287 21.2557 33.9028 19.1937 30.2972 17.0981C29.7737 16.7935 29.389 16.7817 28.8553 17.0914C25.2498 19.187 21.6205 21.2456 17.9997 23.3159C16.0444 22.2101 14.0519 21.1665 12.1864 19.9074C13.9502 18.7106 25.1871 12.3801 28.9214 10.2087C29.3941 9.93434 29.7347 9.92761 30.2142 10.2037C35.6293 13.3344 46.9949 19.7037 46.9543 20.0555C45.0193 21.1463 43.0844 22.2387 41.1495 23.3294H41.1478Z" fill="#7588BC"/>
<path d="M12.188 19.9074C14.0518 21.1665 16.046 22.2101 18.0013 23.3159C17.9962 27.5358 18.0013 31.7556 17.9742 35.9754C17.9708 36.5124 18.2046 36.7598 18.6367 37.0055C22.2931 39.0809 25.9376 41.1782 29.5855 43.2671C29.594 45.4991 29.6008 47.731 29.6092 49.963C29.2229 50.0808 17.9877 43.4607 12.6116 40.4023C12.1541 40.1414 12.0152 39.8603 12.0169 39.3553C12.0338 33.1291 12.0271 26.9029 12.0355 20.6766C12.0355 20.4208 11.8949 20.1144 12.1914 19.9091L12.188 19.9074Z" fill="#B1BEE6"/>
<path d="M41.1478 23.3294C43.0827 22.2387 45.0177 21.1463 46.9526 20.0555C46.9628 21.8701 46.978 23.6862 46.9797 25.5008C46.9831 32.2538 46.9678 39.0069 46.9983 45.76C47.0017 46.504 46.7747 46.9399 46.119 47.2816C44.4534 48.1468 42.8963 49.2106 41.1851 49.9983C41.1698 49.7761 41.1427 49.5523 41.1427 49.3301C41.1427 40.6632 41.1444 31.9963 41.1478 23.3277V23.3294Z" fill="#27386B"/>
<path d="M29.6093 49.963C29.6008 47.7311 29.594 45.4991 29.5856 43.2672C31.2087 42.3347 32.8455 41.4224 34.4517 40.4612C35.0685 40.0926 35.1905 40.2542 35.1837 40.8955C35.1633 42.8985 35.1803 44.9032 35.1837 46.9063C33.6317 47.7933 32.083 48.6838 30.5259 49.5624C30.2379 49.724 29.9177 49.83 29.611 49.9613L29.6093 49.963Z" fill="#27386B"/>
<path d="M24.0925 26.7547C25.8038 25.7532 27.5168 24.7551 29.2247 23.7485C29.4687 23.6054 29.6839 23.597 29.9278 23.7451C31.6425 24.787 33.4555 25.6674 35.1142 26.8035C33.2674 27.864 31.4222 28.9227 29.5754 29.9831C27.7574 28.8924 25.8529 27.9448 24.0925 26.7547Z" fill="#7588BC"/>
<path d="M29.5771 29.9832C31.424 28.9228 33.2691 27.864 35.1159 26.8036C35.1346 28.8016 35.1515 30.7995 35.1753 32.7992C35.1786 33.0753 35.0905 33.2722 34.8364 33.4102C33.076 34.3663 31.407 35.4856 29.5856 36.3357C29.5822 34.2182 29.5805 32.1007 29.5771 29.9832Z" fill="#27386B"/>
<path d="M29.5771 29.9832C29.5805 32.1007 29.5821 34.2182 29.5855 36.3356C27.7285 35.494 26.0444 34.3444 24.2619 33.3715C24.0349 33.2469 23.9688 33.0567 23.9705 32.8177C23.979 30.8702 23.9824 28.9244 23.9942 26.9769C23.9942 26.9029 24.0603 26.8288 24.0942 26.7548C25.8546 27.9448 27.7573 28.8924 29.5771 29.9832Z" fill="#B1BEE6"/>
</g>
<defs>
<clipPath id="clip0_2223_213">
<rect width="35" height="40" fill="white" transform="translate(12 10)"/>
</clipPath>
</defs>
</svg>
