<svg width="64" height="64" viewBox="0 0 64 64" fill="none" xmlns="http://www.w3.org/2000/svg">
<g clip-path="url(#clip0_20_687)">
<path d="M13.4462 40.4431C13.4462 44.1434 10.4234 47.1662 6.72309 47.1662C3.02278 47.1662 0 44.1434 0 40.4431C0 36.7428 3.02278 33.72 6.72309 33.72H13.4462V40.4431Z" fill="#E01E5A"/>
<path d="M16.8348 40.4431C16.8348 36.7428 19.8576 33.72 23.5579 33.72C27.2582 33.72 30.281 36.7428 30.281 40.4431V57.2769C30.281 60.9772 27.2582 64 23.5579 64C19.8576 64 16.8348 60.9772 16.8348 57.2769V40.4431Z" fill="#E01E5A"/>
<path d="M23.5579 13.4462C19.8576 13.4462 16.8348 10.4234 16.8348 6.72309C16.8348 3.02278 19.8576 0 23.5579 0C27.2582 0 30.281 3.02278 30.281 6.72309V13.4462H23.5579Z" fill="#36C5F0"/>
<path d="M23.5569 16.8348C27.2572 16.8348 30.28 19.8576 30.28 23.5579C30.28 27.2582 27.2572 30.2809 23.5569 30.2809H6.7231C3.02279 30.2809 0 27.2582 0 23.5579C0 19.8576 3.02279 16.8348 6.7231 16.8348H23.5569Z" fill="#36C5F0"/>
<path d="M50.5537 23.5579C50.5537 19.8576 53.5765 16.8348 57.2768 16.8348C60.9771 16.8348 63.9999 19.8576 63.9999 23.5579C63.9999 27.2582 60.9771 30.2809 57.2768 30.2809H50.5537V23.5579Z" fill="#2EB67D"/>
<path d="M47.1662 23.5569C47.1662 27.2572 44.1434 30.28 40.4431 30.28C36.7428 30.28 33.72 27.2572 33.72 23.5569V6.7231C33.72 3.02279 36.7428 0 40.4431 0C44.1434 0 47.1662 3.02279 47.1662 6.7231V23.5569Z" fill="#2EB67D"/>
<path d="M40.4431 50.5537C44.1434 50.5537 47.1662 53.5765 47.1662 57.2768C47.1662 60.9771 44.1434 63.9999 40.4431 63.9999C36.7428 63.9999 33.72 60.9771 33.72 57.2768V50.5537H40.4431Z" fill="#ECB22E"/>
<path d="M40.4431 47.1662C36.7428 47.1662 33.72 44.1434 33.72 40.4431C33.72 36.7428 36.7428 33.72 40.4431 33.72H57.2769C60.9772 33.72 64 36.7428 64 40.4431C64 44.1434 60.9772 47.1662 57.2769 47.1662H40.4431Z" fill="#ECB22E"/>
</g>
<defs>
<clipPath id="clip0_20_687">
<rect width="64" height="64" fill="white"/>
</clipPath>
</defs>
</svg>
