<svg width="60" height="60" viewBox="0 0 60 60" fill="none" xmlns="http://www.w3.org/2000/svg">
<path d="M1 8.29832C1 4.26757 4.26759 1 8.29833 1H51.7015C55.7324 1 59 4.26757 59 8.29832V51.7017C59 55.7324 55.7324 59 51.7015 59H8.29833C4.26759 59 1 55.7324 1 51.7017V8.29832Z" fill="#6E58F1"/>
<path d="M9.37152 25.5328C9.37152 20.5298 13.4118 16.4742 18.3957 16.4742H18.9146C21.0229 16.4742 22.7319 18.1897 22.7319 20.306V30.7596C22.7319 32.876 21.0229 34.5913 18.9146 34.5913H18.3957C13.4118 34.5913 9.37152 30.5358 9.37152 25.5328Z" fill="white"/>
<path d="M24.789 18.0764C24.789 17.1049 25.3574 16.2239 26.2407 15.8267L39.3772 9.91832C41.002 9.18754 42.8373 10.3809 42.8373 12.1681V39.0985C42.8373 40.8972 40.9803 42.0906 39.3532 41.3373L26.2167 35.2577C25.3464 34.8551 24.789 33.9807 24.789 33.0189V31.7721C24.789 30.7465 25.4216 29.8279 26.3776 29.4657L33.6994 26.6916C34.7585 26.2902 34.7585 24.7864 33.6994 24.3851L26.3776 21.6109C25.4216 21.2486 24.789 20.3301 24.789 19.3044V18.0764Z" fill="white"/>
<path d="M50.6164 27.6931V27.1441C50.6164 24.112 48.1678 21.654 45.1475 21.654C44.9962 21.654 44.8738 21.7768 44.8738 21.9285V32.9087C44.8738 33.0603 44.9962 33.1832 45.1475 33.1832C48.1678 33.1832 50.6164 30.7252 50.6164 27.6931Z" fill="white"/>
<path d="M18.3887 38.0967C18.3887 37.5576 18.824 37.1207 19.3609 37.1207H24.4481C24.9852 37.1207 25.4204 37.5576 25.4204 38.0967V46.7677C25.4204 48.7167 23.8463 50.297 21.9046 50.297C19.9628 50.297 18.3887 48.7167 18.3887 46.7677V38.0967Z" fill="white"/>
</svg>
