<svg width="40" height="40" viewBox="0 0 40 40" fill="none" xmlns="http://www.w3.org/2000/svg">
<path d="M7.75 4C7.75 2.20508 9.20508 0.75 11 0.75H27C27.1212 0.75 27.2375 0.798159 27.3232 0.883885L38.1161 11.6768C38.2018 11.7625 38.25 11.8788 38.25 12V36C38.25 37.7949 36.7949 39.25 35 39.25H11C9.20507 39.25 7.75 37.7949 7.75 36V4Z" fill="white" stroke="#E1E6EF" stroke-width="1.5"/>
<path d="M27 0.5V8C27 10.2091 28.7909 12 31 12H38.5" stroke="#E1E6EF" stroke-width="1.5"/>
<rect x="2" y="17.5" width="25" height="17" rx="2" fill="#8B55F7"/>
<path d="M8.18918 29.62C6.96918 29.62 6.13918 29.15 5.53918 28.49L6.53918 27.48C7.00918 28.01 7.60918 28.28 8.28918 28.28C9.02918 28.28 9.38918 27.95 9.38918 27.44C9.38918 27.06 9.22918 26.78 8.57918 26.69L7.88918 26.6C6.41918 26.41 5.74918 25.69 5.74918 24.52C5.74918 23.27 6.72918 22.4 8.36918 22.4C9.41918 22.4 10.2192 22.75 10.7892 23.38L9.77918 24.4C9.44918 24.01 8.99918 23.74 8.27918 23.74C7.59918 23.74 7.26918 24 7.26918 24.42C7.26918 24.9 7.51918 25.08 8.09918 25.17L8.78918 25.28C10.2192 25.51 10.9092 26.15 10.9092 27.35C10.9092 28.69 9.92918 29.62 8.18918 29.62ZM16.8194 30.1V31.34H15.8794C14.7994 31.34 14.3294 30.82 14.3294 29.86V29.57C12.8394 29.3 11.8994 28.09 11.8994 26.01C11.8994 23.64 13.1194 22.4 14.9694 22.4C16.8194 22.4 18.0394 23.64 18.0394 26.01C18.0394 28.03 17.1594 29.23 15.7494 29.54V30.1H16.8194ZM14.9694 28.27C15.8794 28.27 16.4294 27.64 16.4294 26.53V25.49C16.4294 24.38 15.8794 23.75 14.9694 23.75C14.0594 23.75 13.5094 24.38 13.5094 25.49V26.53C13.5094 27.64 14.0594 28.27 14.9694 28.27ZM23.4881 29.5H19.3081V22.52H20.8281V28.15H23.4881V29.5Z" fill="white"/>
</svg>
