<svg width="60" height="60" viewBox="0 0 60 60" fill="none" xmlns="http://www.w3.org/2000/svg">
<path fill-rule="evenodd" clip-rule="evenodd" d="M15.1632 23.5361C15.4633 23.5227 15.7905 23.5889 16.1446 23.7348C15.5601 22.7667 15.3623 21.8344 15.5512 20.9382C16.275 17.5436 21.8188 17.8628 24.2827 18.236C27.1123 18.6647 29.7605 19.6328 32.2274 21.1405C32.683 21.4163 32.9123 21.2889 32.9153 20.7584L32.9468 13.2723C32.9466 13.1905 32.9243 13.1105 32.8823 13.0408C32.8403 12.971 32.7802 12.9143 32.7085 12.8766C24.7368 8.5603 9.67918 8.02076 6.3835 18.9239C5.79483 20.8632 5.88386 22.9664 6.65059 25.2334C6.61746 25.2409 6.58434 25.2484 6.55123 25.256C7.78018 28.1545 9.94282 30.1523 13.0392 31.2493C16.759 32.5712 19.8284 33.6308 22.2473 34.4281C24.293 35.098 26.5007 36.6672 25.6239 38.9243C24.383 42.121 19.2169 42.2379 16.5327 41.8243C12.9148 41.2668 9.71502 39.8415 6.9334 37.5484C6.44182 37.1438 6.19603 37.2592 6.19603 37.8947V45.9203C6.19618 45.9924 6.21383 46.0636 6.24748 46.1278C6.28113 46.1919 6.32979 46.2472 6.38936 46.289C14.8107 52.1385 34.8275 52.2509 35.1108 37.9396C35.2277 32.0676 31.0957 28.4707 25.7588 27.1533C21.973 26.2151 18.7328 25.0761 16.0381 23.7363C15.7254 23.6075 15.4338 23.5407 15.1632 23.5361Z" fill="url(#paint0_linear_440_105)"/>
<path d="M48.4373 49.4543C51.5686 49.4543 54.107 46.9159 54.107 43.7847C54.107 40.6534 51.5686 38.115 48.4373 38.115C45.3061 38.115 42.7677 40.6534 42.7677 43.7847C42.7677 46.9159 45.3061 49.4543 48.4373 49.4543Z" fill="#E80000"/>
<defs>
<linearGradient id="paint0_linear_440_105" x1="20.5031" y1="10" x2="20.5031" y2="50" gradientUnits="userSpaceOnUse">
<stop offset="0.119792" stop-color="#9F43FF"/>
<stop offset="0.838542" stop-color="#A26DFF"/>
</linearGradient>
</defs>
</svg>
