<svg width="25" height="24" viewBox="0 0 25 24" fill="none" xmlns="http://www.w3.org/2000/svg">
<circle cx="12.353" cy="12" r="9.375" stroke="#1D2433" stroke-width="1.25"/>
<path d="M16.1031 12C16.1031 12.4033 16.0923 12.8008 16.0712 13.1908C15.9411 15.6027 15.4228 17.7085 14.6891 19.1892C13.9321 20.7169 13.0608 21.375 12.3103 21.375C11.5599 21.375 10.6886 20.7169 9.93157 19.1892C9.19786 17.7085 8.67949 15.6027 8.5494 13.1908C8.52836 12.8008 8.51752 12.4033 8.51752 12C8.51752 11.5967 8.52836 11.1992 8.5494 10.8092C8.67949 8.39728 9.19786 6.29146 9.93157 4.8108C10.6886 3.28312 11.5599 2.625 12.3103 2.625C13.0608 2.625 13.9321 3.28313 14.6891 4.8108C15.4228 6.29146 15.9411 8.39728 16.0712 10.8092C16.0923 11.1992 16.1031 11.5967 16.1031 12Z" stroke="#1D2433" stroke-width="1.25"/>
<path d="M2.97797 12H8.933M21.728 12H15.5635" stroke="#1D2433" stroke-width="1.25" stroke-linecap="round"/>
<path fill-rule="evenodd" clip-rule="evenodd" d="M7.97797 11.999C7.97797 9.58278 9.93672 7.62402 12.353 7.62402C14.7692 7.62402 16.728 9.58278 16.728 11.999C16.728 14.4153 14.7692 16.374 12.353 16.374C9.93672 16.374 7.97797 14.4153 7.97797 11.999ZM13.8681 14.058V9.6833H14.7837V14.058H13.8681ZM10.8245 9.68311L9.3056 14.0578H10.2666L10.5909 12.9967H12.1352L12.4585 14.0578H13.4226L11.9007 9.68311H11.6036H11.3914H10.8245ZM11.3914 10.5562H11.3368L10.8003 12.3116H11.9264L11.3914 10.5562Z" fill="#1D2433"/>
</svg>

