<svg width="25" height="24" viewBox="0 0 25 24" fill="none" xmlns="http://www.w3.org/2000/svg">
<circle cx="12.9431" cy="12" r="9.375" stroke="#1D2433" stroke-width="1.25"/>
<path d="M16.6933 12C16.6933 12.4033 16.6825 12.8008 16.6614 13.1908C16.5313 15.6027 16.013 17.7085 15.2792 19.1892C14.5222 20.7169 13.6509 21.375 12.9005 21.375C12.1501 21.375 11.2788 20.7169 10.5217 19.1892C9.78804 17.7085 9.26967 15.6027 9.13958 13.1908C9.11854 12.8008 9.1077 12.4033 9.1077 12C9.1077 11.5967 9.11854 11.1992 9.13958 10.8092C9.26967 8.39728 9.78804 6.29146 10.5217 4.8108C11.2788 3.28312 12.1501 2.625 12.9005 2.625C13.6509 2.625 14.5222 3.28313 15.2792 4.8108C16.013 6.29146 16.5313 8.39728 16.6614 10.8092C16.6825 11.1992 16.6933 11.5967 16.6933 12Z" stroke="#1D2433" stroke-width="1.25"/>
<path d="M3.56815 12H9.52318M22.3181 12H16.1536" stroke="#1D2433" stroke-width="1.25" stroke-linecap="round"/>
<path fill-rule="evenodd" clip-rule="evenodd" d="M8.56815 11.999C8.56815 9.58278 10.5269 7.62402 12.9431 7.62402C15.3594 7.62402 17.3181 9.58278 17.3181 11.999C17.3181 14.4153 15.3594 16.374 12.9431 16.374C10.5269 16.374 8.56815 14.4153 8.56815 11.999ZM14.4583 14.058V9.6833H15.3738V14.058H14.4583ZM11.4146 9.68311L9.89578 14.0578H10.8568L11.1811 12.9967H12.7253L13.0487 14.0578H14.0128L12.4909 9.68311H12.1938H11.9816H11.4146ZM11.9816 10.5562H11.927L11.3905 12.3116H12.5165L11.9816 10.5562Z" fill="#1D2433"/>
</svg>
