<svg width="30" height="30" viewBox="0 0 30 30" fill="none" xmlns="http://www.w3.org/2000/svg">
<path fill-rule="evenodd" clip-rule="evenodd" d="M23.0551 15.7352C22.5852 15.463 22.4244 14.8605 22.6966 14.3902C22.9689 13.9202 23.5716 13.7594 24.0416 14.0317C26.1002 15.2235 27.4856 17.4505 27.4856 19.9982C27.4856 23.8007 24.3982 26.8881 20.5954 26.8881C17.1269 26.8881 14.2535 24.3194 13.7755 20.9824H8.78403C8.24081 20.9824 7.7998 20.5414 7.7998 19.9982C7.7998 19.455 8.24081 19.014 8.78403 19.014H14.677C14.94 19.0105 15.1938 19.1127 15.3813 19.2977C15.5685 19.4827 15.6739 19.7349 15.6739 19.9982C15.6739 22.7143 17.8793 24.9197 20.5954 24.9197C23.3118 24.9197 25.5171 22.7143 25.5171 19.9982C25.5171 18.1778 24.5262 16.587 23.0551 15.7352Z" fill="#1D2433"/>
<path fill-rule="evenodd" clip-rule="evenodd" d="M9.76826 9.77022C9.76762 10.3134 9.32598 10.7541 8.78276 10.7535C8.23954 10.7525 7.79885 10.3112 7.79981 9.76767C7.80267 7.38909 9.03845 5.07578 11.2448 3.80211C14.5381 1.90084 18.7552 3.03058 20.6568 6.32398C22.3909 9.32794 21.6032 13.1009 18.9523 15.1833L21.4481 19.5062C21.7197 19.9765 21.5583 20.5789 21.0876 20.8505C20.6173 21.1221 20.0149 20.9607 19.7433 20.4904L16.7967 15.3868C16.6623 15.1607 16.6238 14.8897 16.6903 14.635C16.7569 14.3803 16.9224 14.1628 17.1504 14.0313C19.5029 12.6729 20.3101 9.66068 18.952 7.30821C17.5937 4.95606 14.5814 4.14887 12.229 5.50692C10.6525 6.41728 9.77049 8.0705 9.76826 9.77022Z" fill="#1D2433"/>
<path fill-rule="evenodd" clip-rule="evenodd" d="M11.2455 24.2598C11.7164 23.9889 12.3185 24.1509 12.5898 24.6219C12.8608 25.0925 12.6987 25.6949 12.2278 25.9659C10.1664 27.1527 7.54516 27.2389 5.33885 25.9653C2.04547 24.0637 0.915408 19.8466 2.81667 16.5532C4.55109 13.5492 8.21224 12.3449 11.3413 13.5995L13.8371 9.27699C14.1087 8.80636 14.7111 8.64493 15.1817 8.91654C15.652 9.18815 15.8135 9.7906 15.5419 10.2612L12.5956 15.3645C12.4669 15.5944 12.2514 15.7628 11.9976 15.8326C11.7438 15.9026 11.4725 15.8676 11.2445 15.7361C8.89206 14.378 5.87984 15.1852 4.52179 17.5374C3.16343 19.8899 3.97062 22.9021 6.32308 24.2605C7.89956 25.1705 9.77248 25.1078 11.2455 24.2598Z" fill="#1D2433"/>
<path d="M20.5946 23.1974C22.3615 23.1974 23.7938 21.7651 23.7938 19.9982C23.7938 18.2314 22.3615 16.7991 20.5946 16.7991C18.8278 16.7991 17.3955 18.2314 17.3955 19.9982C17.3955 21.7651 18.8278 23.1974 20.5946 23.1974Z" fill="#1D2433"/>
<path fill-rule="evenodd" clip-rule="evenodd" d="M11.919 11.3688C11.036 9.83973 11.5608 7.88146 13.0898 6.99881C14.6188 6.11584 16.5771 6.64059 17.4597 8.16963C18.3424 9.69867 17.818 11.6569 16.2889 12.5396C14.7599 13.4226 12.8016 12.8978 11.919 11.3688Z" fill="#1D2433"/>
<path fill-rule="evenodd" clip-rule="evenodd" d="M11.5546 21.5979C10.6717 23.1269 8.71372 23.6514 7.18468 22.7687C5.65533 21.8857 5.1309 19.9278 6.01355 18.3987C6.89652 16.8697 8.85446 16.3449 10.3835 17.2276C11.9125 18.1106 12.4373 20.0685 11.5546 21.5979Z" fill="#1D2433"/>
</svg>
