<svg width="60" height="60" viewBox="0 0 60 60" fill="none" xmlns="http://www.w3.org/2000/svg">
<g clip-path="url(#clip0_2142_828)">
<g filter="url(#filter0_f_2142_828)">
<path d="M18.8244 47.3581L19.5883 47.8107C22.7966 49.7147 26.4752 50.7219 30.2265 50.7236H30.2344C41.7547 50.7236 51.1304 41.35 51.1352 29.829C51.1373 24.246 48.9653 18.9959 45.0191 15.0467C43.0836 13.099 40.781 11.5546 38.2446 10.5028C35.7082 9.45106 32.9884 8.91282 30.2426 8.91927C18.7134 8.91927 9.33734 18.2919 9.33324 29.8122C9.32756 33.7461 10.4353 37.6013 12.5285 40.932L13.0258 41.7222L10.914 49.4321L18.8244 47.3581ZM4.8761 55.405L8.44393 42.3784C6.24356 38.5662 5.08595 34.2413 5.08732 29.8105C5.09313 15.9493 16.3732 4.67267 30.2347 4.67267C36.9613 4.67609 43.275 7.29377 48.0233 12.0455C52.7717 16.7973 55.3842 23.1134 55.3818 29.8307C55.3757 43.6908 44.0939 54.9696 30.2344 54.9696H30.2235C26.0151 54.9678 21.8799 53.9121 18.2068 51.9093L4.8761 55.405Z" fill="#B3B3B3"/>
</g>
<path d="M4.61829 55.1467L8.18612 42.1201C5.98196 38.2987 4.82418 33.9637 4.82951 29.5522C4.83532 15.691 16.1154 4.41437 29.9769 4.41437C36.7035 4.41779 43.0172 7.03547 47.7655 11.7872C52.5138 16.539 55.1264 22.8551 55.124 29.5724C55.1179 43.4325 43.8361 54.7113 29.9766 54.7113H29.9656C25.7573 54.7095 21.6221 53.6538 17.949 51.651L4.61829 55.1467Z" fill="white"/>
<path d="M29.9842 8.66101C18.455 8.66101 9.07895 18.0336 9.07485 29.554C9.06917 33.4878 10.177 37.343 12.2701 40.6737L12.7674 41.4643L10.6556 49.1741L18.5664 47.0999L19.3303 47.5524C22.5386 49.4564 26.2171 50.4633 29.9685 50.4654H29.9764C41.4967 50.4654 50.8727 41.0917 50.8772 29.5707C50.8859 26.8247 50.3498 24.1043 49.2999 21.5669C48.2501 19.0295 46.7074 16.7255 44.761 14.7884C42.8255 12.8407 40.5229 11.2963 37.9864 10.2445C35.45 9.19273 32.7301 8.65451 29.9842 8.66101Z" fill="url(#paint0_linear_2142_828)"/>
<path fill-rule="evenodd" clip-rule="evenodd" d="M23.6915 19.0429C23.2205 17.9967 22.7249 17.9755 22.2775 17.9574L21.0731 17.9427C20.6541 17.9427 19.9733 18.0999 19.3977 18.7288C18.8222 19.3577 17.1984 20.8775 17.1984 23.9689C17.1984 27.0603 19.45 30.0475 19.7638 30.4672C20.0775 30.8869 24.1105 37.433 30.4973 39.9516C35.8048 42.0446 36.8848 41.6283 38.0373 41.5237C39.1898 41.4191 41.7548 40.0038 42.2781 38.5366C42.8014 37.0693 42.8017 35.8123 42.6448 35.5494C42.488 35.2866 42.0689 35.1304 41.4401 34.816C40.8112 34.5015 37.7225 32.9817 37.1466 32.7718C36.5707 32.5619 36.1521 32.4577 35.7327 33.0866C35.3133 33.7155 34.1106 35.1301 33.7439 35.5494C33.3772 35.9688 33.0111 36.0214 32.3822 35.7073C31.7534 35.3932 29.73 34.7295 27.3294 32.5889C25.4616 30.9235 24.2007 28.8666 23.8337 28.2381C23.4666 27.6096 23.7947 27.2692 24.1098 26.9561C24.3918 26.6745 24.738 26.2223 25.0528 25.8556C25.3676 25.4888 25.4711 25.2267 25.6803 24.808C25.8895 24.3893 25.7852 24.0216 25.628 23.7075C25.4708 23.3934 24.25 20.2856 23.6915 19.0429Z" fill="white"/>
</g>
<defs>
<filter id="filter0_f_2142_828" x="2.46246" y="2.25902" width="55.333" height="55.5596" filterUnits="userSpaceOnUse" color-interpolation-filters="sRGB">
<feFlood flood-opacity="0" result="BackgroundImageFix"/>
<feBlend mode="normal" in="SourceGraphic" in2="BackgroundImageFix" result="shape"/>
<feGaussianBlur stdDeviation="1.20682" result="effect1_foregroundBlur_2142_828"/>
</filter>
<linearGradient id="paint0_linear_2142_828" x1="29.5505" y1="11.1697" x2="29.7624" y2="46.8941" gradientUnits="userSpaceOnUse">
<stop stop-color="#57D163"/>
<stop offset="1" stop-color="#23B33A"/>
</linearGradient>
<clipPath id="clip0_2142_828">
<rect width="60" height="60" fill="white"/>
</clipPath>
</defs>
</svg>
