<svg width="60" height="60" viewBox="0 0 60 60" fill="none" xmlns="http://www.w3.org/2000/svg">
<path fill-rule="evenodd" clip-rule="evenodd" d="M28.2503 40.0718V58H31.7504V36.5321L41.0567 52.651C42.1099 52.136 43.1218 51.5496 44.0862 50.8983L33.8981 33.252L45.1185 37.3359C45.6247 36.2945 46.0264 35.193 46.3103 34.045L40.0047 31.7499H58V28.2499H36.5304L52.6508 18.9429C52.1357 17.8897 51.5493 16.8778 50.8979 15.9134L33.3573 26.0406L37.4062 14.9163C36.3672 14.4051 35.2674 13.9982 34.121 13.7091L31.7504 20.2223V2H28.2503V23.4699L18.9429 7.34884C17.8897 7.8639 16.8778 8.45024 15.9134 9.10157L26.0589 26.6741L14.9065 22.615C14.3968 23.6548 13.9914 24.755 13.7038 25.9018L20.1552 28.2499H2L2 31.7499H23.4683L7.34856 41.0567C7.86361 42.1099 8.44994 43.1218 9.10127 44.0862L26.7795 33.8798L22.6854 45.1281C23.7274 45.633 24.8294 46.0332 25.9778 46.3153L28.2503 40.0718Z" fill="url(#paint0_linear_2291_284)"/>
<defs>
<linearGradient id="paint0_linear_2291_284" x1="13.9" y1="7.94999" x2="42.88" y2="54.9199" gradientUnits="userSpaceOnUse">
<stop stop-color="#9D41FF"/>
<stop offset="0.468794" stop-color="#2858FF"/>
<stop offset="0.770884" stop-color="#29B8FF"/>
<stop offset="1" stop-color="#00F0FF"/>
</linearGradient>
</defs>
</svg>
