<?xml version="1.0" encoding="UTF-8" standalone="no"?><!-- Generator: Gravit.io --><svg xmlns="http://www.w3.org/2000/svg" xmlns:xlink="http://www.w3.org/1999/xlink" style="isolation:isolate" viewBox="0 0 24 24" width="24pt" height="24pt"><linearGradient id="_lgradient_0" x1="0.21249984294469892" y1="0.10624979582810862" x2="0.7300005779635078" y2="0.9449979771277233" gradientTransform="matrix(22,0,0,22,1,1)" gradientUnits="userSpaceOnUse"><stop offset="0%" stop-opacity="1" style="stop-color:rgb(157,65,255)"/><stop offset="46.8794%" stop-opacity="1" style="stop-color:rgb(40,88,255)"/><stop offset="77.08840000000001%" stop-opacity="1" style="stop-color:rgb(41,184,255)"/><stop offset="100%" stop-opacity="1" style="stop-color:rgb(0,240,255)"/></linearGradient><path d=" M 11.313 15.957 L 11.313 23 L 12.688 23 L 12.688 14.566 L 16.344 20.899 C 16.757 20.696 17.155 20.466 17.534 20.21 L 13.531 13.278 L 17.939 14.882 C 18.138 14.473 18.296 14.04 18.408 13.589 L 15.93 12.687 L 23 12.687 L 23 11.312 L 14.566 11.312 L 20.899 7.656 C 20.696 7.242 20.466 6.845 20.21 6.466 L 13.319 10.445 L 14.91 6.074 C 14.501 5.873 14.069 5.714 13.619 5.6 L 12.688 8.159 L 12.688 1 L 11.313 1 L 11.313 9.435 L 7.656 3.101 C 7.242 3.304 6.845 3.534 6.466 3.79 L 10.452 10.693 L 6.07 9.099 C 5.87 9.507 5.711 9.939 5.598 10.39 L 8.132 11.312 L 1 11.312 L 1 12.687 L 9.434 12.687 L 3.101 16.344 C 3.304 16.757 3.534 17.155 3.79 17.534 L 10.735 13.524 L 9.126 17.943 C 9.536 18.142 9.969 18.299 10.42 18.41 L 11.313 15.957 Z " fill-rule="evenodd" fill="url(#_lgradient_0)"/></svg>