<svg width="513" height="481" viewBox="0 0 513 481" fill="none" xmlns="http://www.w3.org/2000/svg">
  <defs>
    <filter id="filter0_dd_348_12994" x="172.5" y="160.5" width="168" height="177.432" filterUnits="userSpaceOnUse" color-interpolation-filters="sRGB">
      <feFlood flood-opacity="0" result="BackgroundImageFix"/>
      <feColorMatrix in="SourceAlpha" type="matrix" values="0 0 0 0 0 0 0 0 0 0 0 0 0 0 0 0 0 0 127 0" result="hardAlpha"/>
      <feMorphology radius="4" operator="erode" in="SourceAlpha" result="effect1_dropShadow_348_12994"/>
      <feOffset dy="8"/>
      <feGaussianBlur stdDeviation="4"/>
      <feComposite in2="hardAlpha" operator="out"/>
      <feColorMatrix type="matrix" values="0 0 0 0 0.0627451 0 0 0 0 0.0941176 0 0 0 0 0.156863 0 0 0 0.03 0"/>
      <feBlend mode="normal" in2="BackgroundImageFix" result="effect1_dropShadow_348_12994"/>
      <feColorMatrix in="SourceAlpha" type="matrix" values="0 0 0 0 0 0 0 0 0 0 0 0 0 0 0 0 0 0 127 0" result="hardAlpha"/>
      <feMorphology radius="4" operator="erode" in="SourceAlpha" result="effect2_dropShadow_348_12994"/>
      <feOffset dy="20"/>
      <feGaussianBlur stdDeviation="12"/>
      <feComposite in2="hardAlpha" operator="out"/>
      <feColorMatrix type="matrix" values="0 0 0 0 0.0627451 0 0 0 0 0.0941176 0 0 0 0 0.156863 0 0 0 0.08 0"/>
      <feBlend mode="normal" in2="effect1_dropShadow_348_12994" result="effect2_dropShadow_348_12994"/>
      <feBlend mode="normal" in="SourceGraphic" in2="effect2_dropShadow_348_12994" result="shape"/>
    </filter>
    <filter id="filter1_b_348_12994" x="220.5" y="256.5" width="72" height="72" filterUnits="userSpaceOnUse" color-interpolation-filters="sRGB">
      <feFlood flood-opacity="0" result="BackgroundImageFix"/>
      <feGaussianBlur in="BackgroundImageFix" stdDeviation="4"/>
      <feComposite in2="SourceAlpha" operator="in" result="effect1_backgroundBlur_348_12994"/>
      <feBlend mode="normal" in="SourceGraphic" in2="effect1_backgroundBlur_348_12994" result="shape"/>
    </filter>
    <radialGradient id="paint0_radial_348_12994" cx="0" cy="0" r="1" gradientUnits="userSpaceOnUse" gradientTransform="translate(240 240) rotate(90) scale(240 240)">
      <stop/>
      <stop offset="1" stop-opacity="0"/>
    </radialGradient>
    <linearGradient id="paint1_linear_348_12994" x1="192.5" y1="270.654" x2="217.775" y2="202.201" gradientUnits="userSpaceOnUse">
      <stop stop-color="#E1E6EF"/>
      <stop offset="1" stop-color="#F1F3F9"/>
    </linearGradient>
    <linearGradient id="paint2_linear_348_12994" x1="256.5" y1="217.115" x2="328.666" y2="231.483" gradientUnits="userSpaceOnUse">
      <stop stop-color="#E1E6EF"/>
      <stop offset="1" stop-color="#F1F3F9"/>
    </linearGradient>
    <clipPath id="clip0_348_12994">
      <rect width="480" height="480" fill="white" transform="translate(16.5 0.5)"/>
    </clipPath>
    <clipPath id="clip1_348_12994">
      <rect x="16.5" y="0.5" width="480" height="480" fill="white"/>
    </clipPath>
    <clipPath id="clip2_348_12994">
      <rect x="16.5" y="0.5" width="480" height="480" fill="white"/>
    </clipPath>
  </defs>
  <mask id="mask0_348_12994" style="mask-type:alpha" maskUnits="userSpaceOnUse" x="16" y="0" width="481" height="481">
    <rect width="480" height="480" transform="translate(16.5 0.5)" fill="url(#paint0_radial_348_12994)"/>
  </mask>
  <g mask="url(#mask0_348_12994)">
    <g clip-path="url(#clip0_348_12994)">
      <g clip-path="url(#clip1_348_12994)">
        <line x1="17" y1="0.5" x2="17" y2="480.5" stroke="#EAECF0"/>
        <line x1="49" y1="0.5" x2="49" y2="480.5" stroke="#EAECF0"/>
        <line x1="81" y1="0.5" x2="81" y2="480.5" stroke="#EAECF0"/>
        <line x1="113" y1="0.5" x2="113" y2="480.5" stroke="#EAECF0"/>
        <line x1="145" y1="0.5" x2="145" y2="480.5" stroke="#EAECF0"/>
        <line x1="177" y1="0.5" x2="177" y2="480.5" stroke="#EAECF0"/>
        <line x1="209" y1="0.5" x2="209" y2="480.5" stroke="#EAECF0"/>
        <line x1="241" y1="0.5" x2="241" y2="480.5" stroke="#EAECF0"/>
        <line x1="273" y1="0.5" x2="273" y2="480.5" stroke="#EAECF0"/>
        <line x1="305" y1="0.5" x2="305" y2="480.5" stroke="#EAECF0"/>
        <line x1="337" y1="0.5" x2="337" y2="480.5" stroke="#EAECF0"/>
        <line x1="369" y1="0.5" x2="369" y2="480.5" stroke="#EAECF0"/>
        <line x1="401" y1="0.5" x2="401" y2="480.5" stroke="#EAECF0"/>
        <line x1="433" y1="0.5" x2="433" y2="480.5" stroke="#EAECF0"/>
        <line x1="465" y1="0.5" x2="465" y2="480.5" stroke="#EAECF0"/>
      </g>
      <rect x="17" y="1" width="479" height="479" stroke="#EAECF0"/>
      <g clip-path="url(#clip2_348_12994)">
        <line x1="16.5" y1="32" x2="496.5" y2="32" stroke="#EAECF0"/>
        <line x1="16.5" y1="64" x2="496.5" y2="64" stroke="#EAECF0"/>
        <line x1="16.5" y1="96" x2="496.5" y2="96" stroke="#EAECF0"/>
        <line x1="16.5" y1="128" x2="496.5" y2="128" stroke="#EAECF0"/>
        <line x1="16.5" y1="160" x2="496.5" y2="160" stroke="#EAECF0"/>
        <line x1="16.5" y1="192" x2="496.5" y2="192" stroke="#EAECF0"/>
        <line x1="16.5" y1="224" x2="496.5" y2="224" stroke="#EAECF0"/>
        <line x1="16.5" y1="256" x2="496.5" y2="256" stroke="#EAECF0"/>
        <line x1="16.5" y1="288" x2="496.5" y2="288" stroke="#EAECF0"/>
        <line x1="16.5" y1="320" x2="496.5" y2="320" stroke="#EAECF0"/>
        <line x1="16.5" y1="352" x2="496.5" y2="352" stroke="#EAECF0"/>
        <line x1="16.5" y1="384" x2="496.5" y2="384" stroke="#EAECF0"/>
        <line x1="16.5" y1="416" x2="496.5" y2="416" stroke="#EAECF0"/>
        <line x1="16.5" y1="448" x2="496.5" y2="448" stroke="#EAECF0"/>
        <line x1="16.5" y1="480" x2="496.5" y2="480" stroke="#EAECF0"/>
      </g>
      <rect x="17" y="1" width="479" height="479" stroke="#EAECF0"/>
    </g>
  </g>
  <circle cx="256.5" cy="248.5" r="80" fill="#E1E6EF"/>
  <circle cx="172.5" cy="188.5" r="8" fill="#F1F3F9"/>
  <circle cx="344.5" cy="294.5" r="6" fill="#F1F3F9"/>
  <circle cx="171.5" cy="306.5" r="10" fill="#F1F3F9"/>
  <circle cx="356.5" cy="214.5" r="10" fill="#F1F3F9"/>
  <circle cx="337.5" cy="179.5" r="7" fill="#F1F3F9"/>
  <g filter="url(#filter0_dd_348_12994)">
    <path d="M256.5 215.453L263.412 212.558L256.501 215.502V297.932L320.19 271.243V188.777L320.5 188.647L320.19 188.509V188.37L320.03 188.438L257.003 160.5L192.5 187.976L192.805 188.108L192.5 270.24L256.5 297.883L256.5 215.453Z" fill="#F8F9FC"/>
    <path d="M256.5 215.453V297.883L192.5 270.239L192.805 188.107L256.5 215.453Z" fill="url(#paint1_linear_348_12994)"/>
    <path d="M256.501 215.502V297.932L320.19 271.244V188.371L256.501 215.502Z" fill="url(#paint2_linear_348_12994)"/>
    <path d="M256.5 215.453L320.5 188.647L257.003 160.5L192.5 187.976L256.5 215.453Z" fill="#F1F3F9"/>
    <path d="M216.626 177.7L280.381 205.45L280.961 225.673L298.799 218.313L298.259 197.962L232.617 170.888L216.626 177.7Z" fill="#E1E6EF"/>
  </g>
  <g filter="url(#filter1_b_348_12994)">
    <rect x="228.5" y="264.5" width="56" height="56" rx="28" fill="#344054" fill-opacity="0.4"/>
    <path d="M267 303L261.925 297.925M264.667 291.333C264.667 296.488 260.488 300.667 255.333 300.667C250.179 300.667 246 296.488 246 291.333C246 286.179 250.179 282 255.333 282C260.488 282 264.667 286.179 264.667 291.333Z" stroke="white" stroke-width="2" stroke-linecap="round" stroke-linejoin="round"/>
  </g>
</svg>
