<svg width="513" height="480" viewBox="0 0 513 480" fill="none" xmlns="http://www.w3.org/2000/svg">
  <defs>
    <filter id="filter0_d_458_13420" x="230.834" y="215" width="52" height="52" filterUnits="userSpaceOnUse" color-interpolation-filters="sRGB">
      <feFlood flood-opacity="0" result="BackgroundImageFix"/>
      <feColorMatrix in="SourceAlpha" type="matrix" values="0 0 0 0 0 0 0 0 0 0 0 0 0 0 0 0 0 0 127 0" result="hardAlpha"/>
      <feOffset dy="1"/>
      <feGaussianBlur stdDeviation="1"/>
      <feColorMatrix type="matrix" values="0 0 0 0 0 0 0 0 0 0 0 0 0 0 0 0 0 0 0.08 0"/>
      <feBlend mode="normal" in2="BackgroundImageFix" result="effect1_dropShadow_458_13420"/>
      <feBlend mode="normal" in="SourceGraphic" in2="effect1_dropShadow_458_13420" result="shape"/>
    </filter>
    <radialGradient id="paint0_radial_458_13420" cx="0" cy="0" r="1" gradientUnits="userSpaceOnUse" gradientTransform="translate(240 240) rotate(90) scale(240 240)">
      <stop/>
      <stop offset="1" stop-opacity="0"/>
    </radialGradient>
    <clipPath id="clip0_458_13420">
      <rect width="480" height="480" fill="white" transform="translate(16.834)"/>
    </clipPath>
    <clipPath id="clip1_458_13420">
      <rect x="16.834" width="480" height="480" fill="white"/>
    </clipPath>
    <clipPath id="clip2_458_13420">
      <rect x="16.834" width="480" height="480" fill="white"/>
    </clipPath>
  </defs>
  <mask id="mask0_458_13420" style="mask-type:alpha" maskUnits="userSpaceOnUse" x="16" y="0" width="481" height="480">
    <rect width="480" height="480" transform="translate(16.834)" fill="url(#paint0_radial_458_13420)"/>
  </mask>
  <g mask="url(#mask0_458_13420)">
    <g clip-path="url(#clip0_458_13420)">
      <g clip-path="url(#clip1_458_13420)">
        <line x1="17.334" x2="17.334" y2="480" stroke="#EAECF0"/>
        <line x1="49.334" x2="49.334" y2="480" stroke="#EAECF0"/>
        <line x1="81.334" x2="81.334" y2="480" stroke="#EAECF0"/>
        <line x1="113.334" x2="113.334" y2="480" stroke="#EAECF0"/>
        <line x1="145.334" x2="145.334" y2="480" stroke="#EAECF0"/>
        <line x1="177.334" x2="177.334" y2="480" stroke="#EAECF0"/>
        <line x1="209.334" x2="209.334" y2="480" stroke="#EAECF0"/>
        <line x1="241.334" x2="241.334" y2="480" stroke="#EAECF0"/>
        <line x1="273.334" x2="273.334" y2="480" stroke="#EAECF0"/>
        <line x1="305.334" x2="305.334" y2="480" stroke="#EAECF0"/>
        <line x1="337.334" x2="337.334" y2="480" stroke="#EAECF0"/>
        <line x1="369.334" x2="369.334" y2="480" stroke="#EAECF0"/>
        <line x1="401.334" x2="401.334" y2="480" stroke="#EAECF0"/>
        <line x1="433.334" x2="433.334" y2="480" stroke="#EAECF0"/>
        <line x1="465.334" x2="465.334" y2="480" stroke="#EAECF0"/>
      </g>
      <rect x="17.334" y="0.5" width="479" height="479" stroke="#EAECF0"/>
      <g clip-path="url(#clip2_458_13420)">
        <line x1="16.834" y1="31.5" x2="496.834" y2="31.5" stroke="#EAECF0"/>
        <line x1="16.834" y1="63.5" x2="496.834" y2="63.5" stroke="#EAECF0"/>
        <line x1="16.834" y1="95.5" x2="496.834" y2="95.5" stroke="#EAECF0"/>
        <line x1="16.834" y1="127.5" x2="496.834" y2="127.5" stroke="#EAECF0"/>
        <line x1="16.834" y1="159.5" x2="496.834" y2="159.5" stroke="#EAECF0"/>
        <line x1="16.834" y1="191.5" x2="496.834" y2="191.5" stroke="#EAECF0"/>
        <line x1="16.834" y1="223.5" x2="496.834" y2="223.5" stroke="#EAECF0"/>
        <line x1="16.834" y1="255.5" x2="496.834" y2="255.5" stroke="#EAECF0"/>
        <line x1="16.834" y1="287.5" x2="496.834" y2="287.5" stroke="#EAECF0"/>
        <line x1="16.834" y1="319.5" x2="496.834" y2="319.5" stroke="#EAECF0"/>
        <line x1="16.834" y1="351.5" x2="496.834" y2="351.5" stroke="#EAECF0"/>
        <line x1="16.834" y1="383.5" x2="496.834" y2="383.5" stroke="#EAECF0"/>
        <line x1="16.834" y1="415.5" x2="496.834" y2="415.5" stroke="#EAECF0"/>
        <line x1="16.834" y1="447.5" x2="496.834" y2="447.5" stroke="#EAECF0"/>
        <line x1="16.834" y1="479.5" x2="496.834" y2="479.5" stroke="#EAECF0"/>
      </g>
      <rect x="17.334" y="0.5" width="479" height="479" stroke="#EAECF0"/>
    </g>
  </g>
  <g filter="url(#filter0_d_458_13420)">
    <rect x="232.834" y="216" width="48" height="48" rx="10" fill="white"/>
    <rect x="233.334" y="216.5" width="47" height="47" rx="9.5" stroke="#E1E6EF"/>
    <path d="M259.834 246C259.834 247.657 261.177 249 262.834 249C264.491 249 265.834 247.657 265.834 246C265.834 244.343 264.491 243 262.834 243C261.177 243 259.834 244.343 259.834 246ZM259.834 246C257.447 246 255.158 245.052 253.47 243.364C251.782 241.676 250.834 239.387 250.834 237M250.834 237C252.491 237 253.834 235.657 253.834 234C253.834 232.343 252.491 231 250.834 231C249.177 231 247.834 232.343 247.834 234C247.834 235.657 249.177 237 250.834 237ZM250.834 237V249" stroke="#1D2433" stroke-width="2" stroke-linecap="round" stroke-linejoin="round"/>
  </g>
</svg>
