<?xml version="1.0" encoding="utf-8"?>
<!-- Generator: Adobe Illustrator 27.9.0, SVG Export Plug-In . SVG Version: 6.00 Build 0)  -->
<svg version="1.1" id="Layer_1" xmlns="http://www.w3.org/2000/svg" xmlns:xlink="http://www.w3.org/1999/xlink" x="0px" y="0px"
	 viewBox="0 0 407 392" style="enable-background:new 0 0 407 392;" xml:space="preserve">
<style type="text/css">
	.st0{fill:none;}
	.st1{clip-path:url(#SVGID_00000150095546755603539730000000313355996939365529_);}
	.st2{fill:#316FED;}
	.st3{fill:#E02E3D;}
	.st4{fill:#FBBB3C;}
	.st5{fill:#29AE81;}
</style>
<rect class="st0" width="407" height="392"/>
<g>
	<defs>
		<rect id="SVGID_1_" width="407" height="392"/>
	</defs>
	<clipPath id="SVGID_00000065064319710162233240000008648980519136740781_">
		<use xlink:href="#SVGID_1_"  style="overflow:visible;"/>
	</clipPath>
	<g style="clip-path:url(#SVGID_00000065064319710162233240000008648980519136740781_);">
		<path class="st2" d="M-52.7,654.4L103.7,498l30.6,30.6L-22.1,685L-52.7,654.4z"/>
		<path class="st3" d="M110.9,490.8l156.4-156.4l30.6,30.6L141.5,521.4L110.9,490.8z"/>
		<path class="st4" d="M274.5,327.2l156.4-156.4l30.6,30.6L305.1,357.8L274.5,327.2z"/>
		<path class="st5" d="M438.1,163.6L594.4,7.3L625,37.9L468.7,194.2L438.1,163.6z"/>
		<path class="st2" d="M117.9,400.1l156.4-156.4l30.6,30.6L148.5,430.7L117.9,400.1z"/>
		<path class="st3" d="M281.5,236.5L437.8,80.2l30.6,30.6L312.1,267.1L281.5,236.5z"/>
		<path class="st4" d="M445,73L601.4-83.4L632-52.8L475.6,103.6L445,73z"/>
		<path class="st5" d="M608.6-90.6L765-247l30.6,30.6L639.2-60L608.6-90.6z"/>
		<path class="st2" d="M-53.5,487.8l156.4-156.4l30.6,30.6L-22.9,518.4L-53.5,487.8z"/>
		<path class="st3" d="M110.1,324.2l156.4-156.4l30.6,30.6L140.7,354.8L110.1,324.2z"/>
		<path class="st4" d="M273.7,160.6L430,4.2l30.6,30.6L304.3,191.2L273.7,160.6z"/>
		<path class="st5" d="M437.3-3l156.4-156.4l30.6,30.6L467.9,27.6L437.3-3z"/>
		<path class="st2" d="M-137,822.4L19.4,666L50,696.6L-106.4,853L-137,822.4z"/>
		<path class="st3" d="M26.6,658.8L183,502.4l30.6,30.6L57.2,689.4L26.6,658.8z"/>
		<path class="st4" d="M190.2,495.2l156.4-156.4l30.6,30.6L220.8,525.8L190.2,495.2z"/>
		<path class="st5" d="M353.7,331.7l156.4-156.4l30.6,30.6L384.3,362.3L353.7,331.7z"/>
	</g>
</g>
</svg>