<svg width="215" height="228" viewBox="0 0 215 228" fill="none" xmlns="http://www.w3.org/2000/svg">
<path d="M41.2461 64.9604C41.2461 61.2016 44.2932 58.1544 48.052 58.1544H162.051C165.81 58.1544 168.857 61.2016 168.857 64.9604V178.96C168.857 182.718 165.81 185.766 162.051 185.766H48.052C44.2932 185.766 41.2461 182.718 41.2461 178.96V64.9604Z" fill="#F0F0F0"/>
<path d="M60.9365 105.517C71.2075 115.898 84.4391 113.142 93.4071 105.092" stroke="#1D2433" stroke-width="2.87788" stroke-linecap="round"/>
<path d="M116.479 105.517C126.75 115.898 139.981 113.142 148.949 105.092" stroke="#1D2433" stroke-width="2.87788" stroke-linecap="round"/>
<circle cx="106.482" cy="146.901" r="5.48597" fill="#1D2433"/>
<path d="M49.8372 42.012L50.1776 43.211L38.8669 46.4231L38.5136 45.1789L44.2017 29.1405L35.221 31.6909L34.8805 30.492L45.3316 27.524L45.6849 28.7682L39.9742 44.813L49.8372 42.012Z" fill="#1D2433"/>
<path d="M29.193 27.4803L29.8185 29.6827L9.04091 35.5833L8.39185 33.2978L18.8408 3.83562L2.34338 8.52067L1.71792 6.31826L20.9164 0.866123L21.5654 3.15165L11.075 32.6256L29.193 27.4803Z" fill="#1D2433"/>
<circle cx="30.3586" cy="189.79" r="4.02461" fill="#F0F0F0"/>
<circle cx="41.2448" cy="194.287" r="2.85713" fill="#F0F0F0"/>
<circle cx="158.846" cy="46.4231" r="4.60513" fill="#F0F0F0"/>
<circle cx="27.5684" cy="203.96" r="6.81548" fill="#F0F0F0"/>
<circle cx="185.805" cy="63.9817" r="9.21109" fill="#F0F0F0"/>
<path d="M13.9375 207.34L4.96586 209.114" stroke="#1D2433" stroke-width="1.70148" stroke-linecap="round"/>
<path d="M193.786 46.4231L213.197 40.065" stroke="#1D2433" stroke-width="1.70148" stroke-linecap="round"/>
<path d="M19.9619 213.739L13.551 220.262" stroke="#1D2433" stroke-width="1.70148" stroke-linecap="round"/>
<path d="M187.761 40.0234L194.172 33.5012" stroke="#1D2433" stroke-width="1.70148" stroke-linecap="round"/>
<path d="M27.7266 217.672L29.4708 226.65" stroke="#1D2433" stroke-width="1.70148" stroke-linecap="round"/>
<path d="M179.996 36.0904L185.803 17.4485" stroke="#1D2433" stroke-width="1.70148" stroke-linecap="round"/>
</svg>
