<svg width="51" height="52" viewBox="0 0 51 52" fill="none" xmlns="http://www.w3.org/2000/svg">
<path d="M22.9049 0.521889C17.3612 0.521889 12.4359 4.09163 10.7192 9.36048C8.95735 9.72365 7.29311 10.4579 5.83716 11.5143C4.38122 12.5708 3.16698 13.9252 2.27524 15.4874C-0.505144 20.2929 0.129746 26.3341 3.85456 30.4529C2.70458 33.9029 3.09926 37.6782 4.93581 40.8021C7.69917 45.6246 13.2593 48.0961 18.7003 46.9461C19.8916 48.2906 21.3558 49.3656 22.9954 50.0996C24.6349 50.8335 26.4121 51.2095 28.2084 51.2024C33.7522 51.2024 38.6774 47.6327 40.3942 42.3638C43.9639 41.6255 47.0362 39.3943 48.8211 36.2369C51.6185 31.4314 50.9836 25.3902 47.2594 21.2714V21.2543C47.8275 19.5491 48.0249 17.7421 47.8384 15.9544C47.6519 14.1667 47.0859 12.4394 46.1781 10.8881C43.4142 6.08265 37.8534 3.61059 32.4301 4.76057C31.2333 3.41958 29.7652 2.34822 28.1231 1.61748C26.4809 0.886737 24.7023 0.513292 22.9049 0.521889ZM22.9049 3.81736L22.8879 3.83439C25.1191 3.83439 27.2646 4.60671 28.9808 6.03157C28.912 6.06562 28.7746 6.15137 28.6718 6.20306L18.5805 12.0211C18.0654 12.313 17.7565 12.8621 17.7565 13.4629V27.124L13.4144 24.6185V13.3255C13.4134 10.8065 14.4124 8.3901 16.1919 6.60718C17.9714 4.82425 20.3859 3.82123 22.9049 3.81736ZM35.0615 7.79454C36.7338 7.79133 38.3773 8.22966 39.8259 9.06523C41.2745 9.9008 42.4768 11.104 43.3114 12.5532C44.4097 14.4755 44.8214 16.7237 44.4437 18.9033C44.375 18.8516 44.2382 18.7835 44.1518 18.7318L34.0605 12.8962C33.8066 12.7526 33.5199 12.6771 33.2283 12.6771C32.9366 12.6771 32.6499 12.7526 32.396 12.8962L20.5709 19.7267V14.7151L30.3363 9.06858C31.7721 8.23615 33.4018 7.79714 35.0615 7.79454ZM10.1019 12.9819V24.9785C10.1019 25.5794 10.4108 26.1115 10.9259 26.4204L22.7334 33.2339L18.3737 35.7565L8.62535 30.127C6.44682 28.8644 4.85825 26.7891 4.20836 24.3564C3.55847 21.9238 3.90037 19.3327 5.159 17.1519C6.2693 15.2273 8.01796 13.7525 10.1019 12.9819ZM32.722 15.9508L42.4874 21.5803C47.0356 24.2062 48.5796 30.0072 45.9537 34.5554L45.9708 34.5724C44.8554 36.4947 43.1046 37.9707 41.0279 38.726V26.7287C41.0279 26.1279 40.7189 25.5788 40.2038 25.2875L28.3793 18.4563L32.722 15.9508ZM25.5478 20.0873L30.5254 22.9705V28.7198L25.5478 31.6029L20.5709 28.7198V22.9705L25.5478 20.0873ZM33.3739 24.6185L37.716 27.124V38.4C37.716 43.6518 33.4597 47.9082 28.2255 47.9082V47.8911C26.0112 47.8911 23.8487 47.1188 22.1496 45.6946C22.2183 45.6605 22.3728 45.5742 22.4585 45.5225L32.5499 39.7045C33.065 39.4126 33.3909 38.8634 33.3733 38.2626L33.3739 24.6185ZM30.5418 31.9982V37.0092L20.7764 42.6387C16.2282 45.2476 10.4272 43.7029 7.80133 39.1717H7.81836C6.70305 37.2665 6.30776 35.0012 6.68541 32.8216C6.75413 32.8733 6.89157 32.9414 6.97731 32.9931L17.0687 38.8288C17.3225 38.9723 17.6092 39.0478 17.9009 39.0478C18.1925 39.0478 18.4792 38.9723 18.7331 38.8288L30.5418 31.9982Z" fill="#1D2433"/>
</svg>
