<svg width="61" height="60" viewBox="0 0 61 60" fill="none" xmlns="http://www.w3.org/2000/svg">
<path d="M19.2491 58L3.13953 36.2009M19.2491 58L48.6555 51.7991M19.2491 58L31.0117 43.7443M3.13953 36.2009L7.23085 11.4612M3.13953 36.2009L31.0117 43.7443M3.13953 36.2009L22.8073 11.5339M7.23085 11.4612L38.1076 2M7.23085 11.4612L22.8073 11.5339M38.1076 2L58.5003 25.0776M38.1076 2L22.8073 11.5339M58.5003 25.0776L48.6555 51.7991M58.5003 25.0776L50.3176 23.6073M48.6555 51.7991L31.0117 43.7443M31.0117 43.7443L50.3176 23.6073M31.0117 43.7443L22.8073 11.5339M50.3176 23.6073L22.8073 11.5339" stroke="black" stroke-width="1.5" stroke-linecap="round" stroke-linejoin="round"/>
</svg>
