<svg width="60" height="60" viewBox="0 0 60 60" fill="none" xmlns="http://www.w3.org/2000/svg">
<path d="M25.1478 2.00125L25.1491 9.51135C16.3682 9.26512 9.24658 16.28 9.51607 25.1567L1.99776 25.154C1.79257 12.224 12.0988 1.72629 25.1478 2.00125Z" fill="#FABC2D"/>
<path d="M25.1478 2.00125C37.2009 2.35008 46.7069 11.9463 47.1241 23.942L39.6085 23.9406C39.5812 23.7272 39.5566 23.5015 39.5347 23.2634C38.8384 15.5878 32.8043 9.96825 25.1492 9.51135L25.1478 2.00125Z" fill="#E74339"/>
<path d="M39.6085 23.9406L47.124 23.942C47.2116 28.9615 45.8322 33.5072 42.9859 37.5792C42.9766 37.5922 42.9722 37.6082 42.9735 37.6242C42.9747 37.6402 42.9816 37.6553 42.9928 37.6667L57.9966 52.6691C58.0034 52.6761 58.0073 52.6854 58.0073 52.6951C58.0073 52.7049 58.0034 52.7142 57.9966 52.7211L52.7395 57.9782C52.7158 58.0019 52.6921 58.0019 52.6684 57.9782L37.6933 43.0018C37.6559 42.9644 37.6153 42.9607 37.5716 42.9908C33.858 45.5982 29.7049 46.978 25.1122 47.1303C25.1268 47.0874 25.1318 47.0427 25.1272 46.9962C25.1272 46.988 25.13 46.9866 25.1354 46.9921C25.1436 46.9994 25.155 47.0021 25.1696 47.0003C25.1769 46.9994 25.1806 46.9948 25.1806 46.9866L25.1861 39.6092C33.5963 39.1044 39.8054 32.3864 39.6085 23.9406Z" fill="#4489F1"/>
<path d="M1.9978 25.154L9.51611 25.1567C9.99626 33.5902 16.7307 39.7925 25.1861 39.6092L25.1806 46.9866C25.1806 46.9948 25.177 46.9994 25.1697 47.0003C25.1551 47.0021 25.1437 46.9994 25.1355 46.9921C25.13 46.9866 25.1273 46.988 25.1273 46.9962C25.1318 47.0427 25.1268 47.0874 25.1122 47.1302C19.4069 47.1922 14.4016 45.4385 10.0961 41.8691C5.15095 37.7693 2.19616 31.6463 1.9978 25.154Z" fill="#38A856"/>
</svg>
